<?xml version="1.0" encoding="UTF-8" standalone="no"?>
<svg
   id="Ebene_1"
   viewBox="0 0 413 412.99998"
   version="1.1"
   sodipodi:docname="wikibase_cloud_rgb_LOGOonly_NOborder.svg"
   width="413"
   height="413"
   inkscape:export-filename="wikibase_cloud_rgb_border.png"
   inkscape:export-xdpi="96"
   inkscape:export-ydpi="96"
   inkscape:version="1.2.1 (9c6d41e410, 2022-07-14)"
   xmlns:inkscape="http://www.inkscape.org/namespaces/inkscape"
   xmlns:sodipodi="http://sodipodi.sourceforge.net/DTD/sodipodi-0.dtd"
   xmlns:xlink="http://www.w3.org/1999/xlink"
   xmlns="http://www.w3.org/2000/svg"
   xmlns:svg="http://www.w3.org/2000/svg">
  <sodipodi:namedview
     id="namedview4400"
     pagecolor="#ffffff"
     bordercolor="#000000"
     borderopacity="0.25"
     inkscape:showpageshadow="2"
     inkscape:pageopacity="0.0"
     inkscape:pagecheckerboard="0"
     inkscape:deskcolor="#d1d1d1"
     showgrid="false"
     inkscape:zoom="1.2205209"
     inkscape:cx="131.09156"
     inkscape:cy="217.1204"
     inkscape:window-width="1920"
     inkscape:window-height="1043"
     inkscape:window-x="0"
     inkscape:window-y="0"
     inkscape:window-maximized="1"
     inkscape:current-layer="g5651" />
  <defs
     id="defs4357">
    <style
       id="style4312">.cls-1{fill:url(#Neues_Verlaufsfeld_17-2);}.cls-2{fill:#0063bf;}.cls-3{fill:#396;}.cls-4{fill:url(#Neues_Verlaufsfeld_16);}.cls-5{fill:url(#Neues_Verlaufsfeld_17);}.cls-6{fill:url(#Neues_Verlaufsfeld_15);}.cls-7{fill:url(#Unbenannter_Verlauf_3);}</style>
    <linearGradient
       id="Neues_Verlaufsfeld_17"
       x1="501.20001"
       y1="630.39001"
       x2="751.14001"
       y2="630.39001"
       gradientUnits="userSpaceOnUse">
      <stop
         offset="0"
         stop-color="#59a4d9"
         id="stop4314" />
      <stop
         offset=".08"
         stop-color="#4d9bd5"
         id="stop4316" />
      <stop
         offset=".34"
         stop-color="#2b83cb"
         id="stop4318" />
      <stop
         offset=".58"
         stop-color="#1371c4"
         id="stop4320" />
      <stop
         offset=".81"
         stop-color="#0566c0"
         id="stop4322" />
      <stop
         offset="1"
         stop-color="#0063bf"
         id="stop4324" />
    </linearGradient>
    <linearGradient
       id="Neues_Verlaufsfeld_16"
       x1="194.97"
       y1="630.39001"
       x2="671.95001"
       y2="630.39001"
       gradientUnits="userSpaceOnUse">
      <stop
         offset="0"
         stop-color="#5cb075"
         id="stop4327" />
      <stop
         offset="0"
         stop-color="#5baf74"
         id="stop4329" />
      <stop
         offset=".36"
         stop-color="#45a36c"
         id="stop4331" />
      <stop
         offset=".7"
         stop-color="#379b67"
         id="stop4333" />
      <stop
         offset="1"
         stop-color="#396"
         id="stop4335" />
    </linearGradient>
    <linearGradient
       id="Neues_Verlaufsfeld_17-2"
       x1="501.20001"
       y1="631.39001"
       x2="751.14001"
       y2="631.39001"
       xlink:href="#Neues_Verlaufsfeld_17" />
    <linearGradient
       id="Unbenannter_Verlauf_3"
       x1="401.06"
       y1="631.39001"
       x2="602.65997"
       y2="631.39001"
       gradientUnits="userSpaceOnUse">
      <stop
         offset="0"
         stop-color="#396"
         id="stop4339" />
      <stop
         offset=".15"
         stop-color="#396"
         id="stop4341" />
      <stop
         offset="1"
         stop-color="#396"
         id="stop4343" />
    </linearGradient>
    <linearGradient
       id="Neues_Verlaufsfeld_15"
       x1="338.98001"
       y1="630.39001"
       x2="463.57999"
       y2="630.39001"
       gradientUnits="userSpaceOnUse">
      <stop
         offset="0"
         stop-color="#cd2e29"
         id="stop4346" />
      <stop
         offset=".19"
         stop-color="#ba1d1a"
         id="stop4348" />
      <stop
         offset=".44"
         stop-color="#a70c0b"
         id="stop4350" />
      <stop
         offset=".71"
         stop-color="#9c0302"
         id="stop4352" />
      <stop
         offset="1"
         stop-color="#900"
         id="stop4354" />
    </linearGradient>
    <linearGradient
       inkscape:collect="always"
       xlink:href="#Neues_Verlaufsfeld_17"
       id="linearGradient6101"
       gradientUnits="userSpaceOnUse"
       x1="501.20001"
       y1="630.39001"
       x2="751.14001"
       y2="630.39001" />
  </defs>
  <g
     id="g5651"
     transform="translate(-338.54875,-505.39125)"
     inkscape:export-filename="wikibase_cloud_rgb.png"
     inkscape:export-xdpi="96"
     inkscape:export-ydpi="96">
    <g
       id="g11233"
       transform="translate(-0.0075,81.5)">
      <path
         class="cls-5"
         d="M 748.51,624.04 632.52,508.05 c -3.5,-3.51 -9.19,-3.51 -12.69,0 l -67.9,67.9 48.1,48.1 c 3.5,3.51 3.5,9.19 0,12.69 l -48.1,48.1 67.9,67.9 c 3.51,3.5 9.19,3.5 12.69,0 L 748.51,636.75 c 3.5,-3.5 3.5,-9.19 0,-12.69 z"
         id="path4389"
         style="fill:url(#linearGradient6101)" />
      <path
         class="cls-4"
         d="m 501.3,631.4 c -0.08,-0.68 -0.08,-1.35 0,-2.03 0.22,-1.95 1.04,-3.84 2.53,-5.33 l 48.1,-48.1 -43.72,-43.72 c -1.9,-1.9 -4.42,-2.73 -6.91,-2.58 -2.11,0.13 -4.18,0.97 -5.79,2.58 l -63.38,63.38 29.08,29.08 c 3.15,3.15 3.15,8.27 0,11.42 l -29.08,29.08 63.38,63.38 c 1.61,1.61 3.68,2.44 5.79,2.58 2.48,0.15 5.01,-0.68 6.91,-2.58 l 43.72,-43.72 -48.1,-48.1 c -1.49,-1.49 -2.31,-3.39 -2.53,-5.33 z"
         id="path4391"
         style="fill:url(#Neues_Verlaufsfeld_16)" />
      <path
         class="cls-1"
         d="m 501.3,632.4 v -2.03 c -0.08,0.68 -0.08,1.35 0,2.03 z"
         id="path4393"
         style="fill:url(#Neues_Verlaufsfeld_17-2)" />
      <path
         class="cls-7"
         d="m 501.3,632.4 v -2.03 c -0.08,0.68 -0.08,1.35 0,2.03 z"
         id="path4395"
         style="fill:url(#Unbenannter_Verlauf_3)" />
      <path
         class="cls-6"
         d="m 403.69,624.04 28.45,-28.45 -25.15,-25.15 c -3.15,-3.15 -8.27,-3.15 -11.42,0 l -54.23,54.23 c -3.15,3.15 -3.15,8.27 0,11.42 l 54.23,54.23 c 3.15,3.15 8.27,3.15 11.42,0 l 25.15,-25.15 -28.45,-28.45 c -3.5,-3.5 -3.5,-9.19 0,-12.69 z"
         id="path4397"
         style="fill:url(#Neues_Verlaufsfeld_15)" />
    </g>
  </g>
</svg>
