<?xml version="1.0" encoding="UTF-8"?><svg id="Ebene_2" xmlns="http://www.w3.org/2000/svg" viewBox="0 0 734.55 737.75"><defs><style>.cls-1{fill:#2951b0;stroke-width:0px;}</style></defs><g id="Ebene_1-2"><path class="cls-1" d="m675.35,289.36l-84.88-84.88-14.31,79.07,26.5,26.5c6.8,6.8,6.8,17.85,0,24.66l-128.52,128.52,10.41,14.95c2.41-7.94,7.58-16.93,18.35-17.64,1.98-.14,4.04-.07,6.09.28l166.43-166.43c1.35-1.49,1.28-3.68-.07-5.03Z"/><path class="cls-1" d="m424.18,134.84c1.2-2.62,2.69-5.1,4.46-7.44,5.46-7.01,22.32-23.31,42.58-42.16l-24.02-24.02c-1.35-1.35-3.61-1.35-4.96,0l-172.38,172.38-.28,7.37c-1.2,17.22-13.25,31.81-29.97,36.06-5.46,1.49-10.98,2.76-16.58,3.68,6.02,5.74,13.6,13.04,21.75,20.9l162.46-162.46c4.53-4.25,10.91-5.95,16.93-4.32Z"/><path class="cls-1" d="m289.71,622.85l-170.68-170.68c-6.8-6.8-6.73-17.78-.07-24.58l58.59-58.59c-.28-.14-.57-.28-.85-.43-3.26,4.53-8.29,9.42-15.3,11.34-4.89,1.35-10.06.99-14.81-.78-2.05,6.02-5.81,12.47-12.33,15.73-4.68,2.27-12.33,3.54-22.46-3.05l-46.34,46.34c-1.35,1.35-1.35,3.61,0,4.96l228.07,228.07c1.35,1.35,3.61,1.35,4.96,0l100.89-100.89-5.24-2.41,2.83-7.37c6.23-14.88,20.69-24.51,36.77-24.58l12.68-12.68c-3.47-6.59-7.16-13.82-11.05-21.4l-121.08,121.08c-6.8,6.8-17.78,6.73-24.58-.07Z"/><path class="cls-1" d="m602.58,309.98l-26.5-26.5-2.34,12.97,21.18,21.18c2.62,2.62,2.55,6.8,0,9.35l-127.1,127.1,6.23,9.07,128.52-128.52c6.8-6.8,6.8-17.85,0-24.66Z"/><path class="cls-1" d="m529.75,247.77l-2.41,2.13,2.9,2.9c-.14-1.7-.35-3.33-.5-5.03Z"/><path class="cls-1" d="m297.29,615.27l-170.68-170.68c-2.62-2.62-2.55-6.8,0-9.35l63.2-63.2c-4.25-.14-8.36-1.28-12.19-3.12l-58.66,58.66c-6.8,6.8-6.8,17.85,0,24.66l170.68,170.68c6.8,6.8,17.85,6.8,24.66,0l121.08-121.08c-1.7-3.26-3.4-6.66-5.17-10.13l-123.56,123.56c-2.55,2.55-6.73,2.62-9.35,0Z"/><path class="cls-1" d="m213.34,347.25v1.28l.71-.71-.71-.57Z"/><path class="cls-1" d="m422.48,145.61c-.43-3.68.21-7.44,1.77-10.84-6.02-1.63-12.47,0-16.93,4.46l-162.53,162.53c2.55,2.41,5.1,4.96,7.79,7.51l162.39-162.39c1.91-1.91,4.96-2.41,7.51-1.28Z"/><rect class="cls-1" x="308.32" y="554.15" width="10.82" height="21.64" transform="translate(-307.6 387.32) rotate(-45)"/><rect class="cls-1" x="234.42" y="408.11" width="10.82" height="165.93" transform="translate(-277 313.42) rotate(-45)"/><path class="cls-1" d="m283.19,483.42l40.81,40.81,31.88-31.88-20.19-20.19c-7.51,7.37-15.3,14.45-25.86,18.78-3.54-3.54-4.96-9.21-7.79-13.46,7.79-5.24,15.59-10.34,21.75-17.22l-8.71-8.71-31.88,31.88h0Z"/><path class="cls-1" d="m349.23,396.42l-8.71-8.71-31.88,31.88,24.37,24.37c1.13-2.27,1.84-4.68,2.34-6.87,1.28-15.73,7.37-27.77,13.89-40.67Z"/><path class="cls-1" d="m358.72,423.62c.64,13.39-6.8,23.38-12.47,33.58l22.39,22.39,31.88-31.88-37.2-37.2c-2.9,4.18-5.1,8.64-4.61,13.11Z"/><path class="cls-1" d="m374.87,332.79c-.92,2.76-1.42,5.67-.64,8.57,5.38,16.15,5.67,36.28-2.9,51.65l17.29,17.29c-.71-10.63,5.53-20.55,16.86-23.52,4.25-1.42,9.92-1.42,14.88.71,8.93,4.96,14.74,12.33,20.48,19.91l4.32-4.32-70.28-70.28Z"/><path class="cls-1" d="m358.01,363.4c-1.98-10.77-2.55-19.55-2.76-28.55l-21.04,21.04,22.03,22.03c2.13-4.82,2.98-9.64,1.77-14.52Z"/><path class="cls-1" d="m385.22,253.87l-31.88,31.88,14.24,14.24c10.27-10.7,18.99-23.81,28.62-35.14l-10.98-10.98Z"/><path class="cls-1" d="m411.15,279.8c-9.78,11.34-21.47,22.18-27.35,36.42l8.86,8.86c.14-15.16,10.84-30.54,21.75-42.01l-3.26-3.26Z"/><path class="cls-1" d="m411.93,344.34l45.98,45.98,31.88-31.88-38.33-38.33c-11.9,10.06-24.16,25.44-39.53,24.23Z"/><path class="cls-1" d="m465.7,308.85l36.84,36.84,31.88-31.88-34.43-34.43c-10.91,10.2-22.74,20.05-34.29,29.47Z"/><path class="cls-1" d="m540.8,307.43l-102.59,102.59c2.05,2.62,4.11,5.67,6.31,9l103.94-103.94-7.65-7.65Z"/><path class="cls-1" d="m368.64,479.6l-82.89,82.89,7.58,7.58,117.26-117.26c-1.91-3.76-3.47-7.16-5.03-10.27l-36.98,36.98.07.07Z"/><path class="cls-1" d="m471.3,85.32c-20.26,18.85-37.13,35.14-42.58,42.16-1.84,2.27-3.33,4.75-4.46,7.44-1.56,3.4-2.13,7.08-1.77,10.84.21,1.49.57,2.98,1.06,4.32,2.62,6.73,8.79,11.05,14.6,13.6-2.2,4.61-2.9,9.71-2.05,14.67,1.35,7.16,5.81,12.47,10.06,16.15-3.9,6.31-6.52,15.02-3.47,24.73,3.26,10.34,13.32,13.18,21.61,13.53l-5.17,5.88-29.76,34.01-3.54,4.11c-3.26,3.12-6.16,6.02-8.93,8.93-17.64,18.92-23.38,33.44-17.57,44.35,4.32,8.01,13.96,10.7,20.69,9.07,2.2-.5,4.82-1.13,28.91-21.25,4.04-3.33,8.57-7.16,13.82-11.69,6.73-5.74,14.67-12.54,23.88-20.62,3.47-3.05,6.87-6.02,10.34-8.93,11.27-9.85,21.89-19.2,30.18-26.5l2.41-2.13c.14,1.56.28,3.26.5,5.03.43,3.54.99,7.51,1.77,11.83,2.9,17.07,16.44,30.32,33.51,32.95l7.86.92.43-2.13,2.34-12.97,14.31-79.07,3.19-17.64,1.7-1.56,38.9-36.77-11.9-11.9-44.14,41.87-18.07,99.83c-4.53-2.55-9.71-7.44-11.41-16.65-3.76-20.19-2.05-30.11-1.84-30.89l6.94-26.64-20.76,18.49c-50.09,44.56-107.13,93.95-117.04,100.04-.64-.07-1.28-.28-1.7-.71-.07-.07-2.55-8.79,23.45-33.37l.28-.28,60.65-69.15-8.71,7.58-9-10.41,3.9-3.33-1.77.5c-11.27,3.33-23.31,3.19-24.16.64-2.2-6.87,2.69-12.47,4.46-14.24l-5.88,5.03-9-10.41,11.97-10.41c-2.83-1.7-7.09-5.1-7.79-8.93-.64-3.61,2.34-7.58,4.96-10.34l10.91-11.48h0l-12.4,10.84-9.07-10.34,3.9-3.47c-4.75-1.2-10.84-3.76-11.83-6.31-.43-1.13.64-3.47,2.69-6.09,8.86-11.27,53.07-51.93,93.45-88.21l-11.9-11.9c-12.68,11.41-26.5,23.95-39.68,35.99-3.9,3.76-8.15,7.58-12.26,11.41Z"/><polygon class="cls-1" points="464.85 198.46 474.2 190.81 473.92 190.67 464.85 198.46"/><polygon class="cls-1" points="529.47 192.23 520.4 181.88 484.69 212.92 480.79 216.25 489.93 226.66 498.58 219.15 529.47 192.23"/><polygon class="cls-1" points="473.92 190.67 491.92 175.08 482.85 164.6 460.39 184.08 448.42 194.5 457.41 204.91 463.36 199.81 464.85 198.46 473.92 190.67"/><polygon class="cls-1" points="470.02 133.64 450.97 150.29 447.07 153.76 456.07 164.17 468.47 153.33 479.09 143.98 470.02 133.64"/><path class="cls-1" d="m574.6,458.55c-7.23.85-12.82,5.88-16.72,10.91-3.9-3.19-8.71-5.17-13.74-5.53-7.23-.43-13.53,2.62-18.14,5.81l-.99-.99c-4.39-4.25-9.99-7.16-16.01-8.08-1.98-.28-4.04-.35-6.09-.28-10.84.64-15.94,9.71-18.35,17.64l-10.41-14.95-6.23-9.07-16.65-24.02c-2.27-3.97-4.46-7.72-6.73-11.12-2.27-3.4-4.25-6.23-6.31-9-11.48-15.02-22.18-21.04-32.24-18.49-8.86,2.2-13.74,10.91-13.82,17.93,0,.99,0,2.13,1.13,5.38,1.49,4.18,4.75,11.97,12.4,27.7,1.49,3.05,3.12,6.52,5.03,10.27,4.53,9.21,10.2,20.4,17.22,34.22.85,1.56,1.56,3.12,2.41,4.68,1.7,3.4,3.47,6.73,5.17,10.13,3.83,7.51,7.58,14.81,11.05,21.4,2.76,5.31,5.31,10.27,7.51,14.6-5.6-.92-11.27-1.49-16.93-1.91-1.06-.07-2.2-.07-3.19-.07-16.08.07-30.61,9.78-36.77,24.58l-2.83,7.37,5.24,2.41,16.58,7.51,76.87,34.79,12.68-12.68-88.7-39.82c3.61-3.76,9.56-7.58,18.85-7.08,20.48,1.2,29.69,5.31,30.47,5.67l24.16,13.25-12.89-24.66c-31.1-59.44-65.11-126.75-68.65-137.8.14-.57.57-1.13,1.06-1.49.07-.07,9.14-.35,26.64,30.89l.21.35,52.5,75.6-5.24-10.34,12.33-6.23,2.34,4.61-.14-1.84c-.57-11.76,2.55-23.38,5.31-23.59,7.23-.43,11.48,5.67,12.75,7.79l-3.54-6.94,12.33-6.23,7.23,14.17c2.34-2.2,6.59-5.6,10.49-5.38,3.61.21,6.94,4.11,8.93,7.37l8.43,13.39h0l-7.51-14.6,12.26-6.31,2.41,4.68c2.34-4.32,6.31-9.56,9-9.85,1.13-.14,3.19,1.49,5.24,4.11,3.19,4.18,9.28,14.1,16.79,27.28l12.26-12.26c-6.87-11.97-12.54-21.04-15.8-25.29-7.65-9.92-15.45-11.19-20.62-10.56Z"/><polygon class="cls-1" points="522.74 497.95 523.02 497.66 517.49 486.75 522.74 497.95"/><polygon class="cls-1" points="520.26 544.78 498.72 502.69 496.38 498.09 484.12 504.39 489.37 514.6 507.93 551.01 520.26 544.78"/><polygon class="cls-1" points="523.02 497.66 533.72 518.85 546.05 512.61 532.59 486.11 525.43 471.87 513.1 478.11 516.64 485.05 517.49 486.75 523.02 497.66"/><polygon class="cls-1" points="579.2 507.65 567.66 485.19 565.25 480.38 552.99 486.68 560.5 501.42 566.95 513.96 579.2 507.65"/><path class="cls-1" d="m111.45,391.6c.14.14.28.14.35.21,10.2,6.52,17.85,5.24,22.46,3.05,6.59-3.19,10.27-9.71,12.33-15.73,4.75,1.77,9.92,2.13,14.81.78,7.01-1.91,11.97-6.87,15.3-11.34.28.14.57.28.85.43,3.83,1.84,8.01,2.9,12.19,3.12,4.11.14,8.08-.57,11.83-2.2,9.56-3.9,11.76-13.32,11.76-21.4v-1.28s.71.57.71.57l46.27,34.22c25.22,22.53,43.29,29.69,55.26,21.96.99-.71,1.98-1.42,2.76-2.2,4.82-5.1,6.59-12.4,4.61-19.2-.99-2.98-2.2-6.73-58.81-61.92-3.9-3.76-7.72-7.58-11.55-11.27-2.69-2.55-5.24-5.1-7.79-7.51-8.22-7.94-15.73-15.16-21.75-20.9,5.6-.92,11.12-2.2,16.65-3.76,16.79-4.32,28.84-18.92,30.04-36.13l.28-7.37.07-.5-21.68-2.13-91.47-8.86-15.94-14.24-11.9,11.9,20.76,18.49,101.03,9.78c-2.2,4.75-6.59,10.27-15.59,12.75-19.84,5.38-29.83,4.46-30.68,4.46l-27.14-4.75,20.12,19.13c48.6,46.19,102.38,98.98,109.32,108.33,0,.71-.28,1.56-.57,1.7-.07.07-8.5,3.26-35.21-20.62l-.28-.28-73.9-54.63,8.22,8.08-9.64,9.92-3.68-3.54.71,1.7c4.25,10.91,5.1,22.96,2.62,24.02-6.66,2.69-12.68-1.63-14.52-3.33l5.6,5.46-9.71,9.85-11.34-11.05c-1.42,2.83-4.46,7.44-8.22,8.5-3.54.99-7.79-1.7-10.77-4.11l-12.26-9.85h0l11.76,11.34-9.64,9.92-3.83-3.68c-.78,5.31-3.05,11.12-5.31,12.26-1.06.5-3.47-.35-6.31-2.2-10.27-6.73-44.42-37.9-79-70.21l-11.9,11.9c24.87,23.31,51.65,47.97,68.44,62.06,4.25,3.54,8.71,7.01,13.25,10.27Z"/><polygon class="cls-1" points="170.75 340.8 170.61 341.23 179.33 349.8 170.75 340.8"/><polygon class="cls-1" points="167.71 285.75 158.07 295.67 191.94 328.69 195.62 332.23 205.26 322.31 196.97 314.3 167.71 285.75"/><polygon class="cls-1" points="170.61 341.23 153.61 324.65 143.97 334.42 165.23 355.25 176.56 366.31 186.2 356.53 180.67 351 179.33 349.8 170.61 341.23"/><polygon class="cls-1" points="123.71 339.95 114.15 349.8 132.35 367.44 136.18 371.12 145.67 361.21 133.98 349.8 123.71 339.95"/><path class="cls-1" d="m381.67,308c6.02-8.86,12.75-17.15,20.12-24.8l38.26-38.26-7.65-7.65-38.26,38.26c-7.86,8.15-15.09,16.93-21.4,26.36-.5.64-.92,1.35-1.28,1.98-6.38,9.92-10.41,18.92-12.12,26.85-1.7,8.08-1.06,15.09,1.91,21.18,4.32,8.71,2.34,18.63-1.7,29.33-1.91,4.89-4.25,10.06-6.73,15.23l-1.13,2.41c-5.17,11.12-10.2,22.67-10.13,33.51,0,4.96-1.84,10.2-4.82,15.3-3.19,5.17-6.87,9.99-11.12,14.38-6.02,6.31-12.68,11.97-19.84,16.86h0l6.02,9c7.08-4.82,13.74-10.34,19.77-16.37l1.77-1.77c4.25-4.39,8.08-9.07,11.34-14.17,4.61-7.16,7.79-15.02,7.79-23.1,0-7.65,3.33-16.22,7.51-25.36.85-1.98,1.84-3.97,2.76-6.02,1.77-3.76,3.54-7.65,5.17-11.55,5.88-13.96,9.85-28.84,3.12-42.37-2.62-5.17-2.05-11.55.07-18.21,2.05-6.02,4.89-11.83,8.29-17.22.64-1.49,1.42-2.69,2.27-3.83Z"/><rect class="cls-1" x="440.79" y="11.01" width="32.57" height="12.32" transform="translate(350.58 462) rotate(-78.69)"/><rect class="cls-1" x="409.51" y="12.4" width="12.32" height="28.56" transform="translate(31.94 188.69) rotate(-26.56)"/><rect class="cls-1" x="377.6" y="34.23" width="12.32" height="36.07" transform="translate(75.45 286.67) rotate(-45)"/><rect class="cls-1" x="345.72" y="66.11" width="12.32" height="36.07" transform="translate(43.56 273.46) rotate(-45)"/><rect class="cls-1" x="317.03" y="105.69" width="12.32" height="27.05" transform="translate(10.36 263.45) rotate(-45)"/><rect class="cls-1" x="285.14" y="137.57" width="12.32" height="27.05" transform="translate(-21.52 250.24) rotate(-45)"/><rect class="cls-1" x="246.88" y="175.83" width="12.32" height="27.05" transform="translate(-59.78 234.39) rotate(-45)"/><rect class="cls-1" x="39.69" y="369.61" width="12.32" height="28.56" transform="translate(-317.99 253.17) rotate(-63.43)"/><rect class="cls-1" x="11.01" y="409.04" width="12.32" height="32.57" transform="translate(-403.25 358.74) rotate(-78.69)"/><rect class="cls-1" x="29.17" y="476.52" width="27.05" height="12.32" transform="translate(-328.8 171.56) rotate(-45)"/><rect class="cls-1" x="67.43" y="514.77" width="27.05" height="12.32" transform="translate(-344.65 209.82) rotate(-45)"/><rect class="cls-1" x="107.01" y="556.22" width="18.04" height="12.32" transform="translate(-363.68 246.76) rotate(-45)"/><rect class="cls-1" x="143.94" y="591.29" width="27.05" height="12.32" transform="translate(-376.34 286.34) rotate(-45)"/><rect class="cls-1" x="189.9" y="626.36" width="18.04" height="12.32" transform="translate(-389 325.92) rotate(-45)"/><rect class="cls-1" x="220.46" y="667.81" width="27.05" height="12.32" transform="translate(-408.04 362.86) rotate(-45)"/><rect class="cls-1" x="255.99" y="706.02" width="32.57" height="12.32" transform="translate(-479.48 839.47) rotate(-78.69)"/><rect class="cls-1" x="310.71" y="700.06" width="12.32" height="37.17" transform="translate(-324.55 265.39) rotate(-30.96)"/><rect class="cls-1" x="342.53" y="679.58" width="12.32" height="27.05" transform="translate(-387.97 449.57) rotate(-45)"/><rect class="cls-1" x="371.23" y="640" width="12.32" height="36.07" transform="translate(-354.76 459.59) rotate(-45)"/><rect class="cls-1" x="406.3" y="615.81" width="12.32" height="27.05" transform="translate(-324.2 475.98) rotate(-45)"/><rect class="cls-1" x="597.66" y="413.12" width="12.32" height="37.17" transform="translate(-136.06 372.13) rotate(-30.96)"/><rect class="cls-1" x="629.47" y="392.63" width="12.32" height="27.05" transform="translate(-101.02 568.42) rotate(-45)"/><rect class="cls-1" x="664.55" y="346.68" width="12.32" height="36.07" transform="translate(-61.45 581.08) rotate(-45)"/><rect class="cls-1" x="696.54" y="325.06" width="12.32" height="28.56" transform="translate(84.88 816.02) rotate(-63.43)"/><rect class="cls-1" x="709" y="294.82" width="25.55" height="12.32"/><rect class="cls-1" x="689.43" y="247.04" width="20.14" height="12.32" transform="translate(-44.17 234.13) rotate(-18.43)"/><rect class="cls-1" x="655.38" y="211.89" width="18.04" height="12.32" transform="translate(40.41 533.67) rotate(-45)"/><rect class="cls-1" x="615.8" y="183.2" width="27.05" height="12.32" transform="translate(50.43 500.47) rotate(-45)"/></g></svg>