<svg xmlns="http://www.w3.org/2000/svg" id="Ebene_2" version="1.1" viewBox="25 75 700 575"><defs id="defs4"><style id="style2">.cls-1{fill:#2951b0;stroke-width:0}</style></defs><g id="Ebene_1-2"><path id="path6" d="M641.338 530.487V410.449l-66.03 45.792v37.476c0 9.617-7.813 17.43-17.437 17.438H376.116l-3.21 17.932c7.319-3.91 17.331-6.612 25.449.502a25.565 25.565 0 0 1 4.108 4.504h235.368c2.008-.099 3.507-1.697 3.507-3.606" class="cls-1"/><path id="path8" d="M572.996 243.62a39.75 39.75 0 0 1 8.415-2.106c8.817-1.096 32.265-.7 59.92.297v-33.97c0-1.909-1.598-3.507-3.507-3.507H394.04l-5.409 5.013c-13.025 11.328-31.862 13.124-46.69 4.307-4.915-2.808-9.716-5.813-14.326-9.122.198 8.316.396 18.837.6 30.158H557.97c6.208.198 11.922 3.507 15.026 8.917z" class="cls-1"/><path id="path10" d="M132.836 493.611V252.233c0-9.616 7.814-17.33 17.331-17.43h82.86c-.1-.297-.206-.6-.298-.905-5.508.898-12.523.8-18.837-2.8-4.412-2.503-7.814-6.413-9.92-11.024-5.707 2.807-12.927 4.71-19.842 2.404-4.915-1.704-11.222-6.215-13.725-18.038H104.87c-1.909 0-3.507 1.598-3.507 3.507v322.54c0 1.91 1.598 3.507 3.507 3.507h142.68l-2.001-5.41 7.213-3.21a39.996 39.996 0 0 1 43.38 8.62h17.933c2.206-7.113 4.71-14.835 7.318-22.945H150.16c-9.616 0-17.33-7.814-17.33-17.43z" class="cls-1"/><path id="path12" d="M575.301 493.611v-37.476l-10.826 7.516v29.953c0 3.706-3.005 6.612-6.611 6.612H378.117l-2.008 10.818h181.755c9.617 0 17.43-7.813 17.437-17.437z" class="cls-1"/><path id="path14" d="m567.792 398.124-3.21-.198v4.1c1.103-1.3 2.107-2.601 3.203-3.91z" class="cls-1"/><path id="path16" d="M143.556 493.611V252.233c0-3.705 3.005-6.611 6.611-6.611h89.379c-2.907-3.104-5.007-6.817-6.414-10.826h-82.958c-9.616 0-17.43 7.814-17.437 17.437v241.378c0 9.617 7.814 17.43 17.437 17.438h171.233c1.104-3.508 2.306-7.114 3.508-10.82h-174.74c-3.607 0-6.612-2.905-6.612-6.61z" class="cls-1"/><path id="path18" d="m273.713 244.731-.905.905h1.004z" class="cls-1"/><path id="path20" d="M564.178 250.034c2.299-2.906 5.41-5.112 8.917-6.413-3.104-5.41-8.818-8.818-15.125-8.818H328.118c.099 3.507.099 7.114.198 10.819H557.97c2.701 0 5.211 1.803 6.216 4.405z" class="cls-1"/><path id="rect22" d="M185.339 458.855h10.82v21.64h-10.82z" class="cls-1"/><path id="rect24" d="M185.332 282.197h10.82v165.93h-10.82z" class="cls-1"/><path id="path26" d="M226.818 390.41v57.713h45.085V419.57c-10.522-.099-21.037-.6-31.565-5.006 0-5.006 3.005-10.02 4.009-15.026 9.214 1.803 18.335 3.712 27.556 3.203v-12.318h-45.085z" class="cls-1"/><path id="path28" d="M335.033 375.588V363.27h-45.085v34.465c2.404-.806 4.61-2.008 6.513-3.203 12.028-10.218 24.847-14.425 38.58-18.937z" class="cls-1"/><path id="path30" d="M322.51 401.532c-9.015 9.92-21.34 11.724-32.562 14.927v31.664h45.085v-52.609c-5.006.906-9.715 2.504-12.53 6.01z" class="cls-1"/><path id="path32" d="M398.157 348.725c-2.602 1.301-5.014 3.005-6.513 5.608-7.615 15.224-21.644 29.663-38.572 34.471v24.452c7.014-8.019 18.441-10.621 28.553-4.71 4.009 2.002 8.018 6.01 10.02 11.024 2.807 9.822 1.703 19.142.402 28.56h6.11v-99.39z" class="cls-1"/><path id="path34" d="M364.59 358.448c6.216-9.016 12.021-15.627 18.237-22.14h-29.755v31.156c4.914-1.903 8.923-4.71 11.518-9.016" class="cls-1"/><path id="path36" d="M461.28 300.239h-45.085v20.138c14.828-.304 30.264-3.408 45.085-4.61z" class="cls-1"/><path id="path38" d="M461.28 336.91c-14.934 1.103-30.865.501-45.092 6.413v12.53c10.819-10.62 29.26-13.93 45.085-14.326v-4.61z" class="cls-1"/><path id="path40" d="M416.195 383.098v65.025h45.085v-54.207c-15.528-1.3-35.072.905-45.085-10.818" class="cls-1"/><path id="path42" d="M479.311 396.024v52.1h45.086v-48.692c-14.927-.502-30.258-1.902-45.086-3.408" class="cls-1"/><path id="path44" d="M533.42 448.123H388.334c-.403 3.302-1.103 6.916-1.902 10.826h146.993V448.13z" class="cls-1"/><path id="path46" d="M289.941 448.13H172.717v10.72h165.83c1.309-4.01 2.61-7.517 3.706-10.819h-52.298v.1z" class="cls-1"/><path id="path48" d="M641.33 241.924c-27.654-.997-51.102-1.407-59.92-.297a30.56 30.56 0 0 0-8.414 2.107c-3.507 1.301-6.512 3.5-8.917 6.413a21.49 21.49 0 0 0-2.305 3.805c-2.906 6.611-1.598 14.029.707 19.94a24.405 24.405 0 0 0-11.822 8.924c-4.109 6.017-4.71 12.926-4.307 18.533-7.22 1.704-15.23 6.01-19.94 15.033-5.006 9.617.099 18.738 5.713 24.848l-7.813.502-45.092 3.005-5.41.403a268.307 268.307 0 0 0-12.629 0c-25.852.905-40.178 7.114-43.784 18.936-2.609 8.72 2.305 17.438 8.217 21.044 1.909 1.202 4.207 2.61 35.468 5.416 5.212.502 11.123.997 18.039 1.507 8.817.7 19.24 1.506 31.466 2.305 4.61.297 9.114.6 13.626.997a10682.44 10682.44 0 0 0 40.079 2.602l3.21.198c-1.004 1.202-2.107 2.503-3.203 3.91-2.2 2.807-4.61 6.01-7.114 9.617-10.02 14.12-9.814 33.064.396 46.994l4.907 6.209 1.81-1.203 10.826-7.516 66.03-45.792 14.73-10.218 2.304.099 53.507 1.506v-16.829l-60.818-1.605-83.368 57.813c-1.4-5.006-1.605-12.127 3.705-19.842 11.618-16.935 19.842-22.74 20.542-23.143l23.744-13.93-27.754-1.605c-66.927-3.91-142.185-9.32-153.498-12.021-.403-.502-.708-1.103-.7-1.704 0-.1 4.412-8.019 40.177-7.015h.396l91.783-6.01-11.519-.8.997-13.724 5.112.403-1.605-.898c-10.323-5.614-18.738-14.227-17.536-16.631 3.302-6.414 10.72-6.916 13.223-6.916l-7.715-.6.997-13.726 15.825 1.103c-.799-3.203-1.407-8.62.807-11.822 2.1-3.006 7.014-3.706 10.818-3.805l15.832-.403-16.433-1.103.898-13.725 5.212.304c-2.51-4.207-5.007-10.323-3.904-12.827.495-1.103 2.907-2 6.209-2.404 14.234-1.704 74.246.806 128.453 3.705v-16.829a7315.921 7315.921 0 0 0-53.507-2.609c-5.416-.099-11.123-.403-16.737-.6z" class="cls-1"/><path id="polygon50" d="m474.2 190.81-.28-.14-9.07 7.79z" class="cls-1" transform="rotate(45 367.278 368.867)"/><path id="polygon52" d="m520.4 181.88-35.71 31.04-3.9 3.33 9.14 10.41 8.65-7.51 30.89-26.92z" class="cls-1" transform="rotate(45 367.278 368.867)"/><path id="polygon54" d="m491.92 175.08-9.07-10.48-22.46 19.48-11.97 10.42 8.99 10.41 5.95-5.1 1.49-1.35 9.07-7.79z" class="cls-1" transform="rotate(45 367.278 368.867)"/><path id="polygon56" d="m450.97 150.29-3.9 3.47 9 10.41 12.4-10.84 10.62-9.35-9.07-10.34z" class="cls-1" transform="rotate(45 367.278 368.867)"/><path id="path58" d="M450.462 578.881c-5.714-4.511-13.223-4.907-19.538-4.108-.502-5.013-2.503-9.815-5.805-13.626-4.809-5.416-11.42-7.714-16.935-8.718v-1.4c-.1-6.11-2.002-12.127-5.608-17.035-1.202-1.598-2.609-3.104-4.108-4.504-8.118-7.213-18.137-4.405-25.449-.502l3.21-17.932 2.009-10.819 5.211-28.758c1.202-4.412 2.305-8.613 3.104-12.622.8-4.01 1.4-7.41 1.902-10.826 2.503-18.738-.806-30.56-9.722-35.871-7.821-4.71-17.43-2.001-22.451 2.906-.7.7-1.506 1.506-3.005 4.603-1.902 4.01-5.106 11.823-10.819 28.355-1.103 3.21-2.404 6.817-3.705 10.819-3.31 9.716-7.213 21.637-12.021 36.373-.502 1.705-1.103 3.31-1.605 5.014-1.202 3.606-2.305 7.212-3.507 10.819-2.603 8.018-5.113 15.832-7.319 22.945a1802.424 1802.424 0 0 1-5.013 15.634c-3.31-4.61-6.916-9.022-10.621-13.322-.7-.799-1.506-1.605-2.206-2.305-11.42-11.32-28.56-14.729-43.381-8.62l-7.213 3.21 2.001 5.41 6.414 17.035 29.755 78.955h17.932l-34.563-90.877c5.211-.106 12.12 1.4 18.335 8.322 13.633 15.33 17.24 24.75 17.536 25.555l7.715 26.453 8.322-26.552c20.04-64.021 43.586-135.665 48.897-145.982.502-.304 1.202-.396 1.803-.304.099 0 6.71 6.215-3.005 40.68l-.1.396-16.333 90.58 3.606-11.017 13.124 4.314-1.605 4.914 1.202-1.4c7.912-8.719 18.335-14.729 20.435-12.926 5.417 4.808 4.108 12.127 3.507 14.524l2.404-7.41 13.124 4.313-4.907 15.132c3.21.1 8.62.7 11.222 3.613 2.404 2.702 2.001 7.814 1.103 11.526l-3.507 15.43 5.013-15.635 13.131 4.207-1.605 5.014c4.71-1.4 11.222-2.298 13.329-.601.898.7 1.202 3.31.799 6.611-.7 5.212-3.408 16.532-7.418 31.162h17.339c3.606-13.321 6.01-23.744 6.71-29.055 1.605-12.423-3.012-18.837-7.113-22.047z" class="cls-1"/><path id="polygon60" d="m523.02 497.66-5.53-10.91 5.25 11.2z" class="cls-1" transform="rotate(45 367.278 368.867)"/><path id="polygon62" d="m498.72 502.69-2.34-4.6-12.26 6.3 5.25 10.21 18.56 36.41 12.33-6.23z" class="cls-1" transform="rotate(45 367.278 368.867)"/><path id="polygon64" d="m533.72 518.85 12.33-6.24-13.46-26.5-7.16-14.24-12.33 6.24 3.54 6.94.85 1.7 5.53 10.91z" class="cls-1" transform="rotate(45 367.278 368.867)"/><path id="polygon66" d="m567.66 485.19-2.41-4.81-12.26 6.3 7.51 14.74 6.45 12.54 12.25-6.31z" class="cls-1" transform="rotate(45 367.278 368.867)"/><path id="path68" d="M170.306 204.044c0 .198.099.297.099.396 2.602 11.823 8.916 16.327 13.725 18.038 6.915 2.404 14.128.396 19.841-2.404 2.107 4.61 5.509 8.52 9.92 11.024 6.308 3.606 13.323 3.606 18.838 2.8.1.297.205.601.297.905a32.176 32.176 0 0 0 6.414 10.826c2.807 3.005 6.116 5.31 9.92 6.81 9.518 4.002 17.735-1.104 23.448-6.817l.905-.905.1.905 8.52 56.915c1.902 33.764 9.616 51.605 23.546 54.603 1.202.198 2.405.396 3.508.396 7.014-.198 13.428-4.109 16.836-10.317 1.407-2.807 3.203-6.314 2.199-85.369-.099-5.416-.099-10.819-.198-16.136-.099-3.705-.099-7.312-.198-10.819a4862.997 4862.997 0 0 0-.601-30.158c4.61 3.31 9.419 6.307 14.432 9.115 14.927 8.817 33.771 7.014 46.79-4.307l5.409-5.013.403-.304-13.824-16.836-58.414-70.944-1.202-21.34h-16.83l1.606 27.753 64.523 78.355c-4.914 1.803-11.922 2.602-20.04-2.009-17.833-10.224-24.246-17.939-24.847-18.54l-15.832-22.55.7 27.754c1.704 67.027 2.404 142.383.7 153.902-.502.502-1.301.905-1.605.8-.1 0-8.316-3.706-10.317-39.479v-.396l-13.626-90.884.1 11.526-13.832.198-.099-5.105-.7 1.704c-4.71 10.72-12.629 19.841-15.132 18.837-6.611-2.807-7.814-10.119-7.913-12.622l.1 7.82-13.832.1-.205-15.832c-3.005.997-8.414 2.107-11.822.198-3.204-1.803-4.307-6.71-4.71-10.522l-1.704-15.634.297 16.334-13.831.198-.106-5.31c-4.306 3.203-10.02 5.706-12.424 4.914-1.103-.396-2.206-2.701-2.906-6.018-2.503-12.02-4.61-58.209-6.216-105.507h-16.829c1.103 34.068 2.602 70.442 4.512 92.277a234.871 234.871 0 0 0 2.107 16.632z" class="cls-1"/><path id="polygon70" d="m170.61 341.23 8.72 8.57-8.58-9z" class="cls-1" transform="rotate(45 367.278 368.867)"/><path id="polygon72" d="m158.07 295.67 33.87 33.02 3.68 3.54 9.64-9.92-8.29-8.01-29.26-28.55z" class="cls-1" transform="rotate(45 367.278 368.867)"/><path id="polygon74" d="m153.61 324.65-9.64 9.77 21.26 20.83 11.33 11.06 9.64-9.78-5.53-5.53-1.34-1.2-8.72-8.57z" class="cls-1" transform="rotate(45 367.278 368.867)"/><path id="polygon76" d="m114.15 349.8 18.2 17.64 3.83 3.68 9.49-9.91-11.69-11.41-10.27-9.85z" class="cls-1" transform="rotate(45 367.278 368.867)"/><path id="path78" d="M420.494 336.004a188.084 188.084 0 0 1 31.764-3.309h54.107v-10.819h-54.107c-11.321.205-22.642 1.301-33.772 3.508-.806.099-1.605.304-2.305.495-11.526 2.503-20.74 6.017-27.556 10.415-6.915 4.512-11.42 9.921-13.626 16.327-3.104 9.214-11.519 14.828-21.941 19.538-4.809 2.107-10.12 4.108-15.529 6.01l-2.503.905c-11.518 4.207-23.242 8.818-30.858 16.532-3.507 3.508-8.513 5.912-14.227 7.41-5.911 1.4-11.922 2.207-18.031 2.306-8.719.205-17.43-.502-25.95-2.107l-2.108 10.62a137.417 137.417 0 0 0 25.555 2.405h2.503c6.11-.1 12.127-.7 18.038-2.001 8.323-1.803 16.13-5.113 21.843-10.826 5.41-5.41 13.824-9.115 23.242-12.622 2.002-.8 4.109-1.506 6.209-2.305 3.91-1.407 7.912-2.906 11.823-4.512 14.029-5.713 27.358-13.428 32.166-27.753 1.803-5.509 6.717-9.617 12.926-12.827 5.706-2.808 11.823-4.908 18.038-6.315 1.506-.6 2.906-.898 4.313-1.103z" class="cls-1"/><path id="rect80" d="M447.175 523.546h32.57v12.32h-32.57z" class="cls-1" transform="rotate(-33.69)"/><path id="rect82" d="M655.222-64.95h12.32v28.56h-12.32z" class="cls-1" transform="rotate(18.44)"/><path id="rect84" d="M596.647 138.622h12.32v36.07h-12.32z" class="cls-1"/><path id="rect86" d="M551.558 138.611h12.32v36.07h-12.32z" class="cls-1"/><path id="rect88" d="M506.47 147.637h12.32v27.05h-12.32z" class="cls-1"/><path id="rect90" d="M461.378 147.633h12.32v27.05h-12.32z" class="cls-1"/><path id="rect92" d="M407.272 147.632h12.32v27.05h-12.32z" class="cls-1"/><path id="rect94" d="M68.479 171.026h12.32v28.56h-12.32z" class="cls-1" transform="rotate(-18.43)"/><path id="rect96" d="M-29.19 162.134h12.32v32.57h-12.32z" class="cls-1" transform="rotate(-33.69)"/><path id="rect98" d="M43.764 213.669h27.05v12.32h-27.05z" class="cls-1"/><path id="rect100" d="M43.762 267.765h27.05v12.32h-27.05z" class="cls-1"/><path id="rect102" d="M43.766 321.879h18.04v12.32h-18.04z" class="cls-1"/><path id="rect104" d="M43.756 375.984h27.05v12.32h-27.05z" class="cls-1"/><path id="rect106" d="M52.777 430.09h18.04v12.32h-18.04z" class="cls-1"/><path id="rect108" d="M43.753 484.197h27.05v12.32h-27.05z" class="cls-1"/><path id="rect110" d="M-270.554 478.644h32.57v12.32h-32.57z" class="cls-1" transform="rotate(-33.69)"/><path id="rect112" d="M216.475 524.168h12.32v37.17h-12.32z" class="cls-1" transform="rotate(14.04)"/><path id="rect114" d="M118.702 571.472h12.32v27.05h-12.32z" class="cls-1"/><path id="rect116" d="M163.799 562.46h12.32v36.07h-12.32z" class="cls-1"/><path id="rect118" d="M208.889 571.469h12.32v27.05h-12.32z" class="cls-1"/><path id="rect120" d="M610.149 425.728h12.32v37.17h-12.32z" class="cls-1" transform="rotate(14.04)"/><path id="rect122" d="M524.506 571.466h12.32v27.05h-12.32z" class="cls-1"/><path id="rect124" d="M578.614 562.448h12.32v36.07h-12.32z" class="cls-1"/><path id="rect126" d="M402.122 738.556h12.32v28.56h-12.32z" class="cls-1" transform="rotate(-18.43)"/><path id="rect128" d="M862.255-72.923h25.55v12.32h-25.55z" class="cls-1" transform="rotate(45)"/><path id="rect130" d="M835.162 154.766h20.14v12.32h-20.14z" class="cls-1" transform="rotate(26.57)"/><path id="rect132" d="M674.994 466.16h18.04v12.32h-18.04z" class="cls-1"/><path id="rect134" d="M665.975 421.079h27.05v12.32h-27.05z" class="cls-1"/></g></svg>