<?xml version="1.0" encoding="UTF-8"?><svg id="Ebene_2" xmlns="http://www.w3.org/2000/svg" viewBox="0 0 681.64 821.87"><defs><style>.cls-1{fill:#1aa857;stroke-width:0px;}</style></defs><g id="Ebene_1-2"><path class="cls-1" d="m454.22,7.11c-.75-.3-1.5-.6-2.28-.9-1.63-.63-3.32-1.23-5.06-1.78l53.64,67.4,118.32,148.63-1.73,1.73-6.24-6.24-2.43,2.43-70.52-89.14-79.72-100.78-21.11-26.69c-1.61-.33-3.23-.64-4.87-.89l-1.15-.16c-1.1-.15-2.2-.29-3.31-.39-.77-.08-1.56-.14-2.34-.2l-1.95-.13c3.21,11.15,13.09,41.58,35.4,79.9,34.86,59.35,82.99,109.81,140.63,147.43l-162.37,162.37,6.24,6.24-11.66,11.66,28.66,28.66,53.61-53.61c-.52,3.71-.69,7.45-.51,11.19.45,9.46,2.62,18.76,6.39,27.45l15.69,30.33c-3.8.62-7.56,1.47-11.25,2.54-40.82,11.82-62.42,47.03-66.53,54.5l-40.9,41.49c-4.07-1.29-8.49-.84-12.22,1.24h0c-17.55-9.39-31.59-18.05-46.39-32.06,14.59-11.73,23.54-20.53,30.01-39.34,4.31-13.12,2.92-27.44-3.84-39.49-3.83-6.86-9.88-12.21-17.15-15.19.99-4,.8-8.21-.53-12.11-1.44-4.61-4.35-8.62-8.27-11.43,2.03-16.47-11.58-30.08-23.62-39.56,4.01-9.2,5.69-19.25,4.89-29.26l-.53-5.64-5.42,1.65c-13.84,4.21-27.23,7.52-38.28,2.63-3.45-1.61-6.7-3.61-9.7-5.94-.83-.68-1.81-1.35-2.71-1.96-16.86-11.62-36.57-18.43-57.01-19.71-4.31-.32-8.65-.11-12.91.63-17.85-2.34-36-.72-53.15,4.75-2.26.75-4.46,1.56-6.57,2.38-2.46-7.33-7.46-13.53-14.1-17.49-14.89-9.03-37.53-5.94-46.56,6.24-12.06,16.19-35.27,47.46-41.45,108.52-2.28.19-4.63.41-6.97.68-15.04,1.65-32.49,4.96-32.49,15.64,0,8.27,10.23,13.09,33.17,15.72,1.59.18,3.17.34,4.74.48-.02,3.85-.08,7.87-.15,11.63-.47,27.67-.93,56.25,19.46,80.39,16.17,19.03,29.93,27.93,41.29,26.7,4.22-.48,8.13-2.42,11.06-5.49l.55-.55c9.53,12.23,19.69,23.96,30.44,35.15,48.81,51.07,80.63,94.16,97.32,131.92,10.97,24.63,15.56,47.48,13.88,69.18-1.5,3.01-5.89,12.46-10.9,25.68,1.26.91,2.62,1.89,4.05,2.84.26.18.52.35.78.53h0c1.02.67,2.06,1.34,3.14,2.02l.5-1.31,1.4.27c1.88.38,46.86,8.35,81.15-19.03,2.48-2.03,4.81-4.06,6.99-6.24,12.14-12.14,20.59-28.11,25.31-47.71l64.6-1.59,9.37-9.37-72.08,1.78c1.36-8,2.17-16.08,2.43-24.2.93-23.97-2.96-47.88-11.42-70.32,8.32,1.67,16.42-3.72,18.09-12.05.31-1.53.38-3.1.21-4.65,8.01,2.89,16.84-1.25,19.73-9.26,1.49-4.13,1.15-8.69-.93-12.55,8.49-.31,15.12-7.44,14.81-15.93-.13-3.7-1.6-7.23-4.13-9.94,8.12-2.53,12.65-11.16,10.12-19.29-.52-1.67-1.32-3.23-2.36-4.63l33.9-34.35.11.47,38.84,167.56,7.72-7.72-39.2-168.82c4.03-6.96,24.3-39.34,61-49.89,4.26-1.23,8.61-2.14,13.01-2.71l63.6,122.93,5.39-5.39-61.16-118.25-2.27-4.39-2.26-4.36-16.72-32.32c-3.31-7.83-5.24-16.18-5.72-24.67-.5-7.45.82-14.91,3.84-21.74l20.98-20.98c9.58-6.74,17.94-15.07,24.71-24.63l57.08-57.08,3.59,1.83-38.03,144.68,1.43,1.43c.91.91,35,35.39,74.14,83.17,2.64,3.21,5.29,6.49,7.96,9.82l5.14-5.14c-38.01-47.34-73.26-83.79-80.77-91.46l38.43-146.29-6.55-3.38,20.23-20.23-25.51-25.51L462.46,10.84c-2.59-1.29-5.35-2.58-8.24-3.73Zm-96.36,408.91c.81,2.43.88,5.04.21,7.51-16.06,7.26-29.67,4.48-38.89.32,7.45-2.24,18.34-6.59,33.17-14.97,2.65,1.62,4.61,4.16,5.51,7.14Zm-8.66-15.9c-14.28,8.15-24.66,12.39-31.59,14.58,5.66-5.14,10.8-10.82,15.36-16.95,4.35-5.66,7.93-10.94,10.15-14.5,4.54,5.94,6.52,11.5,6.08,16.88h0Zm-328.06,25.15c.68-.83,4.81-4.51,26.17-6.77,1.09-.11,2.18-.23,3.26-.32,1.55-.14,3.06-.25,4.55-.35,1.49-.11,3.14-.21,4.62-.29,3.6-.19,6.79-.28,9.16-.32l.9,16.25c-2.76-.08-6.55-.22-10.81-.47-1.45-.05-3.01-.18-4.58-.31s-2.99-.25-4.51-.4l-1.77-.17c-22.04-2.18-26.32-6.02-27-6.84Zm88.07,125.83c-4.51.45-14.82-1.88-33.17-23.54-18.13-21.59-17.67-47.16-17.3-74.31.07-3.65.12-7.31.14-11.01,7.06.46,12.67.52,14.81.55h.93s1.01,0,1.01,0h3.81l-.56-11.26-.81-15.73-.25-4.26-.17-3.48-4.29.07c-.36,0-5.58-.03-12.77.32,6.2-57.63,28.12-87.06,39.55-102.45.44-.56.91-1.09,1.43-1.58,7.6-7.6,23.92-7.82,32.94-2.26,5.03,3.02,8.74,7.83,10.37,13.47.46,1.51.81,3.06,1.05,4.63.24,1.63.38,3.28.42,4.93.29,10.39-3.03,23.34-9.99,38.15-19.58,41.63-18.18,81.24-15.55,114.13.24,3.01.5,5.96.74,8.84l.16,1.83c.3,3.43.59,6.8.83,10.08.33,4.44.59,8.73.71,12.83.04,2.04.06,4.02.08,5.93.02,1.92-.06,3.85-.23,5.79-.22,4.82-1,9.6-2.31,14.24-.53,1.81-1.2,3.58-2,5.29l-.44.92c-.61,1.21-1.32,2.37-2.13,3.47-1.99,2.59-4.26,4.13-6.98,4.42Zm244.88,77.17c7.58,15.88,17.67,46.53,18.54,67.55.76,18.13-1.71,54.28-12.84,75.07-9.19,17.18-24.41,28.61-35.06,34.14-29.86,15.54-61.63,7.94-61.63,7.94,0,0,5.04-13.34,6.17-16.7,2.08-6.01,2.44-16.16,2.04-22.51-.99-16.03-10.5-46.78-17.26-61.62-10.15-22.31-38.38-63.22-53.8-82.26-9-11.12-27.53-30.2-38.31-42.49-7.15-8.18-33.57-39.16-33.57-39.16l4.6-43.21c-.21-2.35-.54-4.69-.99-7.01-2.47-12.24-3.99-37.91-4.88-50.35-.74-10.34,1.99-34.29,4.2-44.43,2.78-12.79,12.14-32.73,17.34-45.83.63-1.59,1.21-3.09,1.7-4.45,2.91-7.56,4.59-15.53,4.96-23.62l2.19-9.24s17.36-5.97,23.72-6.92c4.54-.69,19.13-.74,19.13-.74,0,0-19.88,22.89-25.28,31.37-1.85,2.87-4.35,7.57-6.99,12.82-6.63,13.18-14.1,29.85-14.1,29.85,0,0,19.62,13.48,29.88,24.48,1.4,1.48,2.69,3.05,3.87,4.71,5.01,7.27,10.98,16.19,15.59,30.87,5.25,16.71,2.78,35.18,1.74,41.25-19.89,9.5-29.43,32.46-22.12,53.26l-.51.08c.17.12.38.15.57.09,7.97,22.46,32.63,34.21,55.09,26.24,15.99-5.67,27.17-20.18,28.58-37.08,3.68,2.91,31.57,25.04,40.64,35.3,12.15,13.67,33.57,34.94,46.79,62.61Zm-114.22-129.64h0c1.37.79,2.67,1.67,3.91,2.65h0c.47.37.94.76,1.4,1.16l.05.05c.44.44.93.84,1.38,1.29h0l.63.63c.34.34.68.68.96,1.06l.07.07c.32.32.6.66.86,1.04l.17.17c.25.32.5.65.74.98l.22.31c.21.3.43.61.6.9.11.11.17.28.26.41.79,1.26,1.49,2.57,2.1,3.92l.06.06c.27.59.51,1.19.74,1.79l.14.36c.24.65.45,1.29.64,1.95.02.04.03.07.04.11.14.47.26.94.38,1.41l.03.14c.11.47.22.94.3,1.41l.05.05c.09.5.17.99.24,1.49h0c.08.51.13,1.02.17,1.53h0c.05.59.09,1.2.11,1.81v.25c.02.59.02,1.16,0,1.73l.04.04c-.04,1.27-.15,2.54-.33,3.81h0c-2.6,17.72-19.07,29.98-36.79,27.38-17.72-2.6-29.98-19.07-27.38-36.79,1.01-6.9,4.22-13.3,9.16-18.23,1.91-1.9,4.04-3.56,6.35-4.95h0c.44-.27.89-.51,1.34-.75.66-.35,1.33-.68,2.02-.99l.14-.06c.56-.25,1.13-.48,1.7-.69h0c.5-.19,1.02-.37,1.53-.53l.17-.05c.62-.2,1.23-.36,1.87-.51l.53-.14c.68-.15,1.35-.3,2.03-.41h0c1.45-.24,2.92-.38,4.39-.42h0c1.47-.04,2.95.02,4.41.19h0c.53.07,1.07.14,1.59.23h0c.5.08,1.02.17,1.52.29l.11.02c.5.11.99.23,1.48.35l.12.03c.48.14.97.28,1.44.44l.13.04c.49.16.96.33,1.44.5l.08.08c.48.18.96.38,1.43.59l.07.07c.48.21.96.44,1.44.68l.04.04c.49.25.99.52,1.46.8l-.16.16.43.1Zm137.17,135.12c-2.78,2.78-7.3,2.78-10.08,0-2.78-2.78-2.78-7.3,0-10.08s7.3-2.78,10.08,0c2.78,2.78,2.78,7.3,0,10.08h0Zm20.46-16.1c-2.78,2.78-7.3,2.78-10.08,0-2.78-2.78-2.78-7.3,0-10.08,2.78-2.78,7.3-2.78,10.08,0,2.78,2.78,2.78,7.3,0,10.08h0Zm13.01-22.64c-2.78,2.78-7.3,2.78-10.08,0-2.78-2.78-2.78-7.3,0-10.08,2.78-2.78,7.3-2.78,10.08,0,2.78,2.78,2.78,7.3,0,10.08h0Zm-9.63-19.76c-8.13,2.53-12.66,11.17-10.13,19.3.29.92.66,1.82,1.12,2.67-8.48.32-15.1,7.46-14.77,15.94.01.35.04.7.08,1.05-5.59-1.98-11.83-.57-16.03,3.62-.91.92-1.7,1.95-2.36,3.07-3.09-5.93-6.56-11.88-10.35-17.73-18.13-27.9-43.77-54.45-76.41-78.97-1.89-1.42-3.79-2.81-5.69-4.18h0c-.37-2.33-.93-4.64-1.66-6.88h0c15.75,3.2,37.7,3.1,64.29-8.81l-3.76-8.42c-29.09,13.03-51.82,10.73-65.96,6.35h0c-.48-.71-.99-1.39-1.52-2.06l-.2-.2c-.56-.69-1.12-1.38-1.73-2.05h0c-.48-.48-.96-.96-1.41-1.5l-.17-.17c-1.11-1.11-2.29-2.16-3.51-3.14h0c-.59-.47-1.2-.93-1.81-1.37h0c-.59-.43-1.2-.84-1.8-1.21l-.11-.11c-.58-.37-1.17-.72-1.75-1.06-.06-.06-.16-.08-.23-.12-.56-.32-1.14-.63-1.72-.93l-.29-.14c-.56-.29-1.12-.55-1.69-.8-.12-.04-.23-.09-.34-.14-.56-.24-1.11-.47-1.68-.68-.08-.08-.26-.09-.38-.14-.55-.2-1.11-.4-1.66-.58-.14-.05-.28-.08-.42-.14-.55-.17-1.14-.37-1.65-.48l-.44-.13c-.55-.14-1.11-.26-1.65-.39l-.46-.1c-.56-.11-1.12-.22-1.68-.31l-.46-.08c-.56-.08-1.12-.16-1.71-.2l-.44-.05c-.58-.07-1.17-.11-1.74-.15-.14,0-.27-.02-.4-.02-.62-.04-1.23-.06-1.85-.06h-.29c-.7-.02-1.39,0-2.08.03h0c-2.18.09-4.36.35-6.5.78h0c2.06-33.88-11.23-66.89-36.2-89.89-4.15-3.77-8.6-7.18-13.31-10.21,1.59-5.4,3.47-10.71,5.63-15.91,6.98-16.42,16.61-31.59,28.5-44.89,1.14-1.29,2.23-2.46,3.32-3.52,1.1-1.09,2.27-2.09,3.52-3.01,1.04-.76,2.15-1.42,3.31-1.97,3.56-1.72,7.68-2.08,11.64-2.02,1.23.02,2.45.08,3.63.14,18.77,1.14,36.87,7.38,52.35,18.05.9.6,1.73,1.28,2.63,1.88,3.48,2.74,7.26,5.06,11.28,6.92,12.26,5.34,25.27,3.16,38.81-.6-.22,7.66-2.18,15.17-5.72,21.96l-1.81,3.46,3.08,2.33c3.7,2.74,7.22,5.71,10.56,8.87-6.46,10.57-22.39,33.27-35.23,38.36l-6.54,2.63,4.96,4.96c.22.22,25.57,24.86,59.78,10.73l.54.11c8.42,1.65,13.46,7.6,16.17,12.26,5.38,9.78,6.5,21.34,3.08,31.96-6.17,18.2-14.44,25.27-31.06,38.43l-4.06,3.16,3.69,3.69c16.37,16.37,31.33,25.99,50.06,36.12h0c-2.49,5.63-1.39,12.2,2.81,16.7h0Zm16.33-5.44c-2.78,2.78-7.3,2.78-10.08,0-2.78-2.78-2.78-7.3,0-10.08,2.78-2.78,7.3-2.78,10.08,0,2.78,2.78,2.78,7.3,0,10.08h0s0,0,0,0Zm48.89-493.69c-11.51-19.63-21.3-40.22-29.24-61.54l158.18,199.93c-52.59-36.14-96.61-83.38-128.93-138.4Zm175.32,167.5l-103.49,103.49c-7.41,4.36-13.59,10.54-17.95,17.95l-59.59,59.59-17.07-17.07,5.87-5.87,3.91,3.91,173.74-173.74-3.91-3.91,1.43-1.43,17.07,17.07Z"/><path class="cls-1" d="m245.11,362.84l-.88.79c-1.17,1.1-2.24,2.32-3.17,3.63-.99,1.4-1.83,2.9-2.5,4.48-3.65,8.47-2.2,18.28,3.76,25.32l6.99-5.94c-2.11-2.46-3.35-5.55-3.53-8.78-.15-2.25.21-4.51,1.05-6.61,3.08-7.73,11.85-11.5,19.58-8.42,2.29.91,4.33,2.38,5.92,4.26l6.99-5.94c-8.64-10.21-23.92-11.49-34.13-2.86-.03.03-.06.05-.09.08Z"/><polygon class="cls-1" points="233 355.42 236.41 352.14 247.31 341.71 240.98 335.1 231.19 344.48 227.77 347.75 224.41 350.97 208.79 365.93 215.12 372.54 229.63 358.64 233 355.42"/><path class="cls-1" d="m346.35,283.42c.75.3,1.43.68,2.18.98h.15c.23.08.53.23.75.3.6.3,1.28.53,2.03.83l1.2.45c.68.23,1.2.45,1.88.68l1.81.6,1.35.45c.45.15.98.23,1.5.45l.45.15c.35.19.73.32,1.13.38.38.08.68.23,1.05.3l.68.23c.45.15.98.23,1.43.38.75.15,1.43.38,2.11.45l.38.08c.23.08.53.08.75.15,1.05.15,2.18.38,3.23.53,9.63,1.96,22.04,1.58,33.92,1.28,13.46-.38,28.66-.83,32.72,3.23l1.73,1.73-1.43,1.43,8.35,8.35c-.3.84-.38,1.75-.23,2.63.27,1.88,1.27,3.59,2.78,4.74,1.72,1.23,3.87,1.69,5.94,1.28-.2.84-.25,1.7-.15,2.56.27,1.88,1.27,3.59,2.78,4.74,2.03,1.47,4.65,1.83,6.99.98.08.08.23.08.3.15-.08.35-.08.71,0,1.05.24,1.85,1.22,3.53,2.71,4.66,2.77,2.11,6.66,1.95,9.25-.38.31-.24.59-.52.83-.83l.75-.9c7.22,0,14.15-2.86,19.25-7.97l5.72-5.72c6.7-6.68,9.49-16.35,7.37-25.57,0-.18-.02-.36-.08-.53l.23-.23c1.19-1.48,1.73-3.38,1.5-5.26-.22-1.9-1.23-3.62-2.78-4.74-1.52-1.11-3.4-1.59-5.26-1.35l-.38-.38c.26-.85.34-1.75.23-2.63-.22-1.9-1.23-3.62-2.78-4.74-1.71-1.25-3.87-1.72-5.94-1.28.2-.84.25-1.7.15-2.56-.22-1.9-1.23-3.62-2.78-4.74-1.73-1.33-3.97-1.8-6.09-1.28l-4.36-4.36-1.65,1.65-1.73-1.73c-3.99-3.99-3.53-19.33-3.16-32.79.38-11.96.68-24.29-1.28-34.07-.15-1.05-.45-2.11-.6-3.16l-.23-1.13c-.15-.75-.3-1.35-.45-2.11-.05-.33-.12-.66-.23-.98l-.53-2.18c-.08-.53-.3-1.05-.45-1.65l-.15-.6c-.15-.3-.15-.6-.3-.9-.15-.6-.38-1.13-.53-1.73l-.45-1.35c-.23-.68-.45-1.35-.68-1.88-.13-.41-.28-.81-.45-1.2l-.68-1.58-.15-.45c-.08-.34-.21-.67-.38-.98-.3-.75-.6-1.5-.9-2.11,0-.15-.15-.3-.15-.45l-.08-.23c-21.4-45.24-75.41-64.57-120.65-43.17-45.24,21.4-64.57,75.41-43.17,120.65,4.45,9.41,10.48,17.97,17.84,25.33,7.33,7.34,15.88,13.34,25.27,17.75.23.08.38.23.6.3Zm102.51-27.15l15.34,15.34-9.17,9.17c-8.12-8.42-21.92-22.46-34.15-33.39l1.28-1.28c3.31-3.31,6.09-6.39,8.65-9.4,6.92,8.12,13.69,15.19,18.05,19.55h0Zm-123.27-113.95c32.49-32.49,85.29-32.49,118.23,0,6.73,6.75,12.25,14.62,16.32,23.24l.23.53c.3.75.6,1.35.9,2.11.08.23.23.53.3.75l.15.45c.15.45.38.98.6,1.5.18.34.33.69.45,1.05.23.53.38,1.13.6,1.65.2.38.35.79.45,1.2.23.53.3,1.05.53,1.58.06.28.13.56.23.83l.23.68.45,1.35.53,2.18c.08.23.15.6.23.83.15.6.23,1.28.38,1.88l.23,1.13c.23.98.45,1.96.6,3.01v.15c1.73,8.95,1.43,20.83,1.13,32.42-.53,17.07-.9,31.89,5.34,38.13l1.58,1.58-5.87,5.87-15.34-15.34c-7.3-7.3-13.46-13.91-18.65-20.16,15.72-21.13,11.88-33.69,9.03-43.32-.38-1.28-.75-2.41-1.05-3.61-2.11-8.42-11.66-15.87-20.83-16.32-7.9-.38-14.06,4.29-17.07,12.71-3.23,9.4.9,22.71,12.56,39.64,2.56,3.76,5.34,7.45,8.12,10.98-2.63,3.08-5.64,6.39-9.18,9.93l-1.65,1.65c-3.78-3.26-7.8-6.23-12.03-8.87-12.94-7.52-27.75-14.67-39.64-11.06-5.42,1.65-9.63,5.42-12.49,11.28-3.69,7.45-.68,15.87,7.67,21.81,13.54,9.63,36.85,10.98,56.41-3.61,12.14,10.83,26.37,25.3,34.6,33.84l-5.72,5.72-1.58-1.58c-6.24-6.24-20.98-5.79-38.13-5.34-11.51.38-23.39.68-32.42-1.13h-.15c-1.05-.15-2.03-.38-3.08-.53-.23-.08-.38-.08-.6-.15l-.53-.08c-.6-.15-1.28-.23-1.88-.38s-.83-.23-1.28-.38l-.68-.23c-.33-.06-.66-.13-.98-.23-.38-.08-.68-.23-1.05-.3l-.45-.15c-.49-.08-.97-.21-1.43-.38-.38-.2-.79-.35-1.2-.45l-1.65-.6c-.53-.23-1.13-.38-1.65-.6l-1.2-.45c-.6-.3-1.2-.45-1.81-.75l-.83-.38c-.68-.23-1.35-.6-2.11-.9-.23-.08-.3-.15-.53-.23-8.67-4.06-16.56-9.61-23.32-16.4-32.49-32.54-32.49-85.24,0-117.78Zm105.15,82.88c-16.55-21.21-20.83-35.27-18.35-42.27.64-2.02,1.72-3.87,3.16-5.42,1.78-1.8,4.25-2.73,6.77-2.56,6.02.3,12.71,5.49,14.06,10.91.31,1.35.68,2.68,1.13,3.99,2.56,8.27,5.49,18.13-6.77,35.35Zm-21.28,22.04c-17.45,12.03-36.93,9.4-46.48,2.56-2.56-1.81-8.2-6.69-5.34-12.71.8-1.66,1.87-3.19,3.16-4.51,1.34-1.39,3.03-2.4,4.89-2.93,9.18-2.86,22.86,4.06,33.85,10.38,3.52,2.11,6.84,4.52,9.93,7.22h0Z"/><rect class="cls-1" x="250.44" y="228.8" width="29.99" height="9.15" transform="translate(-53.33 80.7) rotate(-15.73)"/><rect class="cls-1" x="258.07" y="170.05" width="9.15" height="33.29" transform="translate(64.49 440.81) rotate(-87.46)"/><rect class="cls-1" x="281.06" y="119.02" width="9.15" height="29.36" transform="translate(12.55 291.46) rotate(-55.1)"/><rect class="cls-1" x="326.48" y="79.77" width="9.15" height="28.82" transform="translate(-4.09 172.6) rotate(-29.05)"/><rect class="cls-1" x="372.93" y="59.52" width="9.15" height="35.84" transform="translate(-4.1 23.72) rotate(-3.58)"/><rect class="cls-1" x="409.49" y="82.6" width="36.27" height="9.15" transform="translate(170.41 439.74) rotate(-65.41)"/><rect class="cls-1" x=".64" y="502.43" width="31.48" height="9.15" transform="translate(-121.49 18.83) rotate(-13.92)"/><rect class="cls-1" x="24.81" y="544.34" width="30.85" height="9.15" transform="translate(-376.36 189.23) rotate(-45)"/><rect class="cls-1" x="56.6" y="572.44" width="32.44" height="9.15" transform="translate(-494.99 451.16) rotate(-70.31)"/><rect class="cls-1" x="630.4" y="366.57" width="9.15" height="28.08" transform="translate(-42.59 678.9) rotate(-54.7)"/><rect class="cls-1" x="646.74" y="331.27" width="9.15" height="30.42" transform="translate(177.58 912.02) rotate(-78.06)"/><rect class="cls-1" x="643.45" y="302.13" width="31.59" height="9.15" transform="translate(-56.72 179.95) rotate(-14.91)"/></g></svg>