<svg xmlns="http://www.w3.org/2000/svg" id="Ebene_2" version="1.1" viewBox="-25 150 750 575"><defs id="defs4"><style id="style2">.cls-1{fill:#1aa857;stroke-width:0}</style></defs><g id="Ebene_1-2"><path id="path6" d="M706.542 205.586c-.318-.743-.636-1.485-.976-2.249a85.664 85.664 0 0 0-2.319-4.836l-9.73 85.588-21.432 188.762h-2.447v-8.825h-3.436l13.166-112.896 14.892-127.633 3.945-33.8a97.168 97.168 0 0 0-2.814-4.073l-.7-.926a72.86 72.86 0 0 0-2.065-2.616c-.488-.602-1.004-1.203-1.513-1.797l-1.287-1.47c-5.614 10.154-20.145 38.657-31.466 81.53a445.438 445.438 0 0 0-4.808 203.688H423.926v8.825h-16.49v40.531h75.816a59.827 59.827 0 0 0-8.273 7.552 78.33 78.33 0 0 0-14.892 23.929l-10.352 32.54a95.813 95.813 0 0 0-9.75-6.158c-37.223-20.506-77.394-10.882-85.582-8.507l-58.259.418a15.482 15.482 0 0 0-9.517-7.764c-5.77-19.05-9.574-35.101-10.133-55.473 18.611 2.022 31.162 2.128 49.038-6.597a49.267 49.267 0 0 0 25.208-30.64 34.712 34.712 0 0 0-1.386-22.867 21.527 21.527 0 0 0 8.188-8.938 22.225 22.225 0 0 0 2.235-13.93c13.081-10.21 13.081-29.458 11.271-44.675a61.056 61.056 0 0 0 24.148-17.232l3.613-4.363-4.999-2.666c-12.763-6.81-24.572-13.937-28.928-25.208a50.953 50.953 0 0 1-2.658-11.06c-.107-1.067-.326-2.234-.53-3.301a112.895 112.895 0 0 0-26.376-54.25 52.676 52.676 0 0 0-9.574-8.683 122.517 122.517 0 0 0-40.942-34.224 139.229 139.229 0 0 0-6.328-2.963 32.34 32.34 0 0 0 2.397-22.337c-4.144-16.914-22.338-30.738-37.335-28.51-19.976 2.92-58.5 8.619-106.045 47.425a221.5 221.5 0 0 0-5.41-4.448c-11.801-9.468-26.48-19.466-34.033-11.915-5.847 5.848-2.022 16.49 12.34 34.57a200.217 200.217 0 0 0 3.012 3.692 881.585 881.585 0 0 1-8.33 8.118c-19.898 19.233-40.432 39.117-43.084 70.604-2.022 24.89 1.414 40.913 10.317 48.076a18.107 18.107 0 0 0 11.702 3.939h.778a449.878 449.878 0 0 0-3.33 46.38c-1.598 70.625-9.568 123.594-24.466 162.096-9.66 25.173-22.571 44.576-39.103 58.733-3.19 1.067-12.976 4.645-25.866 10.45.247 1.535.516 3.19.855 4.873.057.31.12.615.177.926.248 1.195.51 2.404.792 3.649l1.28-.573.799 1.18c1.06 1.599 27.23 39.04 70.838 43.926 3.189.318 6.272.53 9.355.53 17.169 0 34.436-5.317 51.633-15.839l46.803 44.555h13.252l-52.227-49.71a178.413 178.413 0 0 0 18.83-15.393 179.606 179.606 0 0 0 41.648-57.8c4.703 7.065 14.242 8.981 21.313 4.272a15.123 15.123 0 0 0 3.436-3.14c3.62 7.708 12.792 11.024 20.5 7.404a15.416 15.416 0 0 0 8.216-9.532c6.222 5.784 15.952 5.43 21.736-.792a15.363 15.363 0 0 0 4.109-9.95c7.53 3.954 16.836 1.054 20.796-6.483a15.474 15.474 0 0 0 1.605-4.943l48.26-.318-.255.41-91.019 145.947h10.918l91.655-147.093c7.771-2.071 45-10.634 78.411 7.856a87.38 87.38 0 0 1 11.116 7.284l-41.953 131.896h7.623l40.369-126.862 1.499-4.71 1.485-4.68 11.03-34.677a74.11 74.11 0 0 1 13.4-21.489 46.123 46.123 0 0 1 18.088-12.657h29.67a102.666 102.666 0 0 0 34.889.057h80.723l1.245 3.832-129.196 75.413v2.023c0 1.286-.275 49.773-6.385 111.234-.403 4.137-.848 8.33-1.315 12.573h7.269c6.597-60.352 7.446-111.051 7.559-121.785l130.617-76.269-2.242-7.021h28.61v-36.077l29.896-263.2c-.92-2.743-1.959-5.606-3.189-8.463m-357.28 221.006a12.986 12.986 0 0 1-5.162 5.459c-16.49-6.223-24.147-17.812-27.725-27.273 6.852 3.684 17.628 8.308 34.04 12.87.728 3.018.318 6.2-1.153 8.944m5.12-17.367c-15.86-4.334-26.199-8.676-32.647-12.027 7.636.367 15.287-.015 22.846-1.125 7.078-.926 13.343-2.128 17.43-3.076-.99 7.41-3.521 12.742-7.636 16.236zm-249.757-214.19c1.067-.105 6.59.213 23.292 13.719.848.693 1.704 1.378 2.531 2.079 1.195.997 2.34 1.986 3.465 2.97 1.131.975 2.369 2.071 3.472 3.061 2.68 2.411 4.999 4.603 6.703 6.25l-10.854 12.128a368.746 368.746 0 0 1-7.311-7.976c-.99-1.061-2.002-2.256-3.02-3.458a280.86 280.86 0 0 1-2.906-3.472l-1.131-1.372c-14.043-17.126-14.355-22.868-14.256-23.928Zm-26.7 151.25c-3.508-2.87-9.15-11.808-6.81-40.1 2.446-28.085 20.852-45.84 40.312-64.777a798.412 798.412 0 0 0 7.884-7.686c4.667 5.317 8.591 9.326 10.083 10.86l.658.658.714.714 2.694 2.695 7.566-8.358 10.55-11.696 2.836-3.189 2.34-2.581-3.083-2.984c-.254-.255-3.924-3.967-9.256-8.803 45.135-36.367 81.445-41.677 100.41-44.477a14.256 14.256 0 0 1 2.128-.107c10.748 0 22.444 11.385 24.89 21.695a23.246 23.246 0 0 1-2.192 16.857 33.021 33.021 0 0 1-2.531 4.016 40.642 40.642 0 0 1-3.19 3.783c-7.141 7.552-18.646 14.362-34.04 19.912-43.282 15.592-70.3 44.59-91.697 69.707-1.959 2.298-3.86 4.568-5.728 6.774l-1.18 1.407a718 718 0 0 1-6.541 7.715c-2.906 3.373-5.756 6.59-8.57 9.574-1.415 1.47-2.8 2.885-4.137 4.25a59.236 59.236 0 0 1-4.257 3.931 63 63 0 0 1-11.702 8.436 37.084 37.084 0 0 1-5.155 2.326l-.962.34a24.28 24.28 0 0 1-3.96.947c-3.238.425-5.932-.092-8.06-1.81zM196.512 574.01c-5.869 16.588-20.407 45.396-34.655 60.874-12.283 13.358-39.591 37.173-62.162 44.004-18.646 5.65-37.49 2.97-48.932-.65-32.102-10.127-49.193-37.965-49.193-37.965s12.996-5.87 16.171-7.446c5.72-2.78 13.153-9.702 17.36-14.475 10.635-12.035 25.654-40.503 31.367-55.776 8.598-22.953 17.565-71.842 20.124-96.21 1.5-14.226 1.888-40.82 2.956-57.133.728-10.84 3.953-51.428 3.953-51.428l33.807-27.302a69.13 69.13 0 0 0 4.256-5.657c6.909-10.401 23.985-29.627 32.152-39.053 6.789-7.835 25.654-22.84 34.387-28.447 11.01-7.078 31.728-14.56 44.668-20.145 1.57-.68 3.04-1.33 4.349-1.945a75.32 75.32 0 0 0 20.209-13.195l8.082-4.985s16.497 8.054 21.666 11.88c3.698 2.722 14.05 13.003 14.05 13.003s-30.243 2.129-40.058 4.307c-3.337.72-8.428 2.277-14.007 4.122-14.008 4.632-31.078 11.137-31.078 11.137s4.342 23.405 3.819 38.438a43.634 43.634 0 0 1-.594 6.067c-1.598 8.684-3.684 19.212-10.805 32.852-8.103 15.529-22.91 26.842-27.938 30.399-20.782-7.347-43.763 2.143-53.301 22.02l-.418-.305a.648.648 0 0 0 .34.467c-10.246 21.517-1.117 47.263 20.4 57.509a43.149 43.149 0 0 0 46.428-6.01c.545 4.66 4.618 40.029 3.776 53.697-1.074 18.258-.968 48.444-11.186 77.358zm10.904-172.435c.41 1.527.707 3.068.89 4.638.071.594.128 1.202.17 1.81v.071c0 .622.064 1.252.064 1.888v.891c0 .48 0 .962-.07 1.428v.1a7.2 7.2 0 0 1-.128 1.343v.24c-.05.403-.106.813-.17 1.216l-.063.375c-.064.36-.128.736-.213 1.06 0 .156-.077.32-.106.475a32.809 32.809 0 0 1-1.287 4.256v.085c-.226.608-.48 1.202-.742 1.79l-.156.353c-.29.63-.594 1.23-.926 1.831a.487.487 0 0 1-.05.106c-.233.432-.48.849-.728 1.266l-.077.12c-.255.41-.51.82-.785 1.21v.07c-.29.417-.58.82-.884 1.223-.304.418-.63.814-.962 1.203-.382.452-.785.912-1.202 1.357l-.177.177c-.403.431-.806.834-1.223 1.223v.057a34.98 34.98 0 0 1-2.927 2.46c-14.369 10.692-34.684 7.715-45.376-6.653-10.691-14.369-7.714-34.684 6.654-45.375a32.385 32.385 0 0 1 19.368-6.414c2.694.007 5.374.34 7.99.99.502.12.99.269 1.478.417.714.22 1.421.46 2.129.729l.141.056c.573.22 1.138.46 1.69.714.488.22.983.46 1.457.708l.155.084c.58.297 1.124.616 1.683.962l.474.276c.587.375 1.167.742 1.725 1.145a32.292 32.292 0 0 1 3.401 2.807 30.933 30.933 0 0 1 2.984 3.253c.326.424.658.856.962 1.287.297.41.601.842.87 1.28l.063.092c.276.431.538.863.8 1.294l.063.106c.24.438.488.884.707 1.33l.064.12c.233.46.445.912.664 1.371v.113c.213.467.41.948.594 1.429v.099c.191.488.368.99.538 1.499v.056c.17.524.332 1.068.466 1.599h-.226l.234.374zm1.45 192.538a7.134 7.134 0 0 1-7.128-7.128 7.134 7.134 0 0 1 7.127-7.128 7.134 7.134 0 0 1 7.128 7.128 7.134 7.134 0 0 1-7.128 7.128m25.851 3.083a7.134 7.134 0 0 1-7.128-7.128 7.134 7.134 0 0 1 7.128-7.128 7.134 7.134 0 0 1 7.128 7.128 7.134 7.134 0 0 1-7.128 7.128m25.208-6.81a7.134 7.134 0 0 1-7.127-7.127 7.134 7.134 0 0 1 7.127-7.128 7.134 7.134 0 0 1 7.128 7.128 7.134 7.134 0 0 1-7.128 7.127m7.163-20.782c-7.537-3.96-16.85-1.053-20.81 6.485-.445.855-.82 1.753-1.096 2.68-6.222-5.77-15.952-5.403-21.715.827-.24.254-.467.523-.686.799a15.42 15.42 0 0 0-13.895-8.775c-1.294.007-2.58.176-3.84.502a217.96 217.96 0 0 0 5.22-19.856c6.908-32.548 7.551-69.452 1.81-109.87-.333-2.34-.693-4.667-1.068-6.98a45.066 45.066 0 0 0 3.69-6.038c8.875 13.4 24.467 28.85 51.69 39.23l3.295-8.612c-29.783-11.356-44.23-29.055-51.13-42.15.162-.842.282-1.684.381-2.532v-.283c.092-.884.184-1.768.227-2.673 0-.679 0-1.358.063-2.058v-.24c0-1.57-.092-3.147-.261-4.702a47.79 47.79 0 0 0-.311-2.249 28.33 28.33 0 0 0-.418-2.128v-.156a54.39 54.39 0 0 0-.488-1.987c0-.085-.056-.17-.077-.247-.17-.623-.361-1.252-.559-1.874l-.106-.304c-.191-.601-.403-1.181-.63-1.761-.056-.113-.098-.226-.14-.34a34.69 34.69 0 0 0-.708-1.668c0-.113-.12-.248-.17-.368a54.6 54.6 0 0 0-.763-1.584c-.064-.134-.142-.254-.198-.396-.269-.509-.545-1.068-.828-1.506l-.219-.403c-.29-.488-.6-.969-.89-1.442l-.255-.396a49.46 49.46 0 0 0-.969-1.408l-.269-.381c-.34-.453-.679-.906-1.067-1.351l-.276-.347c-.36-.46-.75-.905-1.125-1.336-.099-.099-.176-.205-.268-.297-.41-.467-.828-.912-1.266-1.35l-.205-.206c-.48-.509-.983-.982-1.492-1.45a41.793 41.793 0 0 0-5.148-4.044 112.892 112.892 0 0 0 37.965-89.159 101.253 101.253 0 0 0-2.192-16.631 157.286 157.286 0 0 1 15.23-7.27 163.096 163.096 0 0 1 51.895-11.589 64.23 64.23 0 0 1 4.837-.141c1.549.007 3.083.127 4.617.36 1.273.199 2.525.517 3.734.948 3.733 1.301 6.901 3.96 9.659 6.803.856.883 1.676 1.789 2.468 2.665a103.27 103.27 0 0 1 24.254 49.78c.212 1.061.318 2.129.53 3.19a56.732 56.732 0 0 0 3.083 12.869c4.893 12.445 15.634 20.103 27.867 27.019a50.658 50.658 0 0 1-19.573 11.483l-3.726 1.167.53 3.825a114.716 114.716 0 0 1 1.195 13.74c-12.042 2.905-39.357 7.693-52.036 2.213l-6.484-2.765v7.014c0 .311.502 35.66 34.684 49.858l.304.46c4.787 7.12 4.143 14.892 2.764 20.103a40.531 40.531 0 0 1-20.42 24.777c-17.233 8.506-28.08 7.658-49.138 5.211l-5.105-.636v5.218c0 23.151 3.776 40.532 9.857 60.939a15.362 15.362 0 0 0-9.822 13.796zm15.394 7.7a7.134 7.134 0 0 1-7.128-7.127 7.134 7.134 0 0 1 7.128-7.128 7.134 7.134 0 0 1 7.128 7.128 7.134 7.134 0 0 1-7.128 7.128m383.662-314.52a392.502 392.502 0 0 1 22.84-64.192l-29.522 253.222a435.719 435.719 0 0 1 6.696-189.03zm5.53 242.41H525.318a50.608 50.608 0 0 0-25.385 0H415.66v-24.14h8.301v5.529h245.705v-5.53h2.023v24.141z" class="cls-1"/><path id="path8" d="m307.14 309.262-1.181-.064a24.339 24.339 0 0 0-4.808.325c-1.69.29-3.345.757-4.936 1.4a24.302 24.302 0 0 0-15.245 20.563l9.143.743a14.755 14.755 0 0 1 3.712-8.705 15.1 15.1 0 0 1 5.417-3.931c7.643-3.288 16.51.247 19.799 7.891a15.047 15.047 0 0 1 1.173 7.198l9.143.743c1.11-13.33-8.79-25.039-22.111-26.156-.042 0-.078-.007-.12-.007z" class="cls-1"/><path id="polygon10" d="m236.41 352.14 10.9-10.43-6.33-6.61-9.79 9.38-3.42 3.27-3.36 3.22-15.62 14.96 6.33 6.61 14.51-13.9 3.37-3.22z" class="cls-1" transform="rotate(45 340.8 410.928)"/><path id="path12" d="M434.886 324.69c.318.743.53 1.493.848 2.235l.106.106c.106.22.213.538.319.743.212.636.53 1.28.848 2.022l.53 1.167c.319.643.53 1.167.849 1.81l.856 1.704.636 1.273c.212.424.53.856.742 1.379l.213.424c.113.382.29.743.53 1.068.212.325.318.643.53.954l.318.644c.213.424.53.855.743 1.28.424.636.742 1.28 1.174 1.81l.212.325c.106.22.318.432.424.637.636.848 1.273 1.81 1.91 2.658 5.423 8.196 14.467 16.702 23.08 24.89 9.786 9.25 20.852 19.68 20.852 25.421v2.447h-2.022v11.808a5.227 5.227 0 0 0-2.023 1.697 7.265 7.265 0 0 0-1.386 5.318 7.654 7.654 0 0 0 3.295 5.105 7.347 7.347 0 0 0-1.916 1.704 7.265 7.265 0 0 0-1.386 5.318 7.534 7.534 0 0 0 4.25 5.635c0 .113.106.22.106.318-.304.191-.559.446-.743.743a6.986 6.986 0 0 0-1.378 5.211 7.262 7.262 0 0 0 6.81 6.272c.388.05.784.05 1.173 0l1.167-.106a27.192 27.192 0 0 0 19.247 7.976h8.09a27.439 27.439 0 0 0 23.291-12.869c.128-.127.24-.269.319-.431h.325a7.037 7.037 0 0 0 4.78-2.659 6.817 6.817 0 0 0 1.386-5.317 7.322 7.322 0 0 0-2.765-4.674v-.538a6.328 6.328 0 0 0 2.022-1.697 6.817 6.817 0 0 0 1.386-5.317 7.447 7.447 0 0 0-3.295-5.106 7.347 7.347 0 0 0 1.917-1.704 6.817 6.817 0 0 0 1.385-5.317 7.182 7.182 0 0 0-3.4-5.212v-6.165h-2.334v-2.447c0-5.643 11.172-16.165 20.951-25.42 8.726-8.189 17.657-16.695 23.186-24.997.637-.848 1.174-1.81 1.81-2.659l.637-.961c.424-.637.742-1.167 1.174-1.81.198-.27.382-.552.53-.856l1.167-1.916c.318-.432.53-.955.848-1.485l.319-.53c.106-.319.318-.53.424-.849.318-.53.53-1.068.848-1.598l.637-1.273c.318-.643.636-1.273.848-1.81.198-.382.375-.77.53-1.167l.637-1.598.212-.424c.184-.297.325-.622.424-.962.319-.742.637-1.485.856-2.128.106-.106.106-.318.212-.424l.106-.22c16.858-47.121-7.665-98.98-54.786-115.838-47.122-16.857-98.981 7.665-115.839 54.787a90.554 90.554 0 0 0-5.296 30.526 89.424 89.424 0 0 0 5.318 30.42c.106.218.106.43.212.636zm91.683 53.288v21.694h-12.968c.212-11.695.382-31.381-.537-47.758h1.81c4.68 0 8.824-.212 12.763-.53a346.853 346.853 0 0 0-1.06 26.587zm-6.59-167.74c45.948 0 83.283 37.336 83.601 83.602a83.281 83.281 0 0 1-4.893 27.973l-.212.537c-.318.743-.53 1.38-.856 2.129-.106.219-.212.537-.318.742l-.212.424c-.212.425-.424.962-.636 1.485a6.914 6.914 0 0 1-.425 1.061c-.212.537-.53 1.068-.742 1.591-.127.41-.311.806-.53 1.167-.213.537-.53.954-.743 1.492-.155.24-.304.488-.424.75l-.318.643-.637 1.273-1.166 1.916c-.107.219-.319.53-.425.75-.318.53-.742 1.067-1.06 1.597l-.637.962c-.53.856-1.068 1.704-1.704 2.553l-.106.106c-5.105 7.552-13.718 15.74-22.125 23.723-12.445 11.696-23.186 21.913-23.186 30.738v2.235h-8.302v-21.694c0-10.324.318-19.354 1.068-27.443 26.057-3.826 32.223-15.422 37.017-24.247.636-1.174 1.174-2.234 1.81-3.295 4.462-7.446 2.977-19.467-3.189-26.27-5.317-5.854-12.975-6.908-21.058-3.082-8.93 4.363-15.422 16.695-19.148 36.91-.849 4.47-1.492 9.045-2.022 13.507-4.038.318-8.507.53-13.513.53h-2.334a97.348 97.348 0 0 0-2.234-14.779c-3.833-14.467-9.249-29.995-20.21-35.85-4.998-2.666-10.641-2.977-16.807-.855-7.877 2.658-11.703 10.74-9.999 20.845 2.765 16.384 18.293 33.82 42.441 37.335.926 16.243.757 36.536.537 48.395h-8.089v-2.235c0-8.825-10.74-18.93-23.186-30.738-8.407-7.87-17.02-16.058-22.125-23.723l-.106-.106c-.637-.849-1.167-1.704-1.804-2.553-.106-.22-.212-.325-.318-.53l-.318-.432c-.318-.53-.742-1.067-1.06-1.598-.319-.53-.425-.75-.637-1.173l-.318-.644a8.203 8.203 0 0 1-.53-.855c-.213-.326-.319-.644-.53-.955l-.213-.424a7.725 7.725 0 0 1-.742-1.28 5.275 5.275 0 0 0-.53-1.167l-.743-1.59c-.212-.538-.53-1.069-.743-1.592l-.53-1.167c-.212-.636-.53-1.166-.75-1.81l-.318-.855c-.318-.644-.53-1.38-.855-2.129-.106-.219-.106-.318-.212-.537a81.94 81.94 0 0 1-4.894-28.086c.036-45.984 37.3-83.248 83.283-83.284zm15.747 132.958c3.295-26.7 10.21-39.669 16.914-42.865a14.315 14.315 0 0 1 6.067-1.598 8.693 8.693 0 0 1 6.598 2.977c4.044 4.469 5.105 12.87 2.227 17.656a39.397 39.397 0 0 0-2.022 3.62c-4.038 7.659-8.938 16.703-29.784 20.21m-30.632.537c-20.845-3.832-32.76-19.466-34.676-31.056-.53-3.09-1.068-10.529 5.211-12.763a17.061 17.061 0 0 1 5.424-.955c1.93-.035 3.84.446 5.53 1.386 8.513 4.47 13.293 19.035 16.595 31.275a68.96 68.96 0 0 1 1.916 12.127z" class="cls-1"/><path id="rect14" d="M458.798-4.074h29.99v9.15h-29.99z" class="cls-1" transform="rotate(29.27)"/><path id="rect16" d="M189.989 428.563h9.15v33.29h-9.15z" class="cls-1" transform="rotate(-42.46)"/><path id="rect18" d="M454.69 245.777h9.15v29.36h-9.15z" class="cls-1" transform="rotate(-10.1)"/><path id="rect20" d="M581.306 5.412h9.15v28.82h-9.15z" class="cls-1" transform="rotate(15.95)"/><path id="rect22" d="M580.299-265.786h9.15v35.84h-9.15z" class="cls-1" transform="rotate(41.42)"/><path id="rect24" d="M488.487 443.632h36.27v9.15h-36.27z" class="cls-1" transform="rotate(-20.41)"/><path id="rect26" d="M150.264 186.641h31.48v9.15h-31.48z" class="cls-1" transform="rotate(31.08)"/><path id="rect28" d="M15.265 291.395h30.85v9.15h-30.85z" class="cls-1"/><path id="rect30" d="M-130.476 316.254h32.44v9.15h-32.44z" class="cls-1" transform="rotate(-25.31)"/><path id="rect32" d="M456.844 670.995h9.15v28.08h-9.15z" class="cls-1" transform="rotate(-9.7)"/><path id="rect34" d="M184.177 805.562h9.15v30.42h-9.15z" class="cls-1" transform="rotate(-33.06)"/><path id="rect36" d="M819.641 161.334h31.59v9.15h-31.59z" class="cls-1" transform="rotate(30.09)"/></g></svg>