<?xml version="1.0" encoding="UTF-8"?><svg id="Ebene_2" xmlns="http://www.w3.org/2000/svg" viewBox="0 0 864.91 1100.64"><defs><style>.cls-1{fill:#1aa857;stroke-width:0px;}</style></defs><g id="Ebene_1-2"><path class="cls-1" d="m41.83,754.64c24.8,27.44,51.95,54.3,84.68,72.06,27.3,14.68,60.03,22.75,90.85,14.82,29.35-7.63,55.77-29.65,62.67-60.03,7.48-33.02-8.51-66.04-28.47-91.29-10.42-13.36-22.16-25.98-34.93-37.28-12.18-10.71-25.68-20.4-40.8-26.71-3.67-1.61-7.63-2.94-11.45-4.11-2.05-.59-4.4.88-4.7,2.94-.29,2.35,1.76,4.11,3.82,4.7,14.53,4.26,27.59,12.33,39.33,21.72,12.18,9.54,23.04,20.69,33.32,32.43,20.4,23.63,39.19,52.69,36.84,85.27-1.03,14.24-6.46,27.59-15.7,38.6-9.1,10.86-21.28,18.93-34.49,23.92-27.74,10.42-58.41,5.28-84.68-6.9-14.82-6.9-28.18-16.14-40.95-26.27-14.24-11.3-27.3-24.07-39.77-37.13-3.08-3.38-6.31-6.6-9.54-10.13-1.47-1.47-3.67-2.2-5.58-1.17-1.32.73-1.61,3.08-.44,4.55h0Z"/><path class="cls-1" d="m116.83,786.49c1.47-6.16,4.55-11.89,8.66-16.58,4.4-4.99,9.54-8.37,15.56-11.15,1.61-.73,1.76-3.23.88-4.4-1.03-1.61-3.23-2.64-4.99-2.05-14.24,4.84-24.8,18.05-28.18,32.58-.88,4.4,6.9,6.31,8.07,1.61h0Z"/><path class="cls-1" d="m177.59,708.99c2.05-6.75,5.28-12.92,9.83-18.35,2.2-2.49,4.7-4.99,7.34-7.04,2.79-2.2,6.02-3.96,9.1-5.58,3.96-2.2-.44-8.07-4.26-6.6-7.19,2.79-13.65,8.07-18.64,13.94-4.99,5.87-8.95,12.77-11.01,20.11-.59,2.05.29,3.82,2.2,4.84,1.76.88,4.84.73,5.43-1.32h0Z"/><path class="cls-1" d="m157.33,752.73c3.82,6.16,8.66,13.36,16.73,14.09,5.43.44,12.47-2.79,12.92-9.1.15-1.32-.29-2.64-.29-3.82,0,0-.15-.44,0-.29,0,.29.29,0,0,0-.44.15.15-.15.15-.15-.88.29.29,0,.29,0-.73.15.73-.15.88,0,.59,0,.88,0,1.47,0,1.17,0,2.35,0,3.38-.15,2.64-.29,5.14-1.32,6.46-3.82,1.32-2.79.29-5.58-1.03-8.07-.44-1.03-1.03-1.91-.88-2.64.29-1.47,1.91-2.79,2.79-3.96,2.49-3.67,1.61-8.66-2.64-10.57-1.61-.73-3.67-.44-4.55,1.03s-.44,3.38.88,4.4c-.15-.15-.15-.73-.29-.29s-.15.73-.44,1.32c-.73,1.32-1.76,2.05-2.49,3.38-1.47,2.35-1.32,4.84-.59,7.34.29.88.88,1.76,1.17,2.64.29.59.59,1.47.59,1.76.15.15-.15.15-.15.15-.44.15-.88.29-1.61.15-3.67.15-8.51-.29-10.57,3.52-.59,1.17-.73,2.2-.73,3.38s.59,2.35.29,3.52c-.15,1.03-1.47,2.05-2.79,2.49-5.43,2.2-9.54-4.55-11.89-8.66-1.03-1.61-2.94-2.94-4.99-2.35-1.76.88-2.94,2.94-2.05,4.7h0Z"/><path class="cls-1" d="m86.15,763.74c-1.32-20.69,11.45-41.09,30.38-49.46,1.91-.73,1.76-3.52.59-4.99-1.47-1.76-3.52-2.05-5.58-1.17-21.28,9.54-34.64,32.58-33.02,55.62.29,4.4,7.93,4.7,7.63,0h0Z"/><path class="cls-1" d="m146.18,690.5c2.64-15.85,11.74-29.35,24.51-38.89,3.82-2.94-1.17-8.51-4.84-6.02-14.68,9.39-24.51,26.27-27,43.44-.73,3.96,6.6,5.72,7.34,1.47h0Z"/><path class="cls-1" d="m142.22,693c4.99,1.47,10.27,2.94,15.41,4.55,1.32.44,3.52-.29,4.11-1.76,4.7-11.74,12.47-22.45,22.75-30.09,1.61-1.32,1.91-3.08.59-4.99-3.67-5.14-7.19-10.71-11.01-15.7-2.79-3.67-9.1-.59-6.16,3.82,3.52,5.28,7.34,10.57,11.01,15.7.15-1.61.44-3.38.59-4.99-11.15,8.51-19.81,19.81-24.95,32.87,1.47-.59,2.64-1.17,4.11-1.76-5.14-1.32-10.27-2.94-15.41-4.26-1.76-.59-3.96.73-4.11,2.64-.59,2.05,1.17,3.52,3.08,3.96h0Z"/><path class="cls-1" d="m84.25,767.11c4.99.59,10.13,1.03,15.12,1.61,1.61.15,3.38-.15,4.11-1.76,3.52-8.22,9.1-15.56,16.14-21.13,4.26-3.38,9.1-6.16,13.8-9.1,1.47-.88,1.91-2.49,1.17-4.11-2.2-4.26-3.96-8.95-6.46-12.92-1.61-2.49-3.52-4.99-5.43-7.48-1.47-1.76-2.79-3.67-4.7-4.7.44.44,1.03.73,1.61,1.32h0c-1.32-1.32-3.67-2.2-5.28-1.17s-1.91,3.38-.59,4.7c-.44-.44-.59-.88-.15-.44.29.59.59.88.88,1.47.59.88,1.32,1.61,2.05,2.35,1.91,2.2,3.82,4.7,5.43,7.19,2.35,3.52,3.96,7.78,5.87,11.74.44-1.32.73-2.79,1.17-4.11-4.99,3.23-10.42,6.31-15.12,10.13-7.48,6.02-13.36,13.94-17.17,23.04,1.47-.59,2.64-1.17,4.11-1.76-4.99-.59-10.13-1.03-15.12-1.61-1.91-.15-3.96.44-4.11,2.64-1.03,1.91.73,3.96,2.64,4.11h0Z"/><path class="cls-1" d="m201.95,790.89c-2.49-3.38-5.87-7.63-4.26-11.89,1.47-3.82,5.14-2.79,8.37-2.79,3.82,0,7.78-1.32,9.1-5.28,1.03-3.08-.15-6.31-.88-9.39-.15-.73-.44-1.32-.59-2.05,0-.29-.15-.73-.15-1.03-.15-1.03,0,.29,0-.29,0-.29.15-.44.15-.73v.29q.15-.44,0,0c-.29,0,.88-.59.29-.29.15-.15.44-.15.73-.15,2.35,0,4.55-.15,6.75-1.17,1.91-1.03,3.38-2.49,4.4-4.4,1.03-1.91,1.32-3.96,1.03-6.02-.29-2.05-1.76-3.52-2.05-5.28.29.88-.73-.15.15.15.29,0-1.17,0,.59,0,.59,0,1.03.15,1.32.44,1.61,1.03,2.94,2.94,3.82,4.7,4.26,9.25-1.47,19.08-7.19,25.98-3.52,4.4-7.63,8.51-12.18,11.89-2.35,1.76-4.55,3.38-7.04,4.99-2.05,1.17-4.11,2.64-5.28,4.7-2.79,4.84,1.32,9.54,4.99,12.33,3.23,2.64,7.48,4.26,11.59,5.14,8.22,1.47,17.46-.44,24.36-5.28,17.32-12.33,16-38.01,4.26-53.57-2.79-3.67-9.39-.59-6.31,3.67,8.81,12.62,10.86,33.76-3.08,43.59-6.02,4.26-14.24,6.02-20.84,3.82-1.76-.59-3.38-1.32-4.7-2.35-.73-.44-1.32-1.03-1.76-1.47l-1.17-1.17c-.29-.29-.29-.88-.44-.44,0-1.47,2.79-2.49,3.82-3.23,2.49-1.61,4.7-3.23,7.04-4.99,8.51-6.75,16.88-15.41,20.99-25.39,3.82-9.39,2.79-20.99-5.58-27.59-3.52-2.94-10.13-4.55-13.65-.73-1.91,1.91-1.91,4.55-1.03,6.9.59,1.47,1.91,3.08,1.47,4.7-.88,4.11-4.99,2.64-8.07,3.67-3.82,1.17-5.28,4.7-4.7,8.22.15,1.61.88,3.23,1.32,4.84.44,1.32.88,3.23.73,4.26,0,.29-.29.88-.59,1.17-.15.15-.73.15-.88.29-2.05.29-4.26-.15-6.16,0-5.43.44-9.54,3.96-10.27,9.39-.73,6.02,2.94,11.15,6.46,15.56,2.2,3.08,8.07.15,5.14-3.67h0Z"/><path class="cls-1" d="m41.1,749.79c-8.66,2.49-19.67,2.64-26.42-4.4-2.94-2.94-4.84-7.19-5.14-11.3-.15-4.84,2.05-8.22,4.99-11.74,3.52-4.4,5.58-9.1,3.82-14.68-1.47-4.7-4.55-8.37-7.04-12.33-4.55-7.78-3.96-17.76.88-25.24,6.02-9.25,17.9-9.69,25.83-16.73,8.07-6.9,6.6-17.76,5.14-27.15-.73-4.55-1.32-8.95-.44-13.36.73-4.26,2.64-8.22,5.14-11.59,5.43-7.19,13.5-11.45,22.6-11.45,5.14.15,10.13.73,15.26-.29,6.31-1.32,10.42-5.72,14.09-10.57,6.02-7.78,15.12-16.88,25.83-15.26,4.11.59,8.07,2.49,10.42,6.02,2.49,3.67,1.91,8.66,2.64,12.92.88,5.58,3.67,10.42,9.1,12.33,5.43,1.91,11.45,1.76,16.88,3.67,4.55,1.61,8.66,4.26,10.57,8.81,1.32,3.38,1.17,8.22-1.76,10.86-2.94,2.64-7.34,2.35-11.01,2.49-4.84.15-9.69.59-13.94,3.08-8.07,4.84-10.86,14.38-14.53,22.45-1.61,3.67-3.52,7.63-6.6,10.13-3.52,2.94-8.37,3.08-12.62,3.23-5.58.29-11.01,1.03-15.85,3.82-4.84,2.79-8.81,7.04-11.01,12.18-2.05,4.7-2.64,9.98-3.23,14.97-.59,4.4-1.47,9.1-4.84,12.18-3.23,2.64-7.78,3.67-11.74,4.7-4.55,1.32-9.25,2.79-12.62,6.16-3.67,3.38-4.84,8.37-4.7,13.21,0,4.4,1.47,9.69-.15,13.94-1.61,4.26-5.87,7.04-9.98,8.81-4.99,2.05-1.03,8.95,3.38,7.19,5.28-2.05,10.27-5.28,13.36-10.13,3.08-4.84,2.2-10.42,1.76-15.85-.29-4.11-.44-8.95,2.94-12.03,3.23-2.94,8.07-3.67,12.18-4.84,4.84-1.32,9.83-3.08,13.21-6.75,3.67-3.96,4.84-9.25,5.58-14.38.73-5.14,1.03-10.42,3.52-14.97,2.49-4.55,6.75-7.93,11.74-9.39,5.14-1.32,10.71-.73,16-1.61,4.99-.88,9.54-3.67,12.62-7.63,2.94-3.82,4.99-8.22,6.75-12.62,1.76-4.11,3.38-8.37,6.02-11.89,2.64-3.52,5.87-5.28,10.13-5.72,4.84-.44,9.69,0,14.38-1.47,5.14-1.61,9.1-5.58,10.27-10.86,1.17-5.28-.44-10.71-3.38-15.12-3.38-5.14-9.39-8.22-15.12-10.13-2.94-.88-6.02-1.61-9.1-2.05-2.35-.29-5.58-.29-7.63-1.76-2.79-2.2-2.49-8.66-2.94-12.33-.73-5.43-3.38-10.13-7.78-13.65-9.39-7.34-22.31-6.75-31.99-.59-5.28,3.23-9.54,7.78-13.21,12.62-1.91,2.49-3.82,5.28-6.46,7.04-1.91,1.32-4.26,1.91-6.46,2.05-4.99.29-10.13-.73-15.41-.15-5.14.44-10.13,2.2-14.53,5.14-8.37,5.43-14.53,14.24-16.14,24.07-.88,4.99-.15,10.13.73,15.12.73,4.55,1.61,9.25.88,13.8-1.91,11.59-16.58,12.47-24.36,18.49-8.22,6.46-12.47,16.88-11.45,27.3.59,5.28,2.79,9.83,5.58,14.09,2.05,3.23,5.58,7.34,5.28,11.45-.29,2.64-2.05,4.7-3.67,6.6-1.91,2.2-3.67,4.55-4.55,7.19-1.61,4.84-1.32,9.83.29,14.68,3.67,10.71,14.09,16.73,24.8,17.76,5.43.44,10.86-.29,16.14-1.76,4.7-1.76.88-7.93-2.94-6.75h0Z"/><path class="cls-1" d="m276.8,759.48c18.05,11.3,37.57,20.25,55.92,31.26,3.82,2.35,8.07-3.38,3.96-6.02-17.76-11.3-37.13-19.52-55.18-30.53-1.61-1.03-4.11-1.47-5.72.15-1.17,1.47-.73,3.96,1.03,5.14h0Z"/><path class="cls-1" d="m330.22,786.49c-4.99,25.24-13.65,50.63-27.44,72.35-12.18,19.23-30.09,35.37-52.25,41.68-11.15,3.23-22.89,3.52-34.05.29-2.05-.59-4.26.73-4.55,2.79-.29,2.35,1.76,3.82,3.67,4.55,21.72,6.16,45.5.29,63.84-12.18,22.16-15.12,36.54-38.89,46.08-63.4,5.58-14.38,9.83-29.21,12.62-44.32.88-4.4-6.9-6.31-7.93-1.76h0Z"/><path class="cls-1" d="m321.27,780.17c8.51-4.4,16.44-9.69,24.36-14.97,7.78-5.43,15.56-11.15,23.04-16.88,1.61-1.32,1.91-3.38.73-5.14-1.17-1.47-4.11-2.64-5.87-1.17-14.97,11.45-30.23,23.48-47.11,32.14-1.91,1.03-1.76,3.52-.59,4.99,1.17,1.47,3.38,1.91,5.43,1.03h0Z"/><path class="cls-1" d="m221.47,658.95c2.35-3.23,6.16-4.11,9.98-4.11,3.96.15,7.19,1.03,10.42,3.38,4.84,3.67,8.66,8.66,12.18,13.36,1.47,2.05,2.94,4.11,3.67,6.31.59,2.05.59,3.23.29,5.28-.29,2.05-1.03,4.26-2.05,6.16-.44,1.03-.88,1.47-1.47,2.35-.15.15-.88.88-.59.59-.15.15-.29.29-.44.15-.59.29.73-.15-.29,0-2.05.59-2.94,2.64-2.2,4.55.88,2.05,3.38,3.08,5.43,2.49,5.14-1.32,7.63-7.04,8.95-11.59,1.76-5.87.88-11.15-2.35-16.44-3.96-6.31-8.95-12.47-14.68-17.32-4.4-3.82-9.83-6.02-15.56-6.46-6.46-.59-13.94.44-17.9,6.16-1.17,1.76-.88,3.82.73,5.14,1.61,1.32,4.55,1.91,5.87,0h0Z"/><path class="cls-1" d="m88.94,797.05c-4.4,10.27-.88,22.01,6.02,30.38,4.4,5.28,10.13,9.25,16,12.47,2.94,1.47,6.02,3.08,9.1,4.4,3.08,1.32,6.31,2.79,9.69,3.82,3.82,1.17,7.34,0,10.13-2.79,1.32-1.32,2.49-3.08,3.67-4.55,1.32-1.61,3.23-3.52,3.82-5.58,1.03-3.08-2.79-6.02-5.58-4.4-3.38,1.91-5.58,6.16-8.07,8.95-1.03,1.03-1.32,1.32-2.49,1.03-1.32-.44-2.49-1.03-3.82-1.47-6.9-2.79-13.65-5.72-19.52-10.13-8.51-6.46-15.41-18.05-10.86-28.77,1.03-4.26-6.31-7.48-8.07-3.38h0Z"/><path class="cls-1" d="m381.29,743.34c21.72,21.13,45.06,42.12,73.82,52.98,11.89,4.55,24.36,7.63,36.98,8.51,12.47,1.03,25.39.73,37.28-3.52,5.58-2.05,10.86-4.7,15.56-8.51,5.87-4.7,11.74-9.69,17.02-15.26,4.99-5.58,9.69-12.03,12.62-19.08,2.2-5.14,2.05-10.86,1.91-16.29-.29-6.16-1.32-12.18-2.05-18.2-.73-6.02-.59-11.45-1.76-17.61-2.94-14.68-10.71-28.62-18.64-41.24-17.02-27.3-40.21-50.19-66.78-68.24-3.38-2.2-6.75-4.4-10.13-6.6-1.76-1.17-4.26-1.61-5.72.15-1.47,1.47-.88,4.11.88,5.28,26.12,16.14,49.46,36.54,67.66,61.49,8.66,11.89,16.44,24.95,21.87,38.89,2.2,6.02,3.82,12.33,4.11,18.79.15,5.43,1.03,10.71,1.76,16.14.73,5.43,1.47,11.15,1.17,16.73-.44,6.02-2.94,10.86-6.31,16-3.82,5.87-8.95,11.01-14.09,15.85-4.7,4.11-9.54,8.37-15.12,11.59-9.98,5.28-21.72,6.75-33.02,6.6-11.89-.15-23.92-2.49-35.37-6.02-27.3-8.51-49.46-27.15-70.15-46.08-2.79-2.49-5.58-4.99-8.37-7.48-1.32-1.32-3.96-1.32-5.28,0-1.91,1.91-1.03,3.96.15,5.14h0Z"/><path class="cls-1" d="m390.1,732.77c6.75,9.1,16.14,16.14,26.71,20.55,9.83,3.96,21.43,6.46,31.41,1.76,8.37-3.96,13.21-12.33,15.12-20.99,2.05-9.69.15-19.52-4.7-28.18-3.23-5.58-7.19-10.71-11.45-15.26-4.4-4.7-9.39-8.51-13.94-13.06-1.61-1.61-4.11-2.64-6.16-.88-1.91,1.61-1.32,4.26.59,5.58,3.96,3.08,7.78,6.6,11.45,10.27s6.9,7.19,9.83,11.3c4.99,7.04,8.07,15.12,7.48,23.92-.44,7.19-3.38,15.12-9.39,19.37-7.19,5.14-16.58,3.67-24.51,1.03-10.27-3.52-19.52-10.13-26.12-18.79-3.08-3.67-9.25-.73-6.31,3.38h0Z"/><path class="cls-1" d="m394.79,729.25c0-21.13,15.41-40.95,36.1-45.5,1.91-.44,2.94-2.64,2.05-4.4-.88-2.05-3.23-2.94-5.28-2.35-23.04,5.14-40.8,27.3-40.65,50.93,0,2.05,1.47,3.82,3.52,4.11,1.61.15,4.26-.73,4.26-2.79h0Z"/><path class="cls-1" d="m447.34,662.91c7.34,7.63,14.97,15.26,24.36,20.25,8.22,4.4,17.9,6.16,27.15,3.96,8.81-2.05,16.29-8.37,18.79-17.02,2.64-9.39.15-19.23-4.7-27.3-6.46-10.86-15.85-19.96-25.1-28.33-1.61-1.32-4.4-1.47-5.72.15-1.47,1.76-.59,3.82.88,5.28,7.19,6.6,14.38,13.5,20.11,21.57,4.84,6.6,8.22,14.38,7.34,22.6-.73,7.19-5.14,13.06-12.03,15.56-7.19,2.49-14.82,1.61-21.72-1.47-9.1-4.11-16.29-11.59-23.34-18.64-1.32-1.32-3.52-2.35-5.28-1.17-1.91.73-2.2,3.08-.73,4.55h0Z"/><path class="cls-1" d="m450.56,658.51c2.35-17.9,16.73-32.58,34.34-35.81,2.05-.29,2.79-2.79,2.05-4.4-.88-2.05-3.23-2.64-5.28-2.35-19.96,3.23-36.54,20.99-38.75,41.09-.29,4.11,7.04,5.87,7.63,1.47h0Z"/><path class="cls-1" d="m432.95,681.99c5.14-5.72,10.86-11.15,16.14-16.73l1.91-1.91c-2.2-1.61-4.26-3.38-6.46-4.99l-1.17,1.17c-1.47,1.47-.73,3.96.73,5.14,1.76,1.17,4.11,1.47,5.72-.15l1.17-1.17c1.47-1.47.73-3.96-.73-5.14-1.76-1.17-4.11-1.47-5.72.15-4.99,4.7-9.83,9.83-14.53,14.82-1.17,1.17-2.49,2.49-3.52,3.82-3.23,3.52,3.38,8.37,6.46,4.99h0Z"/><path class="cls-1" d="m384.08,740.26c2.49-2.49-2.49-6.31-4.99-3.82-2.35,2.64,2.64,6.16,4.99,3.82h0Z"/><path class="cls-1" d="m383.35,735.71c-22.01-23.48-36.84-56.5-30.67-89.08,2.79-15.41,10.57-29.94,21.72-41.09,11.01-11.01,25.39-17.46,41.09-18.49,18.79-1.17,36.98,4.11,54.74,9.25,2.05.59,4.26-.73,4.55-2.79.29-2.35-1.76-3.82-3.67-4.55-16.73-4.7-33.9-9.54-51.51-9.54-17.32,0-33.76,5.58-46.96,16.73-12.92,10.86-21.72,25.83-26.27,41.83-4.55,16.58-3.67,34.2,1.17,50.49,5.58,19.08,16.14,36.4,29.94,50.78,1.32,1.32,3.38,2.2,5.28,1.17,1.61-1.03,1.91-3.38.59-4.7h0Z"/><path class="cls-1" d="m392.15,710.46c-2.94-1.47-5.72-2.79-8.81-4.11-.73-.44-1.61-.73-2.35-1.17-.44-.15-.59-.29-1.03-.44.29,1.17.59,1.47.73,1.03.29,0,.73-1.61.88-1.76.29-.59.59-1.17.88-2.05,2.64-5.58,5.72-10.71,9.69-15.56,3.82-4.7,8.07-9.25,12.92-12.92.29-.29,1.32-.73,1.32-1.03l.15-.15c.15-.44-.29-.59-1.17-.59-.15.15,2.64,3.82,2.94,4.11,1.76,2.64,3.52,6.16,6.02,7.78,2.05,1.47,6.6,1.03,5.87-2.64-.73-3.08-3.38-6.02-5.14-8.66-1.76-2.64-3.52-5.87-6.6-7.19-2.94-1.17-5.87-.29-8.37,1.61-2.49,1.91-4.84,3.96-7.19,6.31-4.4,4.4-8.22,9.1-11.59,14.24-1.76,2.64-3.23,5.28-4.7,7.93-1.32,2.49-3.08,5.43-3.38,8.37-.59,4.11,2.94,6.16,6.16,7.63,3.52,1.47,6.75,2.94,10.27,4.4,1.61.73,3.96.44,4.55-1.32.73-1.32-.44-3.08-2.05-3.82h0Z"/><path class="cls-1" d="m449.24,645.15c-2.2-.73-4.26-1.61-6.6-2.49-1.03-.44-1.91-.73-2.94-1.17-.59-.29-1.32-.44-1.76-.59-.15-.15-.44-.15-.59-.29q-.44-.15-.15-.15c.29.59.59,1.17.73,1.61-.15-.73,1.03-2.49,1.61-3.38.73-1.61,1.76-3.23,2.79-4.84,1.91-3.08,3.96-6.31,6.31-9.25,4.55-5.43,9.98-10.27,16.58-13.06-1.32-.15-2.64-.59-3.96-.73,2.79,2.2,4.7,4.7,6.02,8.07,1.76,4.11,9.25,2.79,7.34-2.05-1.47-3.52-3.82-6.75-6.46-9.39-1.32-1.32-3.08-2.79-5.14-2.79-1.91.15-3.96,1.32-5.43,2.2-6.16,3.23-11.3,8.07-15.56,13.5-4.26,5.43-8.37,11.59-11.01,17.76-1.47,3.82.44,6.9,3.96,8.37,3.82,1.47,7.78,2.79,11.59,4.26,1.76.59,3.96.44,4.84-1.32.59-1.47-.44-3.67-2.2-4.26h0Z"/><path class="cls-1" d="m457.46,723.82c1.32,1.03,2.49,1.91,3.67,3.08,1.17,1.47,2.49,3.08,4.11,4.11,2.79,2.2,6.75,3.52,10.27,2.35,3.52-1.17,5.28-4.7,5.43-8.37,0-1.76-.29-3.52-.59-5.28-.15-1.32-.44-3.38.44-4.55.59-.88,1.61-.44,2.49-.44,1.76,0,3.67.15,5.28-.88,1.47-.88,2.35-2.64,2.2-4.55-.15-1.91-1.32-2.79-1.76-4.4,0,0-.29.59-.15.44.73-.44,1.47-.59,2.35-.88,1.76-.59,3.38-1.03,4.84-2.2,2.94-2.35,4.55-6.02,4.55-9.83,0-4.4-1.61-8.66-6.02-10.42-1.91-.73-3.96-1.03-6.02-1.32-2.2-.15-4.7-.59-6.9-.44-3.67.15-4.11,4.99-.88,6.16,3.08,1.03,6.46.88,9.39,1.47.59,0,1.17.29,1.61.44.15.15.29.29.44.15.44.73.44,2.2.44,3.08-.15,2.49-1.17,4.7-3.67,5.72-2.94,1.17-6.46,1.76-7.63,5.28-.59,1.47-.29,2.94.29,4.4.15.44.59.88.73,1.32.15.15.29.59.44.73.29.29-.15-.44.29-.88s1.03-.44,0-.29c-.59,0-1.32-.15-1.91-.15-1.61-.15-3.38.15-4.7.88-2.94,1.47-4.11,4.99-4.26,8.07-.15,2.79,1.17,5.87.59,8.51-.59,2.35-2.05,1.76-3.67.73-1.17-.88-2.2-2.2-3.23-3.23-1.32-1.32-2.79-2.49-4.4-3.52-1.47-.88-3.67-1.32-4.99,0-1.03,1.61-.59,3.82.88,4.7h0Z"/><path class="cls-1" d="m413.43,739.08c1.76-5.58,4.7-10.86,8.51-15.26,1.91-2.2,3.96-4.26,6.31-6.02,1.17-.88,2.2-1.61,3.52-2.35,1.47-.88,3.23-1.47,4.26-2.79,2.05-2.35-.73-6.02-3.67-5.72-3.23.29-6.46,2.64-9.1,4.7-2.64,2.05-5.28,4.4-7.48,6.9-4.4,4.99-7.63,10.86-9.54,17.17-.59,2.05.29,3.82,2.2,4.55,1.47.88,4.26.73,4.99-1.17h0Z"/><path class="cls-1" d="m416.66,726.46c1.03,7.19,9.1,10.57,15.56,9.39,3.23-.59,5.87-2.64,7.63-5.58,1.47-2.64,1.76-6.16,1.03-9.25-.88-4.11-3.52-7.63-7.34-9.69-1.47-.88-3.67-.44-4.55,1.03-.88,1.47-.44,3.38,1.03,4.26.44.44.88.88,1.32,1.03,0,0-.59-.59-.29-.29l.29.29c.29.29.44.44.59.88.15.15.29.59.44.73,0,0-.44-.73-.15-.15l.29.29c.15.15.29.59.44.73s.15.73.29.88c0,0-.29-.88,0-.29v.29c0,.29.15.44.29.88,0,.29.15.44.15.73.15.15,0,.29.15.44.15.73,0-.88,0,0,0,.59-.15,1.03,0,1.47,0,.29,0,.59-.15.73,0,.59,0-.29,0-.29-.15.15-.15.44-.15.44-.15.44-.44,1.03-.59,1.47-.29.59.15-.15.15-.15l-.29.29-.73.73-.29.29c-.29.29.29-.29.29-.29-.15.15-.44.44-.73.44-.15.15-.44.15-.73.44s-.29,0,.44-.15c0,0-.29,0-.44.15-.29,0-.44.15-.73.15-.15.15-.29,0-.44.15-.29,0-.44-.15.29,0-.59,0-1.03.15-1.61.15-.59,0,.29,0,.44.15-.15-.15-.29,0-.44-.15-.29,0-.59,0-.73-.15-.29,0-.44-.15-.73-.15-.44-.15.88.29.44.15-.15-.15-.29,0-.44-.15-.29,0-.59-.29-.73-.44-.73-.44.88.59,0,0-.15-.15-.29-.29-.73-.44l-.29-.29c.73.44.44.44.15.15l-.59-.59c-.44-.44.15.15.29.29-.15-.15-.29-.29-.15-.44-.15-.15-.29-.59-.29-.88.29.59.15.73,0,.29,0-.29-.15-.44,0-.59-.29-1.76-2.49-3.38-4.11-3.23-2.2.44-3.82,1.76-3.52,3.82h0Z"/><path class="cls-1" d="m481.24,659.24c2.05-4.99,5.43-9.54,9.69-12.92,2.05-1.76,4.4-2.94,6.75-4.11,1.17-.59,2.35-.88,3.52-1.47,1.32-.44,2.94-.59,4.26-1.61,2.64-2.05,1.03-5.43-1.91-6.02-3.23-.59-7.04,1.17-10.13,2.49-2.94,1.17-5.72,3.08-8.22,4.99-4.99,4.11-8.95,9.25-11.45,15.26-1.61,4.26,5.72,7.48,7.48,3.38h0Z"/><path class="cls-1" d="m485.93,648.97c1.61,4.55,6.31,7.78,11.15,8.22,4.84.44,9.39-2.05,11.59-6.6,1.03-2.2,1.47-4.99.88-7.34-.29-.88-.59-1.76-1.47-2.35-.88-.59-1.91-1.03-2.94-.88-1.91.15-3.52,1.47-3.23,3.52,0,.29.15.44.15.73,0,.59,0-.88,0,0,0,.59-.15,1.03-.15,1.61,0,.29-.15.44-.15.73.15-.15.15-.44.15-.44-.15.15,0,.29-.15.44-.15.44-.44,1.03-.59,1.47l-.29.29c-.29.29-.15.15.29-.29l-.59.59-.88.88c-.44.44.73-.44,0,0-.15.15-.44.15-.73.44q-.15.15-.44.15c-.44.15-.15.15.44-.15-.29,0-.44.15-.59.29-.29,0-.44.15-.73.15-.73.15,1.03-.15,0,0-.29,0-.59,0-.73.15-.88,0,.73.15,0,0-.44-.15-.88-.29-1.17-.29,1.17.29.44.15,0,0-.15-.15-.44-.15-.59-.29-1.03-.44.73.44.15.15-.15-.15-.29-.29-.73-.44l-.44-.44c-.44-.44.73.73,0,0l-.59-.59c-.59-.88.29.59,0,0-.15-.44-.44-1.03-.59-1.47-.29-.88-1.32-1.61-2.05-2.05-.88-.29-2.05-.59-2.94-.29-.88.29-1.76.88-2.05,1.76-.29.59-.15,1.32,0,2.35h0Z"/><path class="cls-1" d="m455.99,795.44c11.01,12.77,21.72,25.54,32.73,38.3,2.35,2.64,4.55,5.72,7.19,8.07-.44-.44-.73-1.03-1.32-1.61.15.15.29.29.15.44,0-.59-.15-1.32-.29-1.76-.15,1.03.29,2.05.88,2.94,1.32,1.61,3.82,2.35,5.87,1.17,1.76-1.17,2.05-3.52.73-5.14-.88-.88-1.76-1.47-2.94-1.76.59.29,1.32.73,2.05.88-.88-.59.29.59.15.15-.15-.44-.59-.88-1.03-1.32-1.03-1.32-2.05-2.35-3.08-3.67-3.23-3.82-6.46-7.34-9.69-11.15-6.9-8.07-13.8-15.85-20.69-23.92-1.61-1.91-3.08-3.67-4.84-5.43-1.17-1.47-3.67-2.2-5.43-1.03-1.61,1.03-1.61,3.38-.44,4.84h0Z"/><path class="cls-1" d="m560.2,688.59c7.48,6.02,14.97,11.74,22.6,17.61,3.67,2.79,7.48,5.72,11.3,8.66,1.91,1.32,3.67,2.79,5.58,4.4,2.05,1.47,3.96,3.38,6.46,4.4,3.08,1.32,6.46-1.47,4.26-4.55-1.47-2.05-3.52-3.23-5.43-4.84-1.91-1.32-3.67-2.79-5.72-4.26-3.82-2.94-7.63-5.87-11.45-8.81-7.63-5.87-15.12-11.59-23.04-17.17-1.47-1.17-3.82-1.47-5.14.15-1.47,1.17-.88,3.23.59,4.4h0Z"/><path class="cls-1" d="m405.36,786.19c4.99,7.04,11.15,14.09,19.37,17.02,7.19,2.49,15.41,1.32,21.28-3.96,1.32-1.32,2.49-2.79,3.38-4.55.88-1.76,1.61-4.26,1.03-6.31-.44-1.61-1.61-2.79-3.52-3.23-1.47-.29-3.38.15-3.96,1.61-.73,2.2-.44,3.08-1.47,4.7-.15.15-.15.44-.29.59.29-.29.15-.15-.15.15s-.44.44-.59.88l-.88.88-.44.44c.29-.29.15-.15-.15.15-1.47,1.17-2.79,1.61-4.26,2.2-1.61.44-2.64.59-4.4.59q-.29,0-.59,0,.29,0-.15-.15c-.44-.15-.73-.15-1.17-.29-1.03-.15-1.61-.44-2.64-.88-2.05-.88-3.67-1.91-5.43-3.38-3.52-2.94-6.31-6.6-9.1-10.27-1.17-1.47-3.67-2.2-5.43-1.03-1.47,1.17-1.47,3.23-.44,4.84h0Z"/><path class="cls-1" d="m557.11,673.77c5.58-1.17,9.98-6.75,11.74-11.74,1.03-2.79,1.61-5.72,1.17-8.51-.59-3.82-3.08-7.19-5.58-9.98-1.76-1.76-3.38-3.38-5.28-4.7-2.2-1.61-4.55-3.96-7.48-3.96-2.49-.15-3.52,2.35-2.79,4.26.59,1.47,1.91,2.2,3.23,3.23.88.59,1.76,1.17,2.49,1.91,1.03.73,1.76,1.47,2.64,2.35l1.76,1.76c1.47,1.76,2.05,2.94,3.08,4.84.15.44,0,.29,0-.29.15.15,0,.29.15.44,0,.29.15.73.15,1.03q0,.29.15-.15v1.47c-.15.73-.29,1.47-.29,2.05.29-.88-.15.44-.15.44-.15.44-.29.59-.44,1.03-.29.59-.59,1.47-.88,2.05-.15.44-.44.73-.73,1.03.44-.73-.15.15-.29.29-.44.73-.88,1.17-1.47,1.76l-.88.88-.44.44q.29-.29.15-.15c-.44.44-1.03.73-1.61,1.03q-.44.15.15-.15c-.15.15-.29,0-.44.15-.29,0-.73.15-.88.29-1.91.44-2.79,2.79-2.05,4.4.59,2.05,2.94,2.94,4.84,2.49h0Z"/><path class="cls-1" d="m499.29,843.43c23.63-.73,47.11-8.66,66.34-22.6,19.96-14.68,35.22-35.52,42.71-59.15,3.96-12.47,7.19-27.15,2.49-39.77-1.32-3.67-8.66-3.38-7.63,1.17,1.17,5.28,1.91,10.42,1.47,15.85-.44,5.43-1.61,11.01-3.08,16.29-3.23,11.15-8.07,21.87-14.53,31.55-12.62,19.08-30.97,33.9-52.25,41.97-11.59,4.55-24.07,7.04-36.54,7.48-1.91.15-3.67,1.61-3.38,3.67.29,2.05,2.35,3.52,4.4,3.52h0Z"/><path class="cls-1" d="m598.79,713.1c12.62-7.93,25.39-15.7,38.16-22.89,11.74-6.46,23.92-13.94,37.28-16.73,12.77-2.49,25.83.59,38.01,3.67,13.36,3.38,26.71,7.34,39.77,11.89,14.97,5.28,29.65,11.74,44.18,18.35,1.76.88,4.55.44,5.43-1.61.88-2.05-.59-4.11-2.49-5.14-25.98-12.77-53.71-22.6-81.89-29.94-13.06-3.38-26.56-6.9-40.07-5.43-14.24,1.32-27,8.22-39.33,15.26-14.97,8.22-29.65,17.02-44.03,26.42-3.96,3.08,1.32,8.66,4.99,6.16h0Z"/><path class="cls-1" d="m411.38,424.72c10.27,12.33,20.25,24.66,31.26,36.25,12.77,13.65,26.56,26.56,43.29,35.37,28.62,15.12,64.72,13.36,91.29-5.28,27.3-19.08,41.39-52.83,36.98-85.71-4.55-33.9-25.24-63.4-45.5-89.82-24.51-31.85-52.54-61.05-83.36-86.88-3.67-3.08-7.48-6.31-11.3-9.25-1.61-1.32-4.55-1.61-6.02.15-22.45,26.56-44.91,53.13-67.36,79.69-11.15,13.21-22.45,26.56-33.61,39.77-2.35,2.94-5.43,5.72-6.9,9.25-1.47,3.52-.88,7.34.73,10.71,1.61,3.38,4.11,6.16,6.46,9.1,2.64,3.52,5.14,6.9,7.93,10.27,12.03,15.56,23.78,31.11,35.81,46.67,1.32,1.61,4.11,2.35,5.87,1.17,2.05-1.17,1.91-3.67.73-5.14-10.27-13.5-20.4-26.86-30.82-40.21-5.28-6.75-10.27-13.5-15.56-20.25-1.47-2.05-3.38-4.26-3.52-6.75-.15-3.08,2.94-5.87,4.84-8.07,21.87-25.68,43.59-51.51,65.46-77.2,12.33-14.68,24.66-29.06,36.98-43.74-2.05,0-3.96.15-6.02.15,30.23,24.07,57.97,51.51,82.48,81.31,11.3,13.94,22.31,28.18,31.85,43.29,8.22,13.21,15.56,27.3,19.67,42.27,4.11,14.97,4.84,30.38,1.17,45.5-3.82,14.97-11.74,29.06-22.89,39.92-20.99,20.4-53.71,27.88-81.31,17.9-16.29-6.02-30.38-16.88-42.71-29.21-12.03-12.03-23.34-25.1-34.34-38.16-1.76-2.05-3.67-4.26-5.28-6.46-1.32-1.61-3.67-2.2-5.58-1.17-1.91.73-1.91,3.08-.73,4.55h0Z"/><path class="cls-1" d="m441.17,447.76c-3.23-26.42-8.51-56.94-31.85-73.53.29,1.76.59,3.52.73,5.14,21.87-23.63,44.18-46.82,66.63-69.86,6.02-6.31,12.33-12.62,18.49-18.79-2.35-.59-4.84-1.03-7.04-1.47,4.4,7.04,10.57,12.62,18.05,16.29,5.14,2.49,10.13,3.08,15.7,3.67,2.94.29,5.87.59,8.95.73,1.03.15,1.91.15,2.94.29,0,0,1.03.15,1.17,0,0,0-1.32-.15-.73-.15,3.52.88,7.19,1.32,10.71,1.91,3.67.73,7.19,1.32,11.01,1.91,2.05.29,4.4-.59,4.55-2.79.29-2.05-1.76-4.11-3.67-4.55-6.75-1.17-13.5-2.35-20.4-3.67-7.78-1.32-14.97-.29-22.45-2.2-7.19-1.91-14.09-7.34-17.9-13.5-1.47-2.35-4.7-3.82-7.04-1.47-22.6,22.89-44.91,46.08-67.07,69.42-6.02,6.31-11.89,12.77-18.05,19.23-1.47,1.47-.73,3.96.73,5.14,21.57,15.12,25.83,44.32,29.06,68.39.44,4.26,8.22,4.7,7.48-.15h0Z"/><path class="cls-1" d="m467.3,443.06c1.61-8.66,6.16-16.14,12.47-22.16,3.23-2.94,6.6-5.43,10.42-7.19,1.76-.88,3.67-1.61,5.72-2.2,2.2-.73,5.58-.59,7.04-2.35,1.61-1.91.29-4.11-1.61-5.14-2.64-1.17-6.02-.15-8.66.73-2.35.59-4.55,1.61-6.75,2.64-4.55,2.2-8.66,5.14-12.33,8.51-7.34,6.75-12.18,16-13.94,25.98-.73,3.96,6.75,5.87,7.63,1.17h0Z"/><path class="cls-1" d="m466.71,436.6c3.52,7.04,13.8,9.69,20.25,4.99,2.94-2.05,4.7-5.28,4.55-8.66-.15-3.38-1.32-6.6-3.67-9.25-2.64-2.94-6.6-5.14-10.71-4.84-1.91.15-3.67,1.61-3.38,3.67.44,1.91,2.35,3.52,4.55,3.38h.88s-1.03-.15-.59,0h.29c.29,0,.44.15.73.15.29,0,.73.44-.44-.15.15.15.44.15.44.15.15.15.44.15.59.29,1.03.44-.88-.59-.15-.15.44.44.88.59,1.32,1.03-1.17-.88-.29-.29,0,0l.44.44c.15.15.29.29.44.73.29.29-.59-.88-.29-.29.15.15.29.29.15.44.15.44.29.88.59,1.47.15.44-.29-.88,0-.29v.29c0,.29,0,.59.15.73,0,.29,0,.59.15.73.15.44,0-.88,0-.29v.29c0,.59-.15,1.03-.29,1.76,0,0,.29-.88.15-.44q-.15.15-.15.44c0,.29-.15.44-.44.73-.15.15-.29.29-.15.44,0,0,.44-.73.29-.29l-.73.73c-.15.15-.88.88-.44.44s-.29.29-.59.29c-.15.15-.59.29-.73.44-.44.15-.59,0,.15-.15-.15.15-.44.15-.44.15-.29,0-.59.29-.88.29-.15.15-.29,0-.44.15-.73.15.73-.15.29,0-.59,0-1.32.15-1.91.15-.59,0,.29,0,.44.15-.29,0-.44-.15-.59,0-.29,0-.73-.15-1.17-.29-.29,0-.73-.44.44.15-.15-.15-.44-.15-.44-.15-.44-.15-.59-.29-1.03-.44-.44-.15-.44-.44.44.15-.15-.15-.29-.29-.59-.29l-.73-.73c1.03.73.15.15-.15-.15-.15-.15-.44-.73-.15-.15.29.59-.15-.15-.15-.44-.88-1.76-3.23-2.94-4.99-2.35-1.17.88-2.05,2.64-1.32,4.55h0Z"/><path class="cls-1" d="m530.4,380.25c1.61-7.19,5.72-13.65,11.15-18.49,5.72-5.14,12.33-7.34,19.67-8.81,1.76-.29,2.64-2.35,2.2-3.96-.59-1.76-2.49-3.08-4.4-2.94-8.66.44-17.32,4.99-23.63,10.71-6.46,5.87-11.01,13.65-12.77,22.16-1.03,3.96,6.75,5.87,7.78,1.32h0Z"/><path class="cls-1" d="m528.79,375.7c4.99,5.58,13.94,6.02,19.52,1.32,4.99-4.4,4.26-12.18.29-17.02-1.17-1.47-2.79-2.79-4.55-3.67-2.05-1.17-4.7-1.76-6.9-.44-2.05,1.17-1.47,3.82,0,4.99,1.03.73,2.2,1.03,3.38,1.61.15.15.59.29.59.29,0,0-1.03-.73-.44-.15l.29.29.44.44.29.29c.29.29-.73-.73-.29-.29.29.29.73.73.88,1.17l.15.15c.29.29-.44-.73-.29-.29.15.15.29.59.44.73s.15.44.29.59.29.88,0,.29c-.15-.73,0,.29.15.44,0,.29,0,.59.15.73,0,.29,0,.59.15.73,0,0,0-.88,0-.29v.29c0,.59-.29,1.17-.15,1.61,0,0,.29-.88.15-.44-.15.15,0,.29-.15.44s-.15.44-.29.59-.59.88-.15.44.15-.15,0,0l-.44.44-.59.59-.29.29c-.29.29.59-.29.15-.15-.59.29-1.03.73-1.47.88l-.44.15s.73-.15.44-.15c-.29,0-.44.15-.88.29-.29,0-.44.15-.73.15,0,0-.29,0-.44.15.59,0,.73-.15.44-.15h-.29c-.29,0-.59,0-.88,0-.15.15-.29,0-.29,0-.29,0-.73-.15.15.15-.44-.15-1.17-.29-1.76-.29-.44-.15.88.29.44.15-.15-.15-.44-.15-.44-.15-.15-.15-1.17-.59-.44-.15.59.29-.29-.29-.44-.44l-.29-.29c-.44-.44.59.59.15.15-1.32-1.32-3.52-2.35-5.28-1.17-1.17,1.17-1.61,3.38-.29,4.7h0Z"/><path class="cls-1" d="m465.09,444.97c.15-6.02-2.05-11.45-2.49-17.46-.44-6.02,2.79-12.18,6.6-16.58,3.96-4.55,8.81-6.75,14.82-6.9,2.35,0,4.99.29,7.19,1.03,2.64.88,3.96,1.91,5.58,3.52,1.32,1.32,3.08,2.2,5.14,1.32,1.61-.73,2.49-2.49,1.61-4.26-2.49-4.84-8.51-7.34-13.5-8.22-5.14-1.03-10.71-1.03-15.7.73-5.87,2.05-10.71,6.31-14.09,11.45-3.23,4.99-5.72,10.71-5.43,16.88.15,5.72,2.64,11.15,2.64,17.02,0,2.05,1.32,3.67,3.52,4.11,1.76.29,4.11-.59,4.11-2.64h0Z"/><path class="cls-1" d="m529.96,378.34c-2.35-4.7-3.38-10.13-3.23-15.26.29-4.7,1.47-9.98,5.14-13.36,7.04-6.46,18.79-2.94,25.24,2.35,1.61,1.32,4.11,1.47,5.72-.15,1.47-1.47.73-3.96-.73-5.14-7.63-6.16-18.64-9.54-28.18-6.75-10.42,3.08-14.97,13.21-14.82,23.63.15,5.72,1.17,11.74,3.96,16.88.88,1.76,3.08,2.79,4.99,2.35,1.76-.59,2.79-2.79,1.91-4.55h0Z"/><path class="cls-1" d="m504.87,431.32c2.49,7.48,7.93,14.97,16.58,15.12,3.38.15,7.04-1.17,9.54-3.67,2.49-2.49,2.79-5.43,2.79-8.66,0-.59,0-1.17.29-1.76.15-.44.44-.44.44-.44.59-.29,1.76-.29,2.94-.59,2.94-.29,6.16-.88,7.63-3.52,1.03-1.61.88-3.23.73-5.14,0-.29,0-.88,0-.59,0,0-.73.15.15-.15-.44.15.73-.15.73-.15,2.49-.73,5.43-.73,7.34-2.94,3.38-3.67-.15-8.66-2.05-12.03-1.17-2.35-2.35-4.4-3.52-6.75-1.17-2.35-2.2-4.84-4.11-6.75-1.17-1.17-2.79-1.91-4.4-1.47-1.32.44-2.35,1.76-2.05,3.23.73,3.67,3.23,7.04,4.99,10.27,1.61,2.79,2.79,6.02,4.55,8.66-.29-.29.73-.15,0,0,.29,0-.88.29-1.03.15-1.03.15-2.2.44-3.23.59-2.94.88-5.14,2.79-5.43,6.02-.15,1.03.29,2.05-.15,3.08,0-.29.15-.15.29-.29-.15.15-.59.29-.15.15-.29,0-1.32.44-.88.29-2.49.44-4.99.29-7.34,1.47-2.64,1.47-3.67,4.26-3.96,7.19-.15,2.2.15,4.26-1.76,5.58-6.02,3.96-10.27-4.4-11.89-9.25-1.03-3.96-8.51-2.64-7.04,2.35h0Z"/><path class="cls-1" d="m541.56,466.54c-.88-2.35-.15-5.14,1.32-6.9,2.05-2.64,4.7-2.35,7.63-3.23,3.82-.88,6.02-3.67,6.75-7.34.59-2.64,0-5.87,1.03-8.37,1.76-4.11,8.81-1.76,9.1,2.35.29,2.35-1.76,4.7-3.23,6.46-2.2,3.08-3.96,6.6-6.6,9.54-2.64,2.94-6.31,4.55-9.83,6.02-1.32.73-2.64,1.17-4.11,1.47.44-.15-.44.15-.59,0-.29,0-.44.15-.59,0q.29,0,0,0c-.73-.15.59.29-.15-.15l-.29-.29c-1.47-1.47-3.82-2.35-5.58-1.17-1.61,1.03-2.05,3.52-.59,4.99,3.23,3.52,7.48,4.55,12.03,3.23,1.91-.44,3.67-1.32,5.43-2.2,2.2-1.03,4.4-1.76,6.31-3.08,4.4-2.94,6.75-7.04,9.54-11.3,2.2-3.38,5.14-6.31,6.02-10.42,2.2-9.25-8.51-16.14-16.73-14.68-4.4.88-7.19,3.96-8.07,8.37-.29,1.76-.44,3.67-.44,5.43-.15,1.32-.15,3.08-1.47,3.82-1.61,1.03-4.26.73-6.16,1.47-2.2.73-4.26,2.2-5.72,4.26-3.08,3.96-3.96,8.95-1.91,13.65,1.47,4.11,8.66,2.79,6.9-1.91h0Z"/><path class="cls-1" d="m511.18,505.44c8.95,7.48,17.76,14.82,26.56,22.45,4.4,3.82,9.1,7.63,13.5,11.45,2.2,1.91,4.26,3.67,6.6,5.43,2.2,1.91,4.26,3.96,7.04,5.28,3.23,1.47,6.31-1.61,4.26-4.55-1.61-2.2-3.96-3.96-6.16-5.58-2.2-1.91-4.26-3.67-6.6-5.43-4.7-3.82-9.25-7.78-13.94-11.59-8.95-7.48-17.76-14.82-26.71-22.31-1.47-1.17-4.11-1.47-5.43.15-1.32,1.32-.59,3.52.88,4.7h0Z"/><path class="cls-1" d="m468.03,483.42c-.88,4.11-5.28,6.16-9.1,6.16-5.28.29-9.83-3.38-13.65-6.6-2.2-1.91-4.26-3.96-6.16-6.16-1.47-1.76-2.49-3.67-2.49-6.02.15-4.55,2.94-8.81,5.43-12.47,1.17-1.76.88-3.82-.73-5.14-1.32-1.03-4.55-1.61-5.72.15-2.94,4.11-5.72,8.37-6.6,13.36-1.17,5.87,1.17,11.15,5.14,15.41,7.78,8.07,17.91,17.32,30.23,14.38,5.72-1.32,10.42-5.43,11.59-11.3.59-4.4-6.9-6.31-7.93-1.76h0Z"/><path class="cls-1" d="m597.62,359.41c5.14-.44,9.25-3.67,11.3-8.66,2.2-5.14,1.47-10.86-1.03-15.7-2.79-5.43-7.04-9.69-11.3-13.94-3.82-4.11-8.07-9.83-14.09-10.57-3.23-.29-6.31,1.03-8.07,3.67-1.76,2.35-2.64,5.28-4.99,7.04-1.61,1.32-.59,4.11.88,5.28,1.76,1.47,3.96,1.32,5.72-.15,2.2-1.91,3.23-4.4,4.7-6.75.44-.73.88-1.17,1.47-1.76.29-.29.73-.15.88,0,2.2,1.32,3.82,3.52,5.58,5.28,2.2,2.2,4.55,4.55,6.6,6.9,3.23,3.52,7.04,8.22,6.9,13.36-.15,3.38-1.91,8.37-5.72,8.66-5.28.88-3.52,7.93,1.17,7.34h0Z"/><path class="cls-1" d="m608.33,404.17c10.13,6.9,20.55,13.5,30.97,20.11,5.14,3.38,10.42,6.6,15.56,9.98,2.49,1.61,4.99,3.23,7.48,4.84,2.64,1.76,5.28,4.11,8.37,5.14,1.47.59,3.38.73,4.55-.73,1.17-1.17,1.03-3.08-.15-4.26-2.05-2.35-4.99-3.82-7.48-5.43-2.64-1.76-5.14-3.38-7.78-5.14-5.14-3.38-10.42-6.6-15.56-9.98-10.42-6.6-20.69-13.36-30.97-20.11-1.76-1.17-4.26-1.61-5.72.15-1.47,1.76-1.03,4.26.73,5.43h0Z"/><path class="cls-1" d="m568.85,553.43c8.95-.73,17.02-4.99,24.22-10.42,7.78-6.02,14.97-13.21,21.72-20.25,14.53-14.82,27.74-30.97,39.48-48.28,6.6-9.83,12.92-19.96,18.49-30.23,2.35-4.11-5.43-7.78-7.63-3.52-9.69,17.61-20.84,34.34-33.32,50.05-12.18,15.41-25.83,30.23-40.65,43.29-6.6,5.72-14.53,11.3-23.48,12.03-5.28.59-3.52,7.63,1.17,7.34h0Z"/><path class="cls-1" d="m655,427.95c17.61-3.82,35.81-7.04,53.71-6.46,1.47,0,3.08.15,4.55.15.29,0,1.17,0,.73.15-.44-.15.59,0,.73.15.73.15,1.61.15,2.2.15,2.79.44,5.58.88,8.37,1.32,5.43,1.03,11.15,2.35,16.58,3.67,7.93,1.76,15.85,3.23,23.92,4.26,1.91.15,4.26-.44,4.55-2.79.29-2.05-1.76-4.11-3.67-4.55-7.34-1.17-14.68-2.35-22.01-3.82-5.72-1.32-11.45-2.64-17.17-3.67-13.06-2.49-26.27-2.79-39.48-1.61-12.18,1.32-24.36,3.52-36.4,6.16-1.91.44-2.79,2.79-2.05,4.4,1.17,2.05,3.38,2.79,5.43,2.49h0Z"/><path class="cls-1" d="m550.36,541.69c16.29,20.11,36.84,36.54,59.59,48.73,22.75,12.18,47.7,20.11,73.38,22.89,12.18,1.32,26.12,1.47,36.4-6.16,9.54-7.19,13.5-18.79,13.65-30.38.29-12.62-2.79-24.8-6.31-36.84-3.82-13.21-8.51-26.12-14.09-38.75-11.15-25.24-25.83-49.02-43.44-70.15-2.05-2.64-4.26-5.14-6.46-7.63-1.32-1.61-3.96-2.49-5.87-1.17-1.76,1.17-2.05,3.52-.73,5.14,17.32,19.67,32.14,41.53,43.88,65.02,5.87,11.74,10.86,23.78,15.12,36.25,3.96,11.59,7.63,23.78,9.25,36.25,1.32,10.13,1.32,21.87-4.84,30.67-6.6,9.54-18.2,11.74-29.21,11.3-12.03-.29-24.22-2.79-35.81-5.87-11.59-3.08-23.19-7.34-34.05-12.62-22.01-10.57-41.83-25.1-58.56-43-2.2-2.2-4.11-4.4-6.16-6.75-1.17-1.47-3.52-2.05-5.14-1.03-1.76.59-1.76,2.64-.59,4.11h0Z"/><path class="cls-1" d="m147.06,839.32c10.57,10.86,21.13,22.01,31.7,32.87,5.14,5.43,10.57,10.86,15.7,16.29,2.64,2.64,5.14,5.43,7.93,8.22s5.43,6.31,8.51,8.51c1.47.88,3.08,1.32,4.55.44,1.32-.73,1.91-2.49,1.03-3.96-2.05-3.23-5.14-6.02-7.93-8.81-2.64-2.64-4.99-5.28-7.63-7.93-5.28-5.58-10.71-11.01-16-16.58-10.57-10.86-21.28-21.87-31.85-32.73-1.47-1.47-3.52-2.35-5.58-1.17-1.47.88-1.91,3.38-.44,4.84h0Z"/><path class="cls-1" d="m158.21,972.58c-3.82,14.09-6.02,28.91-6.9,43.29-.15,2.2,1.61,3.96,3.67,4.55,1.91.44,4.4-.59,4.55-2.79.73-14.53,2.94-29.35,6.75-43.44.59-2.05-1.91-3.96-3.67-4.26-2.05-.59-3.82.59-4.4,2.64h0Z"/><path class="cls-1" d="m200.78,561.35c10.57,9.39,23.04,16.58,36.1,21.72,13.65,5.43,28.18,9.1,42.85,9.1,6.75,0,13.5-.88,19.81-2.79,7.34-2.35,14.09-6.46,20.25-10.86,10.86-7.93,19.81-18.64,23.78-31.7,3.52-11.45,3.38-23.34,2.2-35.08-.59-5.87-1.61-11.59-2.35-17.32-1.03-7.48-2.05-14.97-4.4-22.31-5.43-17.17-15.26-32.29-26.56-46.23-10.42-12.77-22.01-24.36-34.93-34.64-25.1-19.81-55.48-34.05-87.91-35.37-3.96-.15-7.78-.15-11.89.15-5.58.29-3.52,7.93,1.32,7.48,30.09-1.91,59.29,9.1,83.8,26.27,12.62,8.81,24.22,19.23,34.64,30.53,11.15,12.33,21.28,25.68,28.33,40.65,3.52,7.63,6.16,15.56,7.48,23.92,1.03,5.72,1.76,11.45,2.49,17.17,1.61,11.01,2.79,21.57,1.32,32.73-1.47,11.45-6.46,21.72-14.82,30.09-5.28,5.28-11.45,9.69-17.91,13.21-5.28,2.94-11.01,4.84-16.88,5.72-13.36,1.91-26.86-.44-39.48-4.26-12.77-3.96-25.1-10.13-35.81-17.9-2.35-1.76-4.84-3.67-7.04-5.58-1.47-1.17-4.11-1.47-5.43.15-1.32,1.91-.44,3.96,1.03,5.14h0Z"/><path class="cls-1" d="m336.24,484.3c1.76,1.17,3.52,2.94,4.99,4.4,3.67,3.38,7.34,6.75,11.15,9.98,8.22,7.34,16.29,14.82,24.51,22.45.73.73,1.61,1.61,2.35,2.35.29.29.73.73,1.03,1.03-.59-.59-.29-.29.29.29.44.44.73,1.03,1.32,1.32.73.44-.29-.88-.15-.44.29.59-.15-1.03-.15-.73.88-1.17,1.61-2.49,2.49-3.67-.88.29-1.76.88-2.2,1.91l1.32-1.32c.29,0,.59-.29.88-.29.59,0,1.47,0,2.05,0h0c-1.91-.15-4.26.44-4.55,2.79-.29,2.05,1.61,4.26,3.67,4.55,1.61.15,3.67-.15,4.26-1.91.88-2.05-.59-4.11-2.35-4.99h0l2.2,2.2c-.44-1.03-1.03-1.32-1.61-1.91,1.17,1.47,0,0-.29-.29l-3.82-3.82c-3.67-3.38-7.19-6.9-11.01-10.13-8.22-7.63-16.73-15.26-25.24-22.6-2.05-1.76-4.11-4.11-6.46-5.58-1.61-1.03-3.82-1.47-5.43.15-1.32.73-.88,3.23.73,4.26h0Z"/><path class="cls-1" d="m223.82,576.47c11.59,10.71,23.19,21.13,34.78,31.85,5.72,5.14,11.59,10.42,17.17,15.7,2.64,2.35,5.43,5.14,8.66,6.6,3.08,1.32,6.46,1.47,9.83,1.03,4.99-.59,9.83-1.32,14.68-2.94,6.75-2.05,13.36-5.43,19.08-9.39,11.15-7.63,20.69-17.17,29.35-27.3,3.08-3.67-3.52-8.51-6.46-4.99-7.63,8.81-15.7,17.17-24.95,24.07-3.23,2.35-6.6,4.55-10.27,6.46-1.47.88-2.94,1.47-4.55,2.2-.73.44.15-.15-.44.15-.44.15-.59.29-1.03.44-.59.29-1.47.59-2.05.88-4.11,1.47-8.51,2.35-13.06,3.08-1.76.29-3.38.44-5.14.44-3.08-.15-4.99-2.05-7.19-3.96-5.58-4.99-11.01-9.83-16.44-14.97-12.62-11.45-25.24-22.89-38.01-34.2-1.47-1.17-3.96-1.32-5.14.15-1.03,1.32-.15,3.38,1.17,4.7h0Z"/><path class="cls-1" d="m357.66,591.73c14.09-17.02,25.39-37.42,31.55-58.56.59-2.35,1.47-4.7,1.76-7.04.44-4.26-7.34-6.16-7.78-1.61,0,.59-.15,1.32-.44,1.91-.15.44-.29.88-.29,1.47,0,.29-.15.44-.15.73-.15.15,0,.29-.15.44-.15.44.15-.73.15-.15-1.03,3.38-2.05,6.75-3.38,10.13-3.82,10.27-8.66,20.11-14.38,29.35-3.82,6.46-8.37,12.77-13.21,18.49-3.08,3.67,3.52,8.22,6.31,4.84h0Z"/><path class="cls-1" d="m266.38,614.04c-3.67,6.6-7.63,13.21-11.3,19.81-3.67,6.6-7.93,12.92-11.15,19.96-.88,1.76.29,3.82,1.91,4.55,1.32.73,4.11,1.17,5.14-.44,4.4-6.46,7.78-13.36,11.59-20.11,3.82-6.75,7.63-13.5,11.3-20.11,2.2-4.26-5.14-7.48-7.48-3.67h0Z"/><path class="cls-1" d="m364.41,501.03c10.71-6.6,22.01-12.62,33.46-17.9,5.72-2.49,11.3-4.84,17.17-7.19,6.02-2.2,12.18-3.96,18.2-6.16,4.99-1.76,1.03-8.07-3.23-7.04-6.31,1.61-12.47,3.96-18.49,6.16-6.02,2.2-12.03,4.7-17.91,7.34-11.74,5.28-23.19,11.45-34.05,18.2-4.11,3.23,1.32,8.95,4.84,6.6h0Z"/><path class="cls-1" d="m548.9,470.36c4.26,6.02,12.92,8.51,19.96,6.16,3.67-1.32,6.6-3.67,8.37-7.19,1.61-3.08,2.05-7.04,1.47-10.57-.44-1.91-.88-3.82-1.91-5.43-1.17-2.05-2.94-4.4-5.28-5.28-1.47-.59-3.23-.59-4.4.59-1.17,1.17-.73,2.79,0,4.11.15.15,1.76,1.76,1.03,1.03l.88.88c.29.29.59.59.73,1.03-.44-.73.29.59.29.59.15.44.29.59.44,1.03.15.15.15.44.29.59q-.15-.44,0,0c.15.73.29,1.47.44,2.49.15.44,0,.59,0,0q0,.29,0,.59c0,.29,0,.88,0,1.17-.15.44-.15,1.03-.15,1.32-.15.73.15-.44-.15.44-.29.88-.59,1.47-1.03,2.2-.29.29-.15.44,0,0l-.44.44-.88.88c-.15.15-.88.88-.44.44-.29.29-.73.44-1.03.73s-.59.29-.88.59c.59-.29-.59.29-.73.15-.29,0-.73.15-.88.29-.29,0-.44.15-.73.15q.44-.15,0,0c-.88,0-1.61.15-2.35,0,.88,0-.29,0-.44-.15-.44-.15-.73-.15-1.17-.29q-.44-.15,0,0c-.15-.15-.44-.15-.59-.29-.44-.15-.59-.29-1.03-.44-.15-.15-.44-.15-.59-.29q.44.15,0,0c-.29-.29-.59-.29-.88-.59l-.44-.44q.29.29,0,0c-.29-.29-.59-.59-.88-1.17-1.03-1.61-3.67-2.2-5.28-1.17-2.64,1.76-2.35,3.82-1.32,5.43h0Z"/><path class="cls-1" d="m518.96,24.2c-22.16,3.08-41.68,15.85-54.89,33.76-13.5,18.2-19.52,40.07-18.79,62.52.73,22.16,7.78,43.88,19.23,62.67,12.33,20.55,29.5,38.01,50.34,49.75,20.11,11.3,43.29,16.29,66.19,12.77,21.57-3.38,42.41-13.65,56.36-30.82,13.5-16.73,18.79-38.45,17.76-59.73-1.17-23.19-9.98-44.91-23.63-63.55-15.26-21.13-36.25-38.6-58.41-52.25-8.66-5.43-18.35-8.66-28.18-11.15-8.95-2.2-18.35-3.96-27.59-3.82-1.76,0-3.67.15-5.58.59-.73.15-1.17.29-1.91.44-.29,0-.44.15-.73.15-.44.15-.59.29-1.03.44,0,0,.88-.29.15-.15-4.55,1.91-1.03,8.37,3.08,6.6.44-.15,1.03-.44,1.61-.44.29,0,.59,0,.73-.15.44-.15-.29,0-.29,0,.29,0,.44-.15.59,0,1.61-.15,3.23-.29,4.7-.29,4.11,0,7.63.29,11.74.88,9.25,1.32,18.49,3.52,27.15,7.19,10.13,3.96,18.35,9.83,27.3,16.44,10.13,7.48,19.67,15.56,28.18,24.95,15.41,16.58,27.3,36.4,31.85,58.85,3.82,19.37,2.35,39.92-6.6,57.68-9.1,18.2-25.68,31.26-44.91,37.57-19.96,6.46-41.53,6.02-61.2-1.61-20.84-7.93-38.75-22.31-52.39-40.07-12.77-16.58-21.87-36.25-25.39-57.09-3.52-20.55-1.47-41.97,7.93-60.76,9.1-18.2,24.66-33.76,43.88-40.95,4.7-1.76,9.54-3.08,14.53-3.96,4.55-.73,1.91-6.9-1.76-6.46h0Z"/><path class="cls-1" d="m446.31,122.68s.44.73.15.15c.29.29.29.59.59.88.44.73.73,1.32,1.17,2.05.88,1.76,1.76,3.52,2.79,5.43,2.05,3.82,4.4,7.63,7.04,11.15,6.9,9.54,13.94,18.93,21.13,28.47,1.76,2.35,7.93,2.05,6.9-1.91-5.58-20.84-8.66-42.41-8.66-64.14-2.49.15-5.14.15-7.48.15,8.07,15.7,18.64,30.09,30.82,42.56,1.32,1.32,3.38,2.2,5.14,1.32,1.76-.88,2.2-2.49,1.61-4.26-4.11-12.03-7.63-24.36-10.27-36.98-1.32-6.31-2.35-12.62-3.38-18.93-.44-3.08-.88-6.46-1.32-9.54,0-.29-.15-.73,0-1.17,0-.29-.15.15-.15.15.29-.29.73-.15,1.17-.29,1.47-.29,2.94-.29,4.4-.29,6.16,0,12.03,1.47,17.32,4.7,2.94,1.76,6.16-1.17,4.99-4.11-2.64-7.34-4.99-14.68-7.63-22.01-1.03,1.61-1.91,3.08-3.08,4.55,18.35-1.32,36.54,6.31,48.58,20.4,2.49,3.08,8.66,1.61,6.9-3.08-3.23-9.1-6.75-18.2-10.42-27.15-1.61-4.26-9.25-2.79-7.34,2.05,3.67,8.95,6.9,18.05,10.13,27.15,2.2-1.03,4.55-1.91,6.9-3.08-13.8-16.14-35.08-25.1-56.21-23.63-2.49.15-3.96,2.2-3.08,4.55,2.64,7.34,4.99,14.68,7.63,22.01,1.61-1.32,3.38-2.79,4.99-4.11-5.72-3.38-12.03-4.99-18.64-5.43-3.23-.29-6.9-.15-9.83.73-4.11,1.17-4.99,4.7-4.55,8.66,1.76,14.38,4.4,28.77,8.07,42.71,2.2,8.07,4.7,16.14,7.34,24.07,2.2-1.03,4.55-1.91,6.75-2.94-11.89-12.18-22.01-25.83-29.79-40.95-.88-1.47-2.49-2.49-4.26-2.49-1.47,0-3.23,1.17-3.38,2.79,0,22.31,3.08,44.47,8.95,65.9,2.35-.59,4.55-1.32,6.9-1.91-7.04-9.39-14.24-18.93-21.28-28.33-2.49-3.38-4.7-6.75-6.9-10.42-1.76-2.94-3.23-6.16-5.28-8.81-2.49-3.08-8.07-.44-5.43,3.38h0Z"/><path class="cls-1" d="m550.36,55.32c7.93,1.47,16,3.67,23.63,6.31,3.82,1.47,7.63,2.94,11.45,4.7,3.82,1.76,7.63,3.82,11.45,5.58,1.61.73,3.82.59,4.84-1.03.88-1.47.44-3.67-1.03-4.55-7.34-4.7-15.7-8.07-24.07-10.86-8.22-2.94-16.88-5.14-25.54-6.75-1.76-.29-4.11.59-4.4,2.64-.15,1.91,1.76,3.82,3.67,3.96h0Z"/><path class="cls-1" d="m470.08,220.72c-16.73-17.32-30.09-37.72-38.16-60.17-7.93-22.01-10.42-46.23-5.58-69.27,4.7-22.31,16.44-43.15,33.02-58.85,16.58-15.7,38.01-24.51,60.91-25.1,22.89-.59,45.5,6.46,65.02,18.05,24.22,14.24,43.44,35.81,59.29,58.41,7.78,11.3,14.97,22.89,21.43,34.93,5.58,10.57,10.42,21.87,12.62,33.76,2.35,12.03,1.76,24.36-2.35,36.1-4.11,11.74-10.86,22.6-18.79,32.29-14.09,17.02-32.14,30.67-52.54,39.04-20.25,8.22-42.27,11.45-63.84,8.37-5.43-.73-11.01-1.91-16.29-3.38-1.91-.44-4.26.73-4.55,2.79-.29,2.35,1.76,3.82,3.67,4.55,22.6,6.46,46.52,6.31,69.13.15,22.45-6.02,43-18.05,59.88-34.05,18.2-17.32,34.05-41.09,35.37-67.07,1.17-26.12-11.59-50.34-24.66-71.91-15.56-25.83-34.34-50.49-58.41-68.98-19.81-15.41-43.59-26.27-68.83-29.5-24.07-2.94-48.73,1.47-69.27,14.97-20.11,13.06-35.37,33.32-43.88,55.62-8.81,23.19-9.83,48.28-4.55,72.35,5.43,24.51,17.17,47.4,33.02,67.07,3.82,4.7,7.93,9.1,12.33,13.5,1.32,1.32,3.38,2.2,5.14,1.03,1.76-1.17,2.05-3.23.88-4.7h0Z"/><path class="cls-1" d="m670.41,205.01c1.47,17.02-.88,34.64-6.6,50.63-1.47,4.11,4.11,6.75,6.9,4.26,9.83-8.66,18.64-18.35,25.24-29.65,6.31-10.71,9.83-23.04,9.98-35.52.15-12.18-2.2-24.22-6.46-35.52-3.52-9.39-9.25-18.05-14.53-26.56-6.02-9.54-12.18-19.23-18.49-28.18-2.05-2.94-8.22-1.17-6.31,2.79,4.11,8.51,10.13,16.29,15.26,24.36,5.43,8.37,10.86,16.73,15.12,25.68,4.4,9.69,6.9,20.69,7.48,31.55.59,11.74-1.76,23.48-7.04,34.05-6.31,12.47-16,23.04-26.27,32.14,2.35,1.47,4.55,2.79,6.9,4.26,6.31-17.46,8.66-35.96,7.04-54.3-.88-4.7-8.81-4.99-8.22,0h0Z"/><path class="cls-1" d="m607.75,336.37c14.82-1.32,29.79,1.61,43.59,6.9,7.19,2.79,14.09,5.87,20.84,9.69,6.6,3.38,12.77,7.48,19.37,10.86,7.34,3.82,15.56,6.75,23.78,5.58,2.79-.44,4.55-3.08,2.64-5.58-24.36-30.53-52.83-57.82-84.68-80.57-9.1-6.46-18.49-12.62-27.88-18.49-1.76-1.17-4.26-1.61-5.72.15-1.47,1.47-.88,4.11.88,5.28,32.87,19.96,62.96,44.18,89.23,72.21,7.63,8.22,14.82,16.58,21.87,25.39.88-1.76,1.61-3.67,2.64-5.58-6.9,1.03-13.36-1.32-19.37-4.7-6.6-3.38-12.92-7.34-19.37-10.86-13.65-7.19-27.88-13.21-43-16-8.51-1.47-17.32-2.05-25.83-1.17-5.14.44-3.38,7.19,1.03,6.9h0Z"/><path class="cls-1" d="m564.89,161.72c2.49,6.02,5.28,11.74,8.66,17.46,2.79,4.55,6.16,11.74,12.47,11.59,2.49-.15,4.99-1.47,5.87-3.82.73-1.91.59-4.11.29-6.16-.15-1.03-.15-1.91-.29-2.94-.15-.73,0-.29-.15-.15,0-.29,0-.59,0-.59,0-.29.15-.44,0-.59,0,0,.29-.88.15-.44.15-.44,1.03-1.32,2.05-1.76,1.17-.59,2.49-1.03,3.82-1.47,5.28-2.05,10.13-7.48,6.31-13.06-1.03-1.61-3.82-2.05-5.58-1.17-1.76,1.17-1.76,3.23-.73,4.84-.15-.15-.29-.29-.15-.44.15-.44,0,.59,0,0h0q-.44,1.03-1.17,1.76c-1.03,1.03-2.49,1.61-4.26,2.2-2.35.88-4.99,2.05-6.6,4.26-1.32,1.91-1.76,3.82-1.76,6.16,0,1.76.44,3.38.44,5.14,0,.29.15.44,0,.59,0,0,0-.59,0,0,0,.29-.15.73-.15,1.03,0,.59.15-.44-.15.15,0,0-.15.44,0,0,0-.29-.29,0,.15-.15-.59.29,0,0,.29,0s.44.15.73.15c0,0-.59-.29-.29,0,.15.15-.73-.44-.88-.59.29.29-.59-.59-.59-.88-1.47-1.76-2.49-3.96-3.82-5.87-3.08-5.43-5.87-10.86-8.22-16.73-1.03-4.55-8.22-3.23-6.46,1.47h0Z"/><path class="cls-1" d="m598.65,212.5c-1.47-2.94-.88-6.46.88-9.1.88-1.17,1.91-2.2,3.23-2.94,1.91-1.03,3.96-1.03,5.72-2.49,2.79-2.49,2.2-5.72,1.32-8.95-.15-.73-.88-2.35-.15-3.08.44-.44,1.61-.73,2.2-1.03,1.03-.44,1.91-1.03,2.49-1.91,2.05-2.64,1.47-5.87,2.2-8.95.73-2.79,2.49-.73,3.23.88,1.76,3.23,1.91,7.48,1.61,11.01-.29,3.82-1.47,7.63-3.38,11.01-4.11,7.04-12.62,10.86-20.4,8.37-4.11-1.17-5.58,4.7-1.76,6.16,9.25,3.67,20.25.29,26.42-7.34,6.31-7.78,7.63-18.79,4.55-28.33-1.32-3.96-4.4-8.22-8.66-8.95-4.4-.88-7.19,2.49-8.07,6.6-.44,1.61-.15,3.38-.73,4.84-.59,2.05-3.23,2.35-4.7,3.82-2.35,2.64-.73,6.31-.73,9.54.15,2.2-3.08,2.2-4.84,3.08-2.2,1.03-3.96,2.79-5.28,4.7-2.79,4.26-3.38,9.54-1.32,14.24,1.61,3.96,7.93,2.64,6.16-1.17h0Z"/><path class="cls-1" d="m700.65,163.04c9.83-3.08,20.25-3.82,30.38-3.67,10.71.15,21.57,1.32,32.29,3.23,4.55.73,9.1,1.47,13.5,2.64,1.91.44,2.49.73,4.55,1.61,1.91.73,3.67,1.61,5.58,2.35,8.07,3.67,15.41,8.37,22.75,13.36,3.82,2.64,7.48,5.43,11.01,8.37.73.73,1.61,1.32,2.2,1.91.29.29.59.59,1.03,1.03l.44.44c.59.59-.15-.15.15.15,1.32,1.32,2.49,2.49,3.96,3.67,2.49,1.91,7.34.29,5.72-3.38-1.47-3.23-4.4-5.58-7.04-7.93-3.08-2.79-6.46-5.28-9.83-7.78-7.63-5.58-15.7-10.71-24.22-14.82-3.67-1.91-7.48-3.67-11.45-4.99-4.4-1.47-8.81-2.35-13.36-3.08-11.15-2.05-22.6-3.52-34.05-3.82-12.18-.44-24.95.29-36.69,4.11-4.84,1.32-1.17,7.93,3.08,6.6h0Z"/><path class="cls-1" d="m514.99,197.82c.73-8.37,3.08-16.29,8.37-22.75,5.28-6.75,12.62-11.45,20.25-15.26,1.91-1.03,1.76-3.52.59-4.99-1.47-1.76-3.67-2.2-5.72-1.32-8.22,4.11-16.44,9.39-22.16,16.88-5.72,7.48-8.66,16.58-9.39,25.83-.29,4.4,7.63,6.46,8.07,1.61h0Z"/><path class="cls-1" d="m575.9,132.51c.88-4.11,1.61-8.07,3.08-11.89,1.47-3.82,3.52-7.63,6.02-11.01,4.84-6.02,11.59-10.71,19.37-11.74,2.05-.29,3.67-1.61,3.38-3.67-.29-2.05-2.64-3.82-4.7-3.52-9.39,1.17-18.05,6.02-24.07,13.5-6.02,7.19-10.27,17.32-10.57,26.71-.29,4.11,6.31,6.02,7.48,1.61h0Z"/><path class="cls-1" d="m510.3,186.67c-.29,3.23,1.61,6.02,4.26,7.78,2.79,1.61,6.02,1.91,9.1.88,2.79-1.03,5.58-2.64,6.9-5.43,1.17-2.64.88-5.58-.15-8.37-1.17-3.23-3.96-5.72-6.6-7.78-.88-.59-1.91-1.03-3.08-1.03-.88,0-2.05.29-2.64,1.17-1.32,1.61-.73,3.96.73,5.14.44.44,1.03.73,1.32,1.03l.59.59.29.29q.29.29-.15-.15l.59.59.59.59.59.88c-.15-.15-.29-.29-.15-.44.15.15.29.29.15.44.15.44.29.88.59,1.17,0,.29.15.15-.15-.44.15.15,0,.29.15.44,0,.29.15.44,0,.59,0,.29.15.44.15.73,0,.29,0,0-.15-.44v.29c-.15.44,0,.88-.15,1.32,0-.29.15-.73.29-.88-.15.44-.44,1.03-.73,1.61.29-.29.29-.59.44-.73l-.59.59-.44.44c-.29.29.59-.29.15-.15-.59.29-1.17.59-1.61,1.03.15-.15.88-.29.29,0-.15.15-.29,0-.44.15-.29,0-.59.29-.88.29-.15.15-.29,0-.44.15-.44.15.73-.15.29,0-.29,0-.59,0-.88,0-.59,0,.29,0,.44.15,0,0-.29,0-.44-.15s-.29,0-.44-.15c-.59,0,.44.15.44.15-.15.15-1.17-.59-.44-.15.73.44-.15-.15-.29-.29-.29-.29-.29-.59.29.29l-.29-.29-.29-.29s.44.73.29.29q-.15-.15-.15-.44c-.29-.59.15.73,0,.29v-.29c-.15-.44,0,.88,0,.29.15-1.91-1.32-3.67-3.38-3.96-1.47-.59-3.67.15-3.96,2.2h0Z"/><path class="cls-1" d="m572.23,126.2c1.61,2.2,4.26,3.67,7.04,4.11,1.47.29,2.94.29,4.4-.29s2.64-1.17,3.82-2.35c1.91-1.91,2.79-4.55,2.64-7.34-.15-2.49-1.61-5.14-3.23-7.04-2.2-2.49-5.28-4.7-8.66-5.43-1.76-.29-3.82.59-4.26,2.2-.59,1.76.73,3.67,2.35,4.4.44.15,1.03.44,1.47.59.15.15.44.15.73.44.88.59-.73-.44,0,0,.44.44.88.59,1.32,1.03l.44.44c-.44-.44-.59-.59-.29-.29l.29.29c.29.29.73.73.88,1.17l.29.29c-.29-.59-.44-.73-.29-.29.15.15.15.44.29.59s.15.44.29.59,0,.29.15.44c-.29-.59-.15-.73,0-.29.15.44.15,1.03.29,1.47,0-.29,0-.59,0-.88,0,.59-.15,1.03-.15,1.61,0-.29.15-.73.29-.88-.15.73-.44,1.32-.88,1.76.29-.29.29-.59.44-.73-.29.59-.73,1.03-1.47,1.47l.59-.59c-.29.29-.59.29-.88.59-.59.29.29,0,.29,0l-.44.15c-.15.15-.29,0-.44.15-.44.15.88,0,.29,0h-.59c-.59,0,.73.15.29,0-.15-.15-.29,0-.44-.15s-.73-.15,0,0c.88.29-.59-.29-.59-.29,0,0,.88.59.29.29l-.29-.29c-.59-.29.59.59.15.15l-.44-.44c-1.17-1.47-3.67-2.2-5.28-1.17-1.91,1.03-1.91,3.08-.73,4.55h0Z"/><path class="cls-1" d="m491.8,197.23c3.38,2.2,7.34,3.82,11.3,4.26,2.05.29,4.26.44,6.6-.15,2.35-.59,4.4-2.05,5.28-4.11.73-1.91-.44-4.26-2.35-4.99-1.91-.73-4.4-.59-5.28,1.47-.15.15-.15.44-.29.59.29-.29.29-.59.59-.88l-.73.73.73-.73c-.29.29-.73.44-1.17.59.29,0,.59-.29.88-.29-.44.15-.73.15-1.17.29-.29,0-.88,0,.29,0h-.59c-.29,0-.73.15-1.17,0h-.59c-.88,0,1.03.15.29,0-1.61-.15-3.23-.59-4.84-1.03.44.15.73.15,1.03.44-1.76-.59-3.38-1.32-4.84-2.2.29.29.59.29.88.59l-.15-.15c-.88-.59-1.91-1.03-3.08-1.03-.88,0-1.91.44-2.64,1.17-1.03,1.61-.73,4.26,1.03,5.43h0Z"/><path class="cls-1" d="m495.62,187.55c2.2,2.49,5.14,4.26,8.51,4.7,1.76.29,3.52.29,5.28,0,.59,0,1.17-.29,1.61-.44,1.03-.44,2.35-.88,2.94-1.76,1.03-1.32,1.03-3.08,0-4.4-1.17-1.47-2.94-2.05-4.7-1.47-.73.15-1.47.59-2.05.88.29,0,.59-.29.88-.29-.88.29-1.47.59-2.35.59.29,0,.73-.15,1.03-.15-.73.15-1.61.15-2.49.15.29,0,.73.15,1.03.15-.73-.15-1.61-.15-2.35-.59.44.15.73.15,1.03.44-.88-.29-1.47-.59-2.2-1.03.29.29.59.29.88.59-.59-.29-1.17-.88-1.61-1.32l.73.73-.15-.15c-.73-.73-1.61-1.32-2.64-1.47-.88-.29-2.05,0-2.79.44-.73.44-1.32,1.32-1.32,2.2-.15.73.15,1.61.73,2.2h0Z"/><path class="cls-1" d="m603.34,96.85c.29,0,.73-.15,1.03-.15,0,0-.88,0-.44.15.88,0,2.05-.59,2.64-1.17.73-.73,1.03-1.91,1.17-2.94.29-1.76-.44-3.67-1.03-5.14-.44-1.61-1.03-3.08-1.76-4.7-.88-1.76-1.91-3.96-3.52-5.28-1.17-.88-2.94-1.17-4.26-.73-1.17.59-2.2,1.91-1.76,3.23.15,1.03.73,1.91,1.32,2.79.44.73.88,1.47,1.03,2.2.59,1.47,1.32,3.08,1.91,4.55,0-.29-.29-.59-.29-.88.44,1.03.73,2.2.73,3.38,0-.29,0-.59,0-.88,0,.29,0,.59-.15,1.03,0-.29.15-.44.29-.88-.29.59-.29,1.17-.59,1.76,0-.29.15-.44.15-.73l-.15.15,1.03-1.03c.44-.15.59-.29.29-.29-1.47.29-2.2,1.91-1.76,3.23,1.03,1.32,2.64,2.35,4.11,2.35h0Z"/><path class="cls-1" d="m587.64,86.43c.73,1.03,1.32,2.2,1.61,3.38,0-.29-.29-.59-.29-.88.44,1.32.73,2.79.73,4.26,0-.29,0-.59,0-.88,0,.88-.15,1.61,0,2.35-.15,1.32.59,2.64,1.61,3.38.59.29,1.17.88,2.05.88.73.15,1.32.15,2.05,0,1.17-.29,2.2-1.32,2.35-2.64.29-1.17,0-2.35,0-3.52,0-.88-.15-1.91-.44-2.79-.29-1.17-.73-2.2-1.03-3.38-.44-1.03-1.03-2.2-1.76-3.23-.44-.73-1.76-1.47-2.79-1.61-.73-.15-1.61-.15-2.35.29-.59.29-1.32.73-1.61,1.61-.59.88-.73,1.91-.15,2.79h0Z"/><path class="cls-1" d="m562.25,351.92c.88-.29,1.76-.59,2.64-1.17.44-.44,1.03-.73,1.47-1.17s.73-1.03,1.03-1.61c.44-.73.73-1.61.88-2.64.15-1.03.15-1.91-.15-2.79-.15-.44-.29-.88-.59-1.47-.15-.44-.59-.88-1.03-1.03-.88-.59-2.05-1.17-3.08-1.03-.88,0-2.05.29-2.64,1.17-.59.59-1.03,1.61-.73,2.79.15.44.15.73.15,1.03,0-.29,0-.59,0-.88,0,.59,0,.88-.15,1.32,0-.29.15-.73.29-.88-.15.44-.44,1.03-.59,1.47.29-.29.29-.59.44-.73-.29.29-.59.88-1.03,1.03l.59-.59c-.29.29-.73.44-1.03.73.29,0,.59-.29.88-.29-.15.15-.44.15-.59.29-.88.29-1.76.88-2.05,1.76s-.44,1.91.15,2.79c.88,1.47,3.08,2.49,5.14,1.91h0Z"/><path class="cls-1" d="m453.65,449.96c2.94.88,6.31,1.32,9.1-.29.59-.29,1.17-.88,1.61-1.32s.88-1.17,1.17-1.76c.44-1.03.44-1.91.44-2.79-.15-1.03-.59-2.05-1.03-2.79-.44-.73-1.76-1.47-2.79-1.61-.73-.15-1.61-.15-2.35.29-.59.29-1.32.73-1.61,1.61s-.29,1.76,0,2.64c.15.15,0,.29.15.44,0-.29-.29-.59-.29-.88,0,.29.15.44,0,.59,0-.29,0-.59,0-.88,0,.29,0,.59-.15.73,0-.29.29-.59.29-.88-.15.44-.29.59-.44,1.03.15-.15.29-.59.44-.73l-.88.88.59-.59c-.29.29-.59.29-.88.59.29,0,.59-.29.88-.29-.44.15-.73.15-1.17.29.29,0,.73-.15,1.03-.15-.44.15-1.03.15-1.47,0,.29,0,.59,0,1.03.15-1.03-.15-2.05-.29-3.08-.73-.88-.29-2.05,0-2.79.44s-1.32,1.32-1.47,2.35c0,.88.15,1.91.88,2.64l.73.73c.73-.15,1.47,0,2.05.29h0Z"/><path class="cls-1" d="m375.86,655.13c11.3-14.53,22.89-28.77,35.22-42.56,2.94-3.23-3.08-7.48-5.72-4.55-12.33,13.8-23.92,28.03-34.78,42.71-2.49,3.38,2.94,7.34,5.28,4.4h0Z"/><path class="cls-1" d="m401.25,648.82c4.11-4.4,8.37-8.66,12.33-13.21,2.49-3.08-2.64-6.46-5.14-3.96-4.26,4.26-8.22,8.81-12.18,13.36-2.64,2.64,2.49,6.31,4.99,3.82h0Z"/><path class="cls-1" d="m256.25,849.01c5.58,2.64,11.74,2.64,17.32.29,2.64-1.17,4.84-3.08,6.6-5.14,1.76-2.35,3.67-5.43,3.82-8.51.15-1.91-1.32-3.67-3.08-4.26-1.61-.44-4.11-.29-4.84,1.61-.15.44-.29.88-.29,1.47,0,0-.15.73-.15.44.15-.44-.15.44-.29.59,0,.29-.15.44-.29.59-.29.59-.44,1.03-.73,1.61-.15.15-.29.59-.44.73.29-.29,0,0-.15.15-.59.88-1.47,1.76-2.2,2.49-.88.88.15-.15-.29.29-.29.29-.59.29-.73.44-.59.29-.88.59-1.47.88,0,0-.59.29-.44.15.44-.15-.59.29-.44.15-.44.15-.88.29-1.61.44-.29,0-.44.15-.73.15-.44.15.59,0-.29,0-.59,0-1.03.15-1.61.15-.29,0-.59,0-.59,0-.29,0-.73-.15-.29,0-.59,0-1.03-.15-1.47-.29-.29,0-.44-.15-.73-.15-.44-.15-.73-.15,0,0-.59-.29-1.03-.44-1.61-.73-1.76-.88-4.55-.44-5.28,1.47-.88,2.05.59,4.11,2.35,4.99h0Z"/><path class="cls-1" d="m446.9,409.75c4.26-5.14,8.51-10.27,13.36-14.82,4.84-4.55,9.98-8.51,15.26-12.33,4.11-2.94-1.32-8.66-4.99-6.16-11.45,7.34-21.87,17.76-29.5,28.91-2.49,3.38,3.23,7.63,5.87,4.4h0Z"/><path class="cls-1" d="m507.21,352.36c4.84-3.96,9.69-7.93,14.82-11.89,4.99-3.82,10.42-7.48,15.26-11.45,3.96-3.08-1.32-8.66-4.99-6.16-11.01,7.19-21.43,15.85-31.41,24.36-1.61,1.32-.44,3.96.88,4.99,1.61,1.61,3.82,1.47,5.43.15h0Z"/><path class="cls-1" d="m503.84,169.35c3.82-5.87,8.51-11.45,13.94-16,2.49-2.2,5.28-4.11,8.22-5.87,1.61-1.03,3.23-1.76,4.84-2.49,1.61-.73,3.52-1.17,4.99-2.35,2.79-2.2.59-6.16-2.79-6.02-3.82.29-7.78,2.79-11.15,4.7-3.38,1.91-6.46,4.4-9.54,6.9-5.87,5.28-10.57,11.45-13.65,18.64-1.03,3.08,3.52,4.99,5.14,2.49h0Z"/><path class="cls-1" d="m562.54,117.4c2.79-10.42,7.78-19.81,15.26-27.59,3.23-3.23-3.08-7.78-6.16-4.7-8.22,8.51-13.94,19.23-16.29,30.97-.73,3.96,6.02,5.43,7.19,1.32h0Z"/><path class="cls-1" d="m576.19,205.89c2.49-2.49-2.49-6.31-4.99-3.82-2.35,2.64,2.49,6.31,4.99,3.82h0Z"/><path class="cls-1" d="m568.12,200.46s-.15.15,0,.29c-.15.44-.15.73-.29,1.17-.15.44,0,.88.15,1.32s.15.73.44,1.03c0,0,.15.15,0,.29.15.44.44.73.59.88l.29.29.88.88.29.29.15.15c.29.29.73.44,1.17.59.88.29,1.91.73,2.94.59.59,0,1.03-.15,1.47-.29.88-.29,1.17-.59,1.76-1.17.29-.29.73-.73.88-1.17,0,0,.15-.15,0-.29.15-.44.15-.73.29-1.17v-.29c0-.29.15-.73,0-1.17v-.29c-.15-.44-.15-.73-.44-1.03-.15-.44-.59-.88-.73-1.32l-1.03-1.03c-.44-.44-.88-.59-1.47-.88q-.15-.15-.44-.15c-.44-.15-.88-.29-1.17-.29-.73-.15-1.61-.15-2.35,0-.44.15-.88.29-1.47.59-.44.15-.73.44-.88.88-.29.29-.44.73-.59,1.17-.15.44,0,.88.15,1.32s.29.88.59,1.17c.73.73,1.61,1.32,2.35,1.47.29,0,.59,0,.88,0,.59,0,1.03-.15,1.61-.44h0c-.29,0-.59.29-.88.29.15-.15.29,0,.44-.15-.29,0-.59,0-.88,0,.15-.15.29,0,.29,0-.29,0-.59,0-.88,0q.29,0,.44.15c-.29,0-.59-.29-.88-.29.15.15.29,0,.44.15-.29-.29-.59-.29-.88-.59l.44.44-.73-.73.44.44c-.15-.15-.29-.59-.44-.73.15.15.15.44.29.59,0-.29-.15-.44-.29-.88.15.15.15.44,0,.59,0-.29,0-.59,0-.88v.59c0-.29.15-.44.29-.88-.15.15,0,.29-.15.44.15-.15.29-.59.44-.73l-.29.29c.15-.15.44-.44.59-.59q-.15.15-.44.15c.29,0,.59-.29.88-.29-.15.15-.29,0-.44.15.29,0,.59,0,1.03-.15-.15.15-.29,0-.29,0,.29,0,.59,0,.88,0q-.29,0-.44-.15c.29,0,.59.29.88.29-.15-.15-.44-.15-.59-.29.29.29.59.29.88.59l-.44-.44.73.73-.44-.44c.15.15.29.59.44.73-.15-.15-.29-.29-.15-.44,0,.29.15.44.29.88-.15-.15,0-.29-.15-.44,0,.29,0,.59,0,.88q0-.29.15-.44c0,.29-.15.44-.29.88q.15-.15.15-.44c.15-.44.29-.88.29-1.17.15-.44,0-.88-.29-1.17-.15-.44-.44-.73-.88-1.17-.29-.29-.73-.73-1.17-.88-.88-.29-1.91-.44-2.79-.15-.29,0-.59.29-.88.29-.15.73-.44,1.03-.73,1.61h0Z"/><path class="cls-1" d="m431.34,1028.79c1.76,9.39,3.96,18.64,7.19,27.74,3.08,8.66,6.02,17.17,8.37,25.98.59,2.05,2.49,3.67,4.7,3.52,1.91-.15,3.96-1.61,3.52-3.82-2.49-9.25-5.43-18.35-8.81-27.3-1.32-3.67-1.91-5.43-2.94-9.1-1.61-5.72-2.64-11.45-3.96-17.17-.88-4.4-9.1-4.7-8.07.15h0Z"/><path class="cls-1" d="m428.7,948.07c3.52-3.52-3.38-8.37-6.6-5.14-3.52,3.52,3.38,8.37,6.6,5.14h0Z"/><path class="cls-1" d="m153.81,1020.42c17.9,6.75,35.22,14.68,52.83,22.31,18.49,7.93,36.98,15.26,55.62,22.75,20.69,8.37,41.53,16.29,63.11,22.6,21.13,6.16,42.85,11.15,64.87,12.33,19.52,1.03,40.21-1.17,57.53-11.15,2.05-1.17,3.82-2.35,5.72-3.67,4.26-3.08-1.61-9.25-5.28-6.46-15.41,11.3-34.34,14.38-53.13,14.09-21.28-.44-42.27-4.99-62.67-10.42-20.99-5.72-41.24-13.06-61.49-21.28-18.64-7.48-37.28-14.68-55.77-22.6-19.52-8.37-38.89-17.17-58.56-24.51-1.76-.59-4.11-.59-4.99,1.47-.88,1.76.44,3.96,2.2,4.55h0Z"/><path class="cls-1" d="m744.53,683.31c26.56-19.23,45.94-46.52,60.47-75.73,14.09-28.47,22.89-59,33.17-88.94,5.28-15.56,10.57-31.7,11.15-48.14.15-2.2-1.61-3.96-3.67-4.55-1.91-.44-4.4.59-4.55,2.79-.88,14.38-4.55,28.03-9.1,41.68-4.7,14.09-9.1,28.18-13.94,42.12-10.27,30.23-22.45,60.03-41.24,86.15-10.42,14.53-22.75,27.74-37.13,38.3-4.26,3.08,1.17,8.81,4.84,6.31h0Z"/><path class="cls-1" d="m453.35,1085.44c31.7-16.44,62.52-34.64,91.73-55.04,29.21-20.4,56.8-43,81.45-68.54,23.48-24.66,45.94-50.05,67.22-76.61,20.99-26.27,40.8-53.71,58.7-82.19,17.17-27.44,32.58-56.06,44.76-85.86,1.47-3.52,2.94-7.34,4.4-10.86,1.76-4.4-6.02-8.07-7.63-3.52-11.45,29.65-25.83,58.12-42.12,85.56-17.17,28.91-36.54,56.21-57.24,82.77-20.69,26.56-42.85,52.25-65.9,76.76-23.92,25.68-49.9,48.73-78.37,69.57-28.77,20.84-59,39.33-90.26,56.21-3.82,2.05-7.78,4.26-11.74,6.16-4.11,1.76,1.17,7.34,4.99,5.58h0Z"/><path class="cls-1" d="m769.33,429.85c11.74-10.57,21.28-23.63,29.35-36.98,8.07-13.65,14.53-28.03,19.52-43,10.42-30.67,14.68-62.81,16.29-95.25.88-18.2,1.03-36.54.73-54.74-.15-2.2-1.47-4.11-3.67-4.55-1.76-.29-4.7.59-4.55,2.79.29,31.99,0,64.28-4.55,96.13-4.4,31.11-12.92,61.64-28.18,89.23-8.51,15.26-18.93,28.91-30.97,41.53-3.23,3.52,2.94,7.63,6.02,4.84h0Z"/><path class="cls-1" d="m441.17,1030.4c13.65-3.08,29.5-6.9,38.01-18.93,1.76-2.64,3.38-5.72,2.05-8.81-1.47-3.52-5.58-4.4-9.1-4.11-7.34.59-14.53,2.2-21.72,4.7,1.03,2.2,2.2,4.55,3.23,6.75,8.37-3.38,16.88-6.9,25.24-10.27,6.75-2.64,14.24-6.6,15.56-14.38.29-1.17-.59-2.64-1.61-3.38-6.31-4.26-13.65-4.26-20.84-2.35-6.31,1.61-12.92,4.99-19.52,4.26.29,2.35.73,4.55,1.17,7.04,8.07-3.38,16.14-6.75,24.22-10.13,3.96-1.61,7.78-3.38,11.74-4.99,3.96-1.61,7.78-3.08,11.74-4.99,2.64-1.47,5.43-3.67,5.87-6.75.73-4.26-2.79-7.48-6.75-8.51-3.96-1.03-8.07-.15-12.18.15-4.26.44-8.51.88-12.77,1.32-9.54,1.03-19.08,2.35-28.62,3.96,1.17,2.35,2.2,4.55,3.23,7.04,7.19-1.91,14.38-3.82,21.43-5.87,6.9-1.91,13.94-3.38,20.55-5.87,3.23-1.17,6.16-2.64,8.81-4.99,2.35-2.05,4.99-4.7,4.4-8.22-1.32-7.48-11.59-6.6-17.17-6.6-6.75,0-13.36.44-19.96,1.17-3.38.44-6.75.88-9.98,1.47-1.61.15-3.23.59-4.84.73l-1.76.29c-.15.44-1.76-1.47.59.59,1.47,1.17.44.44.59.29.15-.44.15-1.32.29-1.76,0-.88.29-1.76.59-2.64.44-1.91.59-3.82,1.03-5.72.73-3.67,1.17-7.34,1.91-11.01.59-3.52,1.17-6.75,1.76-10.27.44-3.08.44-6.31-1.17-9.1-3.67-6.31-12.18-7.19-18.2-4.11-6.9,3.38-9.1,11.74-10.71,18.64-.59,2.05,1.76,4.11,3.67,4.55,2.2.44,3.96-.73,4.55-2.79,1.17-4.7,2.49-11.01,7.19-13.65,1.47-.88,3.52-1.17,5.28-.59.15.15.59.29,1.03.73.44.73.59,1.47.59,2.35,0,2.94-.73,6.02-1.32,8.95-.59,3.23-1.03,6.31-1.61,9.54-.59,3.23-1.03,6.31-1.61,9.54-.59,2.94-1.47,6.16-.44,8.95,2.2,7.19,10.57,4.7,15.85,3.82,5.72-1.03,11.59-1.61,17.46-1.91,6.02-.44,11.89-.73,17.9-.29.44.15.88,0,1.32.15.44.15.29,0,.29,0,.59,0,.44.44.29,0,0-.29-.59-.88-.73-.73-.29,0-1.03,1.32-1.17,1.47-1.91,1.91-4.4,3.23-6.6,4.26-6.46,2.64-13.65,4.26-20.4,6.02-7.34,2.05-14.53,3.96-21.87,6.02-2.05.59-2.94,2.64-2.05,4.4.88,2.05,3.23,2.64,5.28,2.35,14.24-2.2,28.62-3.96,43.15-5.28,1.61-.15,3.38-.44,4.99-.29l1.47.29c0,.29-.73-.73-.44-.73s-1.03,1.32-1.32,1.61c-1.03.73-2.2,1.32-3.38,1.91-6.75,2.94-13.8,5.87-20.69,8.66-7.78,3.38-15.7,6.6-23.48,9.98-1.47.59-2.64,1.76-2.35,3.52.15,1.61,1.91,3.08,3.67,3.38,7.04.88,13.36-1.32,20.11-3.38,4.99-1.47,11.59-3.38,16.29-.15-.59-1.17-1.03-2.2-1.61-3.38-1.03,6.02-8.81,8.51-13.65,10.42-7.48,3.08-14.97,6.16-22.31,9.1-4.7,2.05-1.03,8.37,3.23,6.75,5.43-1.91,11.01-3.38,16.58-3.96,1.32-.15,2.94,0,4.26-.44h.29c-.15-.44-.29-.88-.88-1.17v.59c-1.32,2.2-2.64,4.11-4.55,6.02-8.22,7.93-20.4,10.71-31.26,13.36-1.91.44-2.64,2.35-1.76,4.11-.29.88,1.76,1.76,3.67,1.32h0Z"/><path class="cls-1" d="m422.24,943.96c-7.04,2.94-12.47,8.66-17.02,14.68-4.84,6.6-9.25,13.65-13.21,20.84-3.96,7.19-7.34,14.97-9.25,23.04-1.91,8.66-1.76,17.61-1.17,26.42.44,5.14.73,10.13,1.17,15.26.44,5.72.44,11.3,1.32,16.88.29,2.05,2.2,3.38,4.11,3.52,1.61.15,3.96-.73,3.96-2.79,0-4.7-.73-9.54-1.03-14.24s-.73-9.25-1.03-13.94c-.73-8.07-1.17-16.14,0-24.36,2.2-15.7,11.15-29.35,19.67-42.27,2.05-3.23,4.4-6.16,7.04-9.1,2.35-2.64,5.43-5.43,8.66-6.9,4.99-2.05,1.03-8.66-3.23-7.04h0Z"/><path class="cls-1" d="m259.63,983.88c31.7,8.51,63.84,16,96.13,22.45,9.1,1.76,18.2,3.52,27.44,5.14,2.05.29,4.26-.73,4.55-2.79s-1.76-4.11-3.67-4.55c-32.43-5.72-64.58-12.62-96.42-20.4-8.95-2.2-18.05-4.55-27-7.04-1.91-.44-4.11.59-4.4,2.64-.44,2.49,1.47,4.11,3.38,4.55h0Z"/><path class="cls-1" d="m533.78,601.42c11.15,10.27,24.36,18.49,38.89,23.63,3.23,1.17,7.34,2.35,10.57.29,3.52-2.35,2.64-6.46.59-9.39-2.2-3.08-4.84-6.02-7.48-8.95-2.79-3.08-5.72-6.02-8.66-8.66-6.46-6.16-13.8-11.74-21.28-16.58-1.61,1.61-3.23,3.52-4.84,5.14,7.04,4.4,14.53,8.37,22.01,12.03,3.82,1.76,7.63,3.52,11.59,5.14,3.08,1.32,6.46,2.35,9.83,1.91,3.52-.29,6.9-2.2,7.78-6.02.73-3.38-1.32-6.6-3.23-9.39-5.14-6.6-10.71-12.77-16.88-18.35-7.04-6.46-14.82-11.89-22.89-16.73-3.82-2.35-7.78,3.38-3.82,5.87,5.58,3.52,11.15,7.04,16.58,10.71,4.84,3.08,10.42,8.07,16.44,6.16,2.79-.73,4.99-2.94,5.28-5.87.44-2.79-1.17-5.28-2.79-7.48-3.52-4.7-7.19-9.54-11.15-14.09-4.55-5.14-9.54-10.42-15.41-14.24-1.61-1.03-4.11-1.47-5.58,0-1.47,1.47-.73,3.96.88,4.99,5.14,3.67,9.54,8.07,13.8,12.92,3.96,4.55,7.93,9.39,11.45,14.38.59.88,1.32,2.2-.29,2.05-1.03-.15-2.05-.88-2.94-1.47-1.32-.73-2.64-1.76-3.96-2.49-5.87-3.82-11.74-7.63-17.61-11.15-1.32,1.91-2.64,3.82-3.82,5.87,11.74,7.04,22.45,16,31.41,26.42,2.05,2.35,4.55,4.84,6.16,7.63.73,1.32,1.03,2.49-.59,2.94-2.35.59-5.14-.73-7.19-1.61-3.23-1.47-6.31-2.79-9.54-4.26-7.19-3.38-14.09-7.04-20.69-11.3-1.61-1.03-3.96-1.61-5.58,0-1.47,1.47-.73,3.96.88,4.99,11.3,7.48,21.87,16.29,30.82,26.42,1.17,1.17,2.2,2.49,3.08,3.67.59.59,1.03,1.32,1.61,1.91.15.15.44.73.59.88-.15-.15.44-.44.44-.44,0,0-.88,0-1.03-.15-1.47-.29-2.94-.88-4.4-1.47-6.02-2.2-11.74-4.99-17.17-8.37-6.31-3.67-11.89-8.07-17.32-12.92-1.32-1.32-3.96-1.32-5.43.15-1.32,1.91-.44,3.96.88,5.28h0Z"/><path class="cls-1" d="m547.72,612.72c.29,1.17.44,2.49.44,3.67,0-.29,0-.59,0-.88.15,4.55-.88,9.1-1.32,13.65-.29,2.05,1.61,3.96,3.67,4.26,1.76.29,4.11-.59,4.4-2.64.29-2.94.73-6.02,1.03-8.95.15-3.38.29-6.75-.73-10.13-.29-.88-1.32-1.61-2.05-2.05-.88-.29-1.61-.44-2.35-.29-.73.15-1.61.44-1.91,1.03-1.17.59-1.61,1.61-1.17,2.35h0Z"/><path class="cls-1" d="m500.46,593.05c2.35-9.39,4.4-18.79,7.19-28.03,1.47-4.7,2.94-9.39,4.99-13.8,2.2-4.84,5.28-9.69,8.81-13.8,2.2-2.79,4.7-5.28,7.63-7.34,3.08-2.2,6.31-3.38,9.83-4.84,1.91-.73,2.94-2.35,2.05-4.4-.88-2.05-3.23-2.64-5.28-2.35-6.75,1.17-13.06,6.02-17.76,10.71s-8.51,10.27-11.3,16c-4.84,9.54-7.34,20.25-9.83,30.67-1.17,5.28-2.35,10.57-3.52,15.85-1.03,3.96,6.16,5.58,7.19,1.32h0Z"/><path class="cls-1" d="m161.44,974.93c3.38,6.31,8.07,11.59,13.8,15.85,2.79,2.2,5.87,4.11,8.95,6.02,2.79,1.61,5.43,3.38,8.66,3.67,7.34.29,8.66-8.07,7.04-13.5-1.61-5.72-5.14-10.42-8.66-15.12-4.99-6.75-9.98-13.5-15.26-20.25-2.05,1.17-4.26,2.49-6.31,3.67,5.43,6.9,11.01,13.94,17.32,20.25,3.08,3.08,6.31,6.02,9.69,8.81,3.23,2.64,7.19,5.43,11.01,7.19,3.96,1.61,8.66,1.03,10.27-3.52,1.32-3.96-.15-8.37-1.47-12.03-1.47-3.82-3.52-7.34-5.72-10.71-2.35-3.82-4.7-7.63-7.04-11.45-5.43-8.66-11.45-17.02-17.61-25.24-2.2,1.32-4.26,2.49-6.46,3.82,6.6,7.78,13.21,15.26,20.4,22.45,3.52,3.52,7.04,7.04,10.71,10.71,3.08,3.08,6.16,6.46,10.42,7.78,4.26,1.32,8.66-.73,10.57-4.7,1.91-3.96.59-8.51-1.32-12.47-4.26-8.37-9.25-16.58-14.53-24.51-6.16-9.1-12.92-17.61-20.4-25.68-2.2,1.32-4.26,2.49-6.46,3.82,7.04,7.04,14.09,14.09,21.13,21.43,5.72,5.72,11.74,12.92,20.84,11.45.73-.15,1.91-1.03,2.05-1.76,2.64-9.1-2.05-17.32-7.78-24.22-7.48-9.25-15.41-18.05-23.04-27.15-1.32-1.61-3.82-2.35-5.72-1.32-1.76,1.17-2.05,3.52-.73,5.14,7.19,8.37,14.53,16.88,21.57,25.39,4.11,4.7,9.83,11.59,7.93,18.49.59-.59,1.47-1.17,2.05-1.76-2.05.29-4.11-1.47-5.72-2.79-2.79-2.49-5.43-5.43-8.07-8.07-6.16-6.16-12.33-12.33-18.35-18.64-1.47-1.47-3.82-2.35-5.72-1.32-1.76,1.17-2.05,3.52-.59,4.99,11.3,12.47,21.43,26.12,29.65,40.8,1.91,3.38,4.26,6.9,5.43,10.71.44,1.32.59,5.58-1.61,5.14-.73-.15-1.91-1.32-2.49-1.91-1.61-1.32-3.23-2.94-4.7-4.4-3.08-3.08-6.16-6.16-9.25-9.25-6.9-7.19-13.65-14.53-20.11-22.16-1.32-1.61-3.82-2.35-5.58-1.17-1.76,1.17-1.91,3.38-.59,4.99,9.39,12.33,18.05,25.1,25.68,38.6,1.61,2.79,3.23,5.87,4.11,8.81.44,1.32.88,2.94.73,4.26,0,.29,0,.88,0,.88,0,0,.73-.73.59,0l-1.03-.44c-6.46-3.23-12.18-8.37-17.17-13.36-6.16-6.16-11.45-12.92-16.73-19.67-2.79-3.67-9.54-.44-6.31,3.67,4.7,6.16,9.25,12.47,13.94,18.64,3.38,4.55,7.78,9.25,8.66,15.12.29,1.17.15,2.49-.15,3.67-.29.88-.15.73-.59.59-1.17-.29-2.49-1.32-3.52-2.05-1.61-1.03-3.08-1.91-4.7-2.94-6.02-3.96-11.45-8.81-14.97-15.26-.88-1.76-3.23-2.94-5.14-2.49-1.47.88-2.64,2.94-1.61,4.55h0Z"/><path class="cls-1" d="m168.05,972.14c-7.63-10.86-14.53-23.34-14.97-36.98-.29-7.04,1.32-14.24,3.52-20.84,2.49-7.48,5.14-14.82,8.81-21.72,1.91-3.67,4.11-7.34,6.9-10.71,2.35-2.94,4.7-5.87,8.66-6.6,2.05-.29,2.94-2.94,2.05-4.7-1.03-2.2-3.38-2.79-5.43-2.49-8.07,1.32-13.21,9.69-17.02,16.14-4.4,7.34-7.63,15.26-10.42,23.34-2.64,7.63-4.84,15.41-4.99,23.48-.15,7.78,1.47,15.26,4.26,22.16,3.08,8.07,7.63,15.26,12.62,22.31,2.49,3.96,8.95.73,6.02-3.38h0Z"/><path class="cls-1" d="m827.3,199.29c12.92,14.97,17.17,34.78,20.4,53.86,2.94,18.49,5.28,37.28,6.9,55.92,3.23,36.98,3.08,74.41-3.23,111.25-3.52,20.55-8.81,40.51-16.58,59.73-1.76,4.4,6.02,8.07,7.78,3.67,14.09-35.22,20.55-72.79,22.01-110.66,1.47-38.16-2.05-76.32-7.78-114.03-3.38-22.16-8.07-45.64-23.04-63.25-1.32-1.61-3.82-2.35-5.58-1.17-1.91.73-2.05,3.23-.88,4.7h0Z"/><path class="cls-1" d="m834.49,480.05c-4.26,5.43-8.37,10.71-12.62,16.14-2.05,2.64-3.96,5.14-6.02,7.78-.59.88-1.17,1.47-1.91,2.2-.29.29-1.91,1.32-2.05,1.17h.59c1.03.44.29.59.29,0,.15-1.03,0-2.35.15-3.38.44-2.79,1.17-5.58,2.2-8.37,2.05-5.87,4.7-11.45,8.07-16.58,1.17-1.76-.73-4.26-2.35-4.99-2.05-.88-4.11-.29-5.28,1.47-3.82,6.16-6.9,12.77-8.95,19.81-1.91,6.31-4.7,16.73,4.26,18.93,7.04,1.76,11.3-5.43,14.82-10.13,4.84-6.31,9.83-12.77,14.53-19.23,3.38-3.67-2.94-8.22-5.72-4.84h0Z"/><path class="cls-1" d="m803.82,499.56c-.44,1.61-2.05,2.64-3.67,2.2-.59,0-.73-.15-.88-.88-.59-1.17-.15-2.49,0-3.82.59-3.23,2.05-6.46,2.94-9.69,1.17-3.82,2.64-7.63,3.82-11.45-2.49-.73-4.84-1.61-7.34-2.35-1.61,6.6-4.11,12.92-7.78,18.64-1.91,2.79-3.96,5.43-6.16,7.93-.59.59-1.32,1.32-1.91,1.91l-.73.73c1.03-.15,1.76,0,2.35.59,0,.29-.44-1.03-.29-.88-.15-.44-.15-1.03-.15-1.61-.15-12.77,6.9-24.51,12.92-35.22-2.49-1.03-4.84-2.2-7.48-3.38-3.08,6.9-7.04,13.5-11.59,19.52-1.76,2.35-3.67,5.14-6.16,6.46-.59.29-1.32.73-1.61.44-.59-.59-.88-1.47-.88-2.35-.88-5.28,2.49-10.71,4.99-14.97,3.08-5.14,6.02-10.13,6.75-16.14.44-2.49-2.35-4.4-4.7-4.4-6.9.15-13.8.29-20.69.44-5.72.15-11.59.73-17.02-.88-.88-.29-1.91-.73-2.94-1.17-.44-.15-.73-.44-1.03-.73-.59-.29-.15-.44-.15-.15.88-1.76,3.67-2.79,5.43-3.67,5.14-2.79,10.71-4.55,15.85-6.75,6.16-2.64,11.89-5.72,16.58-10.71,3.23-3.52-3.52-8.51-6.6-5.14-8.95,9.54-23.04,11.3-33.9,18.05-2.49,1.61-5.28,3.82-5.43,7.19-.15,3.67,2.94,6.46,5.87,7.93,5.87,3.23,12.77,3.38,19.23,3.38,8.66-.15,17.46-.44,26.27-.73-1.47-1.47-2.94-2.94-4.7-4.4-1.32,10.42-11.01,17.76-12.03,28.47-.59,6.46,2.79,13.65,10.13,13.94,6.02.15,10.13-5.14,13.36-9.54,4.84-6.6,8.95-13.36,12.33-20.84,1.91-4.26-5.14-7.19-7.48-3.38-5.87,10.57-12.03,21.43-13.06,33.61-.29,2.94-.44,6.02.59,8.81,1.17,2.94,3.82,5.28,7.04,4.99,3.38-.15,5.72-3.38,7.78-5.72,2.2-2.49,4.11-5.28,6.02-8.07,3.96-6.31,6.9-13.36,8.37-20.69.73-3.67-6.16-6.16-7.34-2.35-1.61,5.14-3.38,10.42-4.99,15.56-1.32,4.26-3.38,8.66-2.05,13.21,1.17,4.4,5.14,7.19,9.69,7.04,3.82,0,7.93-2.05,9.1-5.87.59-1.76-.29-3.82-2.2-4.55-1.03-.73-3.82-.59-4.4,1.47h0Z"/><path class="cls-1" d="m790.47,403.73c20.25,8.22,39.77,18.35,57.97,30.38,1.76,1.17,4.26,1.61,5.72-.15,1.47-1.47.88-4.11-.88-5.28-18.93-12.47-38.89-23.04-60.17-31.41-1.76-.59-4.26-.44-4.99,1.47-.59,2.05.59,4.4,2.35,4.99h0Z"/><path class="cls-1" d="m743.06,251.54c5.58-.59,10.86.88,16,2.49,5.58,1.76,11.15,4.11,16.58,6.6,11.01,5.14,21.28,11.59,30.67,19.23,5.14,4.26,10.13,8.95,14.82,13.94,1.47,1.47,3.82,2.35,5.87,1.17,1.76-1.17,2.05-3.52.73-5.14-17.76-19.23-40.21-33.76-64.87-41.97-6.6-2.2-13.65-4.26-20.84-3.52-1.91.15-3.67,1.61-3.38,3.67.29,2.05,2.35,3.82,4.4,3.52h0Z"/><path class="cls-1" d="m318.48,771.81c.44-1.61,1.32-3.08,1.76-4.7.59-1.76,1.03-3.67,1.47-5.58.88-3.52,1.61-6.9,2.2-10.42.73-3.38,1.17-6.75,1.91-10.13.29-1.76.59-3.52.73-5.43.29-1.76.73-3.96.44-5.72-.88-3.23-5.43-4.55-7.19-1.61-.88,1.47-.88,3.52-1.17,5.28-.29,1.76-.44,3.67-.73,5.43-.59,3.52-1.17,7.04-1.76,10.57-.73,3.38-1.17,6.75-2.05,10.27-.29,1.76-.73,3.67-1.17,5.28-.29,1.76-.44,3.67-1.03,5.43-.44,1.61,1.47,3.23,2.94,3.52,1.91.44,3.38-.44,3.67-2.2h0Z"/><path class="cls-1" d="m450.12,922.53c4.84,6.9,10.57,12.92,17.02,18.2,1.47,1.17,3.67,1.32,5.14-.15,1.32-1.32.59-3.52-.73-4.55-6.16-4.7-11.45-10.27-16-16.58-1.03-1.32-3.38-1.91-4.84-1.03-1.61,1.03-1.47,2.94-.59,4.11h0Z"/><path class="cls-1" d="m489.9,933.83c-6.31-11.59-13.8-22.31-22.89-31.99-1.47-1.47-3.67-2.2-5.58-1.17-1.61,1.03-1.91,3.38-.73,4.84,8.51,9.1,15.85,19.37,22.01,30.23.88,1.76,2.94,2.94,4.99,2.35,1.91-.44,3.08-2.49,2.2-4.26h0Z"/><path class="cls-1" d="m480.21,930.02c2.79,4.84,8.66,3.38,12.62.59,2.05-1.47,3.52-3.23,4.26-5.72.73-2.79-.15-5.72-1.17-8.22-2.79-6.31-6.6-12.47-10.13-18.35-3.82-6.16-7.78-12.47-12.47-18.05-2.94-3.52-9.25-.73-6.16,3.82,3.23,4.7,6.9,9.25,9.98,14.09,3.08,4.55,5.87,9.39,8.51,14.38,1.17,2.05,2.35,4.4,3.38,6.6.59,1.47,1.03,3.08.44,4.55.29-.59-.29.29-.29.29l-.73.73c-.44.44-.88.88-1.47,1.17-.73.44-1.03.44-1.76.88-.44.15-.29,0,.29,0,.44.15,1.76,1.47,1.17.59-2.2-3.08-8.66-1.03-6.46,2.64h0Z"/><path class="cls-1" d="m490.34,910.5c2.94.88,5.28,2.94,8.37,3.08,2.94.29,6.31-.73,7.78-3.67,1.32-2.79.15-6.31-.88-9.1-.88-2.64-2.35-5.28-3.82-7.63-3.23-5.28-7.48-10.13-10.86-15.26-1.32-2.2-3.08-4.55-3.23-7.04-.29-2.64,1.61-5.14,2.79-7.19,3.96-6.6,6.75-13.8,8.66-21.28.59-2.05-1.91-3.96-3.67-4.55-2.2-.44-3.96.73-4.55,2.79-1.47,5.87-3.67,11.59-6.75,17.02-2.79,5.14-6.02,9.54-4.11,15.56,3.23,10.57,13.06,17.76,17.46,28.03.44,1.32.88,2.64,1.17,4.11.15.44.29,1.17.15,1.61.15-.44,0,0-.44.15-1.03.15-1.76-.29-2.64-.59-1.61-.73-3.23-1.47-4.84-1.91-1.61-.44-3.82.59-3.96,2.49,0,1.47,1.76,2.94,3.38,3.38h0Z"/><path class="cls-1" d="m464.65,849.3c-5.87,4.4-14.09,4.99-20.4,8.37-7.04,3.52-12.62,9.69-17.32,16.14-8.51,11.74-14.97,25.83-12.92,40.8,1.03,8.07,4.84,16,10.86,21.43,3.08,2.79,8.66-1.03,5.58-4.4-9.1-9.39-10.57-22.89-6.31-35.08,2.2-6.31,5.58-12.33,9.54-17.76,4.11-5.87,9.1-11.15,15.41-14.82,3.23-1.76,6.9-2.79,10.27-4.11,3.82-1.47,7.34-3.23,10.13-6.02,2.2-2.5-2.35-6.46-4.84-4.55h0Z"/><path class="cls-1" d="m430.9,944.11c-.44-10.42,2.05-20.25,5.87-29.65,1.76-4.11-5.43-7.48-7.34-3.23-4.99,10.27-6.75,22.01-6.31,33.32,0,2.05,2.49,3.38,4.4,3.23,2.35-.29,3.52-1.76,3.38-3.67h0Z"/><path class="cls-1" d="m467.88,854.88c3.67-3.38,7.34-6.46,10.86-9.98,3.38-3.38,6.9-6.9,10.42-10.13,3.23-3.23-3.08-7.78-6.16-4.7-3.23,3.52-6.75,7.04-9.98,10.57-3.23,3.52-6.31,7.19-9.69,10.86-2.35,2.35,2.2,5.43,4.55,3.38h0Z"/><path class="cls-1" d="m186.83,569.13c4.7,4.99,10.27,10.57,17.61,11.45,6.02.73,13.65-1.61,15.56-7.93.59-1.76-.29-3.82-2.2-4.55-1.47-.59-4.4-.59-4.99,1.47-.15.44-.44,1.03-.73,1.61-.44.73.44-.44-.15.15-.15.15-.44.44-.59.59l-.59.59c.29-.29.15-.15,0,0-.44.15-.88.59-1.32.73-.73.44.44-.15-.15.15-.29,0-.59.29-.88.29-.29,0-.44.15-.88.29-.15.15-1.03.15-.29,0-.59,0-1.03.15-1.61.15,0,0-1.17,0-.59,0,.59,0-.44-.15-.59,0-.59,0-1.17-.29-1.61-.44.88.29-.44-.15-.44-.15-.44-.15-.59-.29-1.03-.44-.44-.15-.59-.29-1.03-.44-.15-.15-1.03-.73-.44-.15-.59-.29-1.03-.73-1.61-1.03-1.17-.88-2.2-1.61-3.23-2.64l-.73-.73c-.59-.59.29.29-.29-.29l-1.61-1.61c-1.32-1.32-3.52-2.35-5.28-1.17-1.17.59-1.61,2.79-.29,4.11h0Z"/><path class="cls-1" d="m309.67,409.89c4.26,4.84,8.51,9.69,12.33,14.97,1.32,1.91,2.94,3.82,2.94,6.16,0,.59-.15,1.32-.59,2.35-.15.44-.29.59-.59.88,0,0-1.17.59-.73.44-1.61.73-2.64,2.05-2.2,3.96.44,1.61,2.49,3.08,4.4,2.94,3.96-.44,6.46-3.23,7.34-7.04.73-3.38-.44-6.9-2.05-9.69-4.11-6.75-9.69-12.62-14.97-18.2-1.32-1.32-3.38-2.2-5.28-1.17-1.47.88-1.91,3.08-.59,4.4h0Z"/><path class="cls-1" d="m412.7,784.14c-.88-.88-1.47-1.76-2.2-2.79-.73-1.03-1.47-1.76-2.2-2.79-.44-.44-.59-.88-1.03-1.32,0,0-.59-.88-.29-.29-.15-.15-.15-.44-.29-.59-.29-.59-.59-1.17-.73-1.61,0-.29-.29-.59-.29-.88-.15-.15-.29-.88-.15-.15-.29-.88-.44-1.91-.59-2.94,0-.59-.15.73,0-.29,0-.29,0-.59.15-.73.15-.44,0-.88.15-1.32,0,0,.29-.88.15-.44-.15.44.15-.44.15-.44.15-.44.29-.88.73-1.32.15-.44.15-.15,0,0,.15-.15.29-.29.59-.59l.59-.59c.15-.15.73-.73.15-.15,1.47-1.17,2.05-3.23.73-4.84-1.17-1.47-3.96-2.49-5.58-1.17-2.49,1.91-3.82,4.11-4.55,7.19-.59,2.35-.59,4.99.15,7.48.88,2.94,2.2,5.72,4.11,8.22,1.91,2.49,4.26,4.26,6.6,6.31,1.03,1.03,3.08,1.03,4.26.15.29-1.47.44-3.08-.59-4.11h0Z"/><path class="cls-1" d="m402.72,763.88c-13.94-9.54-28.03-18.64-41.97-28.18-6.46-4.4-12.77-9.25-17.32-15.56-3.67-5.14-6.6-11.01-8.37-17.17-3.82-12.92-4.26-26.56-3.96-40.07.15-5.43.15-11.01,1.61-16,1.76-5.28,4.26-10.42,7.04-15.26,6.6-11.59,14.97-22.01,22.89-32.58,2.94-3.82-3.67-8.66-6.6-5.14-7.78,9.83-15.26,19.96-21.87,30.67-3.08,5.14-6.02,10.42-8.07,16-2.05,5.28-2.94,10.57-3.08,16-.44,14.24-.44,28.62,2.79,42.41,1.76,6.75,3.96,13.36,7.63,19.37,4.11,7.04,9.54,12.77,16,17.76,7.63,5.87,15.85,10.86,23.78,16.14,8.37,5.43,16.58,11.01,24.95,16.44,1.61,1.03,3.82,1.47,5.14-.15,1.47-1.47.88-3.82-.59-4.7h0Z"/><path class="cls-1" d="m557.41,640.31c2.49-2.49-2.49-6.31-4.99-3.82s2.64,6.16,4.99,3.82h0Z"/><path class="cls-1" d="m554.62,634.88c-2.64-1.47-5.28-2.64-7.93-4.11-2.35-1.17-4.7-2.64-7.34-3.52-2.79-1.03-5.87-1.76-8.81-.59-2.79,1.03-5.28,3.23-5.72,6.31-.59,4.4,6.9,6.31,8.07,1.61.15-.73-.29.29,0,0,.15-.15.44-.73,0,0l.44-.44c.15-.15.59-.59.29-.29-.44.15.44-.15.44-.15.29-.29.15-.15,0,0,.15-.15.44-.15.73-.15,0,0,.73-.15.29,0-.59,0,.29,0,.29,0,.73-.15-.44-.15,0,0s1.03.15,1.47.29c.73.15-.44-.15,0,0,.15.15.44.15.59.29.44.15,1.03.44,1.47.59,4.4,2.05,8.81,4.4,13.21,6.75,1.61.73,4.26.44,4.99-1.47.44-2.49-.73-4.26-2.5-5.14h0Z"/><path class="cls-1" d="m533.04,626.51c-5.43-6.9-11.74-12.62-17.76-18.93-5.43-5.72-10.27-12.03-16.14-17.32-5.87-5.28-12.47-10.13-18.79-14.97-3.23-2.35-6.46-4.7-9.83-7.19-2.49-1.91-4.84-3.96-7.48-5.72-11.74-7.34-27.3-8.81-41.09-8.51-5.72.15-12.03.59-17.61,2.35-5.72,1.91-10.86,5.28-15.41,8.95-12.33,9.39-23.19,20.25-34.64,30.53-3.23,2.94,2.64,7.93,5.58,5.58,10.42-8.07,19.67-17.9,29.94-26.42,4.7-3.82,9.54-7.48,14.82-10.13,4.11-2.05,8.95-2.79,13.8-3.23,6.6-.44,13.21-.29,19.67.59,6.46.88,12.62,2.05,18.2,4.7.59.29,1.17.59,1.61.73,1.32.73-.29-.29.44.15.29.29.59.29.88.59,1.17.88,2.35,1.76,3.67,2.79,2.79,2.2,5.72,4.26,8.51,6.46,6.46,4.7,12.92,9.39,19.08,14.68,2.94,2.35,5.87,4.99,8.51,7.93,2.79,3.08,5.43,6.31,8.22,9.39,6.6,6.9,13.65,13.06,19.67,20.55,2.94,3.82,9.39.59,6.16-3.52h0Z"/><path class="cls-1" d="m510.88,759.63c2.05-3.52,4.11-7.04,6.16-10.57.88-1.47,1.91-2.79,3.52-3.52,1.76-.88,3.08-1.61,4.11-3.23,2.2-3.08,3.96-6.31,6.31-9.25,1.17-1.47,2.49-3.08,3.82-4.4s2.94-2.64,4.11-4.11c2.49-3.08-2.2-7.19-5.14-5.14-3.38,2.2-6.02,5.72-8.51,8.81-2.64,3.23-4.4,6.75-6.75,10.27-.88,1.47-2.49,1.61-3.96,2.49-1.61,1.32-2.79,2.79-3.67,4.55-2.2,3.67-4.11,7.63-6.16,11.45-2.05,3.23,4.26,6.02,6.16,2.64h0Z"/><path class="cls-1" d="m508.1,760.95c4.11,1.47,8.07.73,11.45-1.76,3.96-2.79,7.48-6.31,10.71-9.83,3.23-3.52,6.16-7.34,7.93-11.74,1.61-3.67,3.67-9.83,1.47-13.5-1.03-1.91-4.7-3.23-5.87-.59-.73,1.61-.44,3.67-.73,5.43-.15,1.61-.59,3.23-1.17,4.7-1.32,3.67-3.52,7.04-5.87,9.98-2.64,3.23-5.87,6.16-9.1,8.81-1.47,1.17-4.7,4.11-6.9,3.38-1.47-.59-3.23-.29-3.96,1.03-.44,1.91.73,3.67,2.05,4.11h0Z"/><path class="cls-1" d="m512.06,764.62c5.72,1.91,11.15,1.17,16.58-1.32,5.28-2.64,10.42-6.6,13.94-11.3,3.67-4.84,5.58-10.57,5.28-16.73-.29-5.58-2.79-11.89-7.48-14.82-1.47-.88-3.38-1.32-4.84-.15-1.32,1.03-1.47,2.94-.15,4.26,2.94,3.23,4.84,6.6,4.99,10.86.29,4.4-1.47,8.81-4.11,12.33-2.94,3.82-6.75,7.04-10.86,9.39-3.38,1.91-7.78,3.67-11.74,2.35-3.52-.88-4.84,3.96-1.61,5.14h0Z"/><path class="cls-1" d="m492.69,720.3c-2.94,2.94-5.72,5.72-8.37,8.95-4.4,5.28-8.95,10.71-12.03,17.02-1.17,2.35-2.05,4.99-1.76,7.63.59,3.82,4.4,7.63,7.34,9.98,3.52,2.94,8.37,4.84,13.21,4.4,4.11-.59,7.34-2.64,10.42-5.14,6.9-5.43,13.06-11.59,18.64-18.05,6.02-6.6,11.74-13.8,16.29-21.57,1.61-2.79,3.23-5.58,4.26-8.66,1.61-4.84,1.32-9.54-.59-14.38-1.03-2.49-2.49-4.55-3.82-6.75-1.17-1.76-2.2-3.38-3.67-4.84-2.49-2.2-5.87-2.64-8.95-1.91-6.31,1.61-11.45,7.63-15.56,12.33-4.7,5.58-8.95,11.59-13.36,17.46-.73,1.03-1.47,2.05-2.49,3.08-2.94,3.82,3.52,8.51,6.6,5.14,3.96-4.55,7.34-9.69,11.01-14.53,2.05-2.64,4.26-5.43,6.6-8.07,1.17-1.17,2.05-2.35,3.23-3.52.59-.59,1.03-1.03,1.61-1.61l.73-.73q.29-.29,0,0l.44-.44c1.03-.73,1.91-1.32,3.08-1.91.73-.44-.73.15,0,0,.29,0,.44-.15.73-.15s1.03-.15,0,0c.29,0,.59,0,.88,0-.88.29-.59,0,.15.15-1.03-.15-.73-.15-.29,0-1.03-.44-.59-.29-.15-.15.29.29.44.73,0,0l.59.59c.73,1.03,1.47,2.05,2.05,2.94,2.2,3.38,4.11,7.04,3.67,11.3,0,.59-.15,1.32-.29,1.76-.29.88.15-.73-.15.15-.29.59-.29,1.17-.59,1.76-.44,1.32-1.17,2.64-1.76,3.82-3.52,6.75-8.07,12.77-12.92,18.79-5.14,6.31-10.71,12.47-16.73,17.9-2.49,2.2-4.55,4.26-7.04,5.87-2.64,2.05-5.14,2.79-7.93,1.76-3.23-1.17-5.87-3.82-7.63-6.75-.15-.15-.15-.44-.44-.73.44.73,0,.59.15.15-.15-.73-.29.59,0-.29.15-.44,0-.88.15-1.32-.29.88,0,0,.15-.15.15-.44.15-.73.44-1.03,2.49-6.02,6.75-11.15,11.15-16.44,2.79-3.38,5.43-6.6,8.37-9.83,2.79-2.79-2.79-6.6-5.43-3.96Z"/><path class="cls-1" d="m244.07,473.44c4.26,1.03,7.63,4.7,10.86,7.34,4.26,3.67,9.1,6.75,14.24,9.25,1.91,1.03,4.4,1.76,5.87,3.52.73.73,1.32,2.49.44,3.38-.44.44-1.61.44-2.35.59-1.17.29-2.35.88-3.23,1.76-.88.88-1.32,1.91-1.47,3.23-.15.44,0,.88-.15,1.32-.15.15,0,.29-.15.44-.15,1.03.15.73,1.03-1.03.59,0,1.47,0,2.05,0-1.91-.15-3.38-.73-5.14.15-2.2,1.03-2.79,3.08-2.35,5.28.15.44.44,1.32.44,1.61,0-.59-.44.73-.29.29q-.29.29-.88.59c.29,0,.44-.15.15-.15-.44-.15.44.15.44.15-1.91-.73-4.4-.59-5.28,1.47-.88,2.05.59,3.82,2.35,4.99,2.94,1.76,7.04.88,9.39-1.47,1.03-1.03,1.91-2.49,2.2-3.96.15-.73.15-1.32,0-2.05,0-.29-.15-.73-.29-1.17-.44-1.03.44-.44-.59.29-.59.29-1.17.59-1.61,1.03-1.03-.15-1.17,0-.44.15.29,0,.59,0,.73.15,1.03.15,2.05,0,2.94-.29,1.61-.73,2.64-2.05,2.79-3.67.15-.44,0-.88.15-1.32,0-.29,0-.59,0-.88,0,.29-.29.59-.73.73.15.15,3.82-1.17,3.96-1.32,2.79-1.32,4.11-4.4,3.96-7.48-.15-3.38-2.2-6.31-4.84-8.37-2.79-2.2-6.31-3.38-9.39-5.28-2.79-1.61-5.58-3.52-8.37-5.43-5.14-3.96-9.83-8.66-16.58-9.83-1.76-.29-3.82.59-3.96,2.49.73,1.61,2.49,3.08,4.11,3.52h0Z"/><path class="cls-1" d="m272.69,552.25c1.47-5.58,2.94-11.15,4.55-16.88.59-2.35,2.79-9.25,6.16-7.34,2.35,1.17,5.87-.29,5.28-3.23-.88-4.7,2.05-9.39,5.87-12.03,4.99-3.52,11.45-4.4,17.46-5.43,2.05-.29,2.94-2.94,2.05-4.7-1.03-2.2-3.38-2.79-5.43-2.49-7.34,1.17-14.82,2.79-20.69,7.48-4.99,4.11-8.51,10.57-7.19,17.17,1.76-1.17,3.52-2.05,5.28-3.23-6.31-3.38-12.92,1.17-15.26,7.04-1.32,3.38-2.05,7.04-2.94,10.57-.88,3.82-1.91,7.48-2.79,11.3-.44,1.91,1.76,3.82,3.52,4.11,1.91.73,3.52-.29,4.11-2.35h0Z"/><path class="cls-1" d="m269.17,555.19c5.43,2.49,11.59,4.55,17.76,3.96,5.28-.29,10.57-2.35,14.82-5.43,8.95-6.6,13.94-16.88,14.97-27.88.59-6.46.15-12.77-1.03-18.93-.88-4.4-9.1-4.7-8.22.29,2.05,11.45,2.05,24.66-4.99,34.34-3.23,4.4-7.78,8.07-12.92,9.69-5.87,1.76-11.89.15-17.46-1.91-1.76-.59-3.96-.44-4.84,1.32-1.03,1.91.29,3.82,1.91,4.55h0Z"/><path class="cls-1" d="m276.21,551.08c3.08-2.79,6.16-5.58,9.1-8.51.73-.73,1.47-1.47,2.2-2.2.59-.59,1.47-1.76,2.05-2.05.44-.15,1.17,0,1.76,0,.88,0,1.91-.15,2.94-.29,3.38-.73,6.6-3.08,7.78-6.31.59-1.47.88-3.23.59-4.99-.15-1.32-1.32-2.79-1.32-3.96,0,.59-.15,1.32-.29,1.76.44-1.32,1.61-2.2,2.35-3.23.88-1.17,1.76-2.35,2.79-3.67,1.76-2.35,3.67-4.84,5.43-7.19,2.79-3.67-3.67-8.37-6.46-4.99-3.38,4.26-6.6,8.66-9.69,12.92-1.61,2.2-2.64,4.11-1.32,6.9.73,1.32.88,2.64,0,4.11-1.17,1.76-3.08,2.2-4.84,2.2-2.79.15-4.55,1.32-6.6,3.08-3.96,3.96-8.07,8.07-11.89,12.18-2.79,3.08,2.64,6.75,5.43,4.26h0Z"/><path class="cls-1" d="m287.51,402.41c.88-.88,1.61-1.61,2.64-2.35q.15-.15,0,0l.29-.29c.15-.15.44-.44.73-.44.59-.29.88-.59,1.47-.88,0,0,.88-.29.59-.29-.44.15.44-.15.44-.15,0,0,1.03-.15.44-.15-.44.15.59,0,.59,0,.29,0,.59,0,0,0,.29,0,.59,0,1.03.15.29,0,.88.29.29,0,.29,0,.59.29.88.29.15.15.44.15.73.44.15.15.73.44.15.15.59.29,1.17.88,1.76,1.17,1.17.88,2.35,1.76,3.38,2.79.59.59-.73-.73.44.44l.59.59c.59.59,1.03,1.03,1.47,1.76.88,1.17,1.91,2.49,2.94,3.52,1.32,1.61,3.82,2.35,5.72,1.32,1.91-1.03,1.91-3.38.59-4.99-2.2-3.08-4.7-5.87-7.48-8.37-2.49-2.2-5.28-4.4-8.51-5.58-3.67-1.32-7.04-1.17-10.57.29-2.64,1.17-4.84,3.38-7.04,5.58-1.47,1.47-.73,3.96.73,5.14,1.76,1.17,3.96,1.32,5.72-.15h0Z"/><path class="cls-1" d="m210.17,561.06c-24.07-20.84-47.4-44.47-58.7-74.85-10.13-26.86-8.51-57.24,1.76-83.95,2.79-7.48,6.46-14.68,10.57-21.43,2.05-3.52,4.26-6.9,6.75-9.98,2.2-2.79,5.14-6.02,8.81-6.46,2.05-.29,3.96-1.61,3.52-3.82-.29-2.05-2.64-3.82-4.84-3.67-8.51,1.17-13.65,7.78-18.2,14.38-4.26,6.31-8.07,13.06-11.3,20.11-6.16,13.8-10.27,28.47-11.74,43.44-1.32,15.12,0,30.53,4.26,45.06,4.99,16.44,13.36,31.26,23.78,44.91,11.74,15.26,25.83,28.77,40.95,40.65,3.52,2.94,7.93-1.17,4.4-4.4h0Z"/><path class="cls-1" d="m153.66,491.93c2.94-3.82,6.16-7.34,9.1-11.15,2.94-3.82,6.02-7.48,8.95-11.3,6.02-7.48,12.03-14.97,18.05-22.45,12.03-14.68,24.07-29.35,36.25-44.18,6.9-8.37,14.09-16.73,21.28-25.1,3.08-3.67-3.52-8.51-6.46-4.99-24.8,29.21-48.87,58.85-72.35,89.08-3.38,4.26-6.6,8.66-9.98,12.92-3.23,4.4-6.31,8.95-9.69,13.21-2.2,3.08,2.79,6.6,4.84,3.96h0Z"/><path class="cls-1" d="m173.48,533.76c-2.35,3.23-4.55,6.31-5.28,10.27-.88,4.11.73,8.37,3.38,11.59,2.79,3.38,6.31,6.31,9.54,9.25,1.76,1.76,3.52,3.23,5.28,4.99,1.91,1.91,3.67,3.67,6.16,4.99,2.49,1.32,6.6-1.03,4.84-3.96-2.2-3.67-5.72-6.31-8.81-9.1-2.94-2.64-6.02-5.43-8.81-8.22-1.91-1.91-3.82-4.11-3.38-6.9.44-2.79,2.2-5.43,3.82-7.63,1.17-1.76.88-3.82-.73-5.14-1.76-1.17-4.7-1.76-6.02-.15h0Z"/><path class="cls-1" d="m203.12,318.9c-2.35-11.15-6.31-22.16-11.45-32.29-1.32-2.49-6.02-3.96-7.34-.59-5.43,13.65-10.27,27.59-14.68,41.68,2.35,0,4.55-.15,6.9-.15-5.28-7.34-10.71-14.82-16-22.16-1.47-2.05-5.87-2.64-6.9.15-5.14,12.47-9.25,25.68-12.18,38.89,2.35-.29,4.84-.73,7.19-1.03-4.84-5.14-9.69-9.98-14.53-15.12-1.61-1.61-5.87-2.94-6.9.15-6.16,18.49-10.71,37.42-13.8,56.65,2.64,0,5.14-.15,7.78-.15-4.7-7.63-9.39-15.26-14.09-22.89-1.03-1.61-2.35-2.64-4.4-2.64-1.61.15-3.23,1.17-3.38,2.79-2.2,26.27-1.32,52.69,2.64,78.66,1.76-1.17,3.67-2.2,5.43-3.38-8.22-3.52-16-8.37-22.45-14.53-2.49-2.2-6.9-.73-6.6,2.79,1.47,9.98,2.94,19.96,5.14,29.79,2.35,9.98,6.6,18.64,12.77,26.86,6.02,8.07,12.92,15.56,19.96,22.89,7.34,7.63,14.82,15.12,22.75,22.16,8.81,7.93,17.9,15.26,27.3,22.31,1.61,1.32,4.26,1.61,5.72-.15,1.47-1.47.88-4.11-.88-5.28-16.14-12.03-31.41-25.24-45.5-39.63-7.04-7.34-13.94-14.82-20.4-22.75-5.87-7.34-10.71-14.82-13.06-23.92-2.94-10.57-4.55-21.57-6.02-32.43-2.2,1.03-4.26,1.91-6.6,2.79,7.19,6.6,15.41,11.89,24.51,15.7,2.49,1.03,6.02-.15,5.43-3.38-3.96-25.39-4.84-51.22-2.79-76.76-2.64,0-5.14.15-7.78.15,4.7,7.63,9.39,15.26,14.09,22.89,1.03,1.61,2.35,2.64,4.4,2.64,1.61-.15,3.23-1.17,3.38-2.79,2.94-18.49,7.34-36.98,13.21-54.89-2.35,0-4.55.15-6.9.15,4.84,5.14,9.69,9.98,14.53,15.12,2.2,2.2,6.31,2.49,7.19-1.03,2.94-12.62,6.75-24.95,11.74-36.98-2.35,0-4.55.15-6.9.15,5.28,7.34,10.71,14.82,16,22.16,1.32,1.91,6.02,2.79,6.9-.15,4.4-14.09,9.1-27.88,14.53-41.53-2.49-.15-4.84-.44-7.34-.59,4.99,9.69,8.81,19.96,11.59,30.38.44,1.91,2.05,3.23,4.11,3.23,2.35-.59,4.11-2.05,3.67-3.96h0Z"/><path class="cls-1" d="m205.18,320.37c5.28-11.45,10.27-22.89,15.56-34.34-2.64-.59-5.14-1.03-7.78-1.61,3.82,15.85,8.07,31.55,12.77,47.11.59,1.76,1.76,3.23,3.67,3.38,1.47.29,3.67-.15,4.26-1.91,4.11-11.74,10.42-22.16,18.64-31.26-2.49-.73-4.84-1.61-7.34-2.35,1.47,14.09,3.23,28.18,4.7,42.27.29,3.23.73,6.31,1.76,9.39,1.03,3.08,2.94,5.87,4.99,8.51,4.26,5.43,8.51,10.86,12.77,16.29,4.84,6.31,9.69,12.62,14.82,18.93,1.32,1.61,4.11,2.35,5.87,1.17,1.91-1.03,2.05-3.52.73-5.14-8.37-10.71-16.88-21.57-25.24-32.29-1.76-2.35-3.96-4.55-5.14-7.19-1.32-2.49-1.47-5.58-1.91-8.37-.73-6.9-1.61-13.65-2.35-20.55-.88-7.63-1.76-15.56-2.64-23.19-.29-3.23-5.14-4.84-7.34-2.35-8.66,9.54-15.26,20.84-19.67,32.87,2.64.59,5.28,1.17,7.78,1.61-4.7-15.56-9.25-31.26-13.06-47.11-.73-3.08-6.02-5.14-7.78-1.61-4.99,11.45-10.27,22.89-15.26,34.34-1.91,4.26,5.43,7.48,7.19,3.38h0Z"/><path class="cls-1" d="m203.86,532.73c8.66-7.78,17.17-15.7,25.39-23.92,1.47-1.47.59-4.11-.88-5.28-1.61-1.32-4.11-1.47-5.72.15-8.51,7.93-16.88,16-25.1,24.22-1.47,1.47-.59,3.82.73,4.84,1.76,1.47,3.96,1.32,5.58,0h0Z"/><path class="cls-1" d="m269.75,460.67c4.55-4.84,8.95-9.54,13.5-14.38,2.2-2.49,4.4-4.7,6.6-7.19,2.2-2.49,4.7-4.7,6.75-7.34,2.94-3.82-3.23-7.93-6.46-4.99-2.49,2.2-4.55,4.84-6.75,7.34-2.2,2.49-4.4,4.7-6.6,7.19-4.55,4.84-8.81,9.69-13.21,14.68-3.23,3.23,3.08,7.78,6.16,4.7h0Z"/><path class="cls-1" d="m207.23,522.9c1.61,2.49,3.23,4.99,5.43,6.9,2.2,1.91,5.43,3.38,8.51,2.94,3.38-.44,6.02-2.2,7.63-4.99,1.47-2.35,1.91-5.43,1.32-8.37-.44-1.91-1.17-3.52-2.2-5.14-.88-1.47-2.05-2.94-3.38-3.96-1.47-1.17-3.52-1.47-5.14-.15-1.32,1.03-1.47,3.23-.29,4.4l.88.88c.15.15.44.44,0,0s.15.15.29.29c.44.44.88.88,1.17,1.47.15.15.59.88.29.29s.15.15.15.44c.29.59.44,1.03.59,1.47.29.88-.15-.44,0,0,0,.29.15.44.29.88,0,.29.15.44.15.73v.29c0-.29,0-.59-.15-.15,0,.59,0,.88-.15,1.32-.15.73.29-.59,0,0,0,.29-.15.44-.29.88-.15.15-.15.44-.44.73l-.15.15c-.15.44.29-.59.15-.15-.29.29-.59.88-1.03,1.03l-.29.29s.73-.44.29-.29c-.15.15-.29.29-.59.29-.15.15-.88.29-.29.29.59-.29-.29,0-.44.15h-.29c-.44.15.73-.15.29,0-.29,0-.59,0-.59,0-.59,0,1.03.15,0,0-.29,0-1.17-.29-.29,0,.73.15,0,0-.15-.15s-.44-.15-.59-.29c-.73-.44.73.44.15.15-.15-.15-.44-.44-.73-.44l-.59-.59c-.59-.59.59.59,0,0-.44-.44-.88-.88-1.17-1.47-.73-1.03-1.32-1.91-2.05-2.94-.44-.73-1.61-1.32-2.49-1.61-.73-.15-1.47,0-2.2.15-1.47.88-2.49,2.79-1.61,4.26h0Z"/><path class="cls-1" d="m273.28,452.45c3.08,3.96,7.78,8.66,13.36,8.07,3.23-.29,5.72-2.2,7.34-4.99,1.32-2.49,1.61-5.43,1.03-8.07-.73-3.08-2.35-5.87-4.4-8.51-.44-.44-.73-1.03-1.17-1.47-.73-.73-1.32-1.32-2.49-1.61-.88-.29-2.35-.29-3.23.29-1.47.88-1.76,2.64-1.03,4.26.29.88,1.03,1.61,1.76,2.35.44.44.73,1.03,1.03,1.61.15.15.29.29.15.44,0,0-.44-.73-.15-.15.29.29.29.59.59.88.29.59.59,1.17.88,1.76.15.15.15.73.15.15-.15-.44,0,0,.15.15.15.44.15.73.29,1.17,0,.29,0,.59.15.73.15.44,0-.59,0-.29-.15.15,0,.29-.15.44,0,.29,0,.59-.15.73s0,.29-.15.44-.15.73,0,.29c.29-.59,0,.29-.15.44,0,.29-.29.59-.29.88q-.15.15-.15.44c-.15.44-.29,0,.15-.15l-.59.59-.29.29s-.59.59-.15.15,0,0,0,0c-.15.15-.29.29-.44.15-.29.29-.15-.15.29,0-.15-.15-.44.15-.44.15h-.29c-.73.15.88,0,.15-.15-.29,0-.59,0-.88,0,.88,0,.73.15.44.15-.15-.15-.29,0-.44-.15s-.29,0-.44-.15c-.44-.15,1.03.44.44.15-.29,0-.59-.29-.88-.29l-.15-.15c-.59-.29.88.59.15.15-.15-.15-.59-.29-.73-.44-.44-.44-1.03-.73-1.47-1.17-.15-.15-.15-.44.29.29l-.44-.44-.73-.73c-.44-.44-.88-.88-1.17-1.47-1.17-1.47-3.67-2.2-5.28-1.17-1.61.44-1.61,2.5-.44,3.96h0Z"/><path class="cls-1" d="m194.02,523.78c4.99-5.87,9.69-12.03,14.24-18.35,2.2-3.08,4.55-6.31,6.75-9.39-.15.15,1.17-1.47.59-1.17.15-.15,1.91.15,2.2.15,1.91.15,3.96.44,6.16,0,3.23-.88,2.64-5.28-.15-6.31-2.2-.73-4.55-.73-6.75-.88-1.91-.15-3.82-.29-5.43.44-1.91,1.03-2.94,2.94-4.11,4.7-1.17,1.76-2.49,3.67-3.67,5.43-4.99,7.04-10.13,13.94-15.12,20.99-2.64,3.52,2.79,7.48,5.28,4.4h0Z"/><path class="cls-1" d="m259.33,457c0-2.05-.29-4.11-.44-6.31-.15-.73-.15-1.61,0-2.35,0-.59-.15-1.03-.15-1.61-.29.29-.15.15.29-.29.59-.59,1.91-1.32,2.64-1.76.73-.44,1.32-.73,1.91-1.32,1.61-1.03,3.23-2.05,4.99-3.23,3.23-2.05,6.31-4.26,9.39-6.16,1.61-1.03,3.08-1.91,4.55-3.08,1.76-1.17,3.67-2.2,4.84-3.96.73-1.03-.15-2.79-.88-3.52-1.03-1.03-2.49-1.32-3.96-1.03-2.05.29-3.82,2.05-5.58,3.23-1.76,1.17-3.67,2.49-5.43,3.67-3.52,2.35-7.19,4.84-10.71,7.19-1.76,1.17-3.52,2.35-5.28,3.52-1.76,1.17-3.67,2.2-4.11,4.4-.44,1.91,0,4.11.15,6.31.15,2.2.29,4.4.44,6.6.44,3.96,7.48,4.26,7.34-.29h0Z"/><path class="cls-1" d="m313.05,561.5c1.17-.59,2.49-1.03,3.82-1.76,1.03-.73,2.2-1.61,3.23-2.64,2.05-2.05,3.23-4.4,3.96-7.19.15-.73-.29-1.76-.73-2.49-.59-.59-1.17-1.17-1.91-1.32-1.32-.44-3.67-.15-4.11,1.47-.44,1.61-1.32,3.08-2.2,4.55.15-.15.29-.59.44-.73-.73,1.03-1.61,2.2-2.64,2.94l-.29.29q-.15.15,0,0c.29-.29.15-.15-.44.44l-.29.29q.29-.29,0,0c-.44.44-1.03.73-1.61,1.03-1.32.73-1.32,2.49-.73,3.67.29.88,2.05,2.05,3.52,1.47h0Z"/><path class="cls-1" d="m193.44,518.79c-1.32-1.03-2.94-2.05-4.26-3.08-.73-.44-1.32-1.03-2.2-1.61-.88-.59-1.91-1.61-3.08-1.91-.88-.29-1.61-.44-2.49-.44-.73.15-1.61.44-2.2,1.03-1.03,1.32-1.03,3.08,0,4.4.73,1.03,1.76,1.47,2.79,2.2.73.44,1.32,1.03,2.2,1.61,1.47.88,2.94,2.05,4.4,2.94.88.59,1.91,1.03,3.08,1.03.88,0,1.91-.44,2.49-1.03,1.32-1.61.88-3.82-.73-5.14h0Z"/><path class="cls-1" d="m185.22,516.74c3.96-5.43,7.93-10.86,11.74-16.14,1.76-2.64,3.52-5.28,5.43-8.07.88-1.47,1.91-2.79,2.94-4.4s2.2-3.08,2.49-4.84c.44-3.08-3.82-5.28-6.16-3.82-2.49,1.61-4.11,5.28-5.87,7.93-1.91,2.79-3.82,5.58-5.58,8.22-3.67,5.43-7.48,10.71-11.15,16.14-1.17,1.76-.73,3.67.88,4.99,1.47,1.17,4.26,1.61,5.28,0h0Z"/><path class="cls-1" d="m202.68,485.77c3.82,1.76,7.78,3.67,11.74,5.58,1.61.73,3.38,1.61,4.99,2.35.44.15,1.03.44,1.32.73.15.15.29.29.44.15-1.17-.59.88.29,1.17.29.44.15-1.03-.44-.88-.29,1.76.88,4.55.44,5.28-1.47.88-2.05-.44-3.96-2.35-4.99h0c.44.44,1.17.88,1.61,1.32-1.03-1.03-2.35-1.76-3.82-2.35-1.61-.73-3.38-1.61-4.99-2.35-3.96-1.91-7.78-3.67-11.74-5.28-1.61-.73-4.4-.59-4.99,1.47-.73,1.91.44,3.96,2.2,4.84h0Z"/><path class="cls-1" d="m257.72,455.68c-1.76-3.52-3.23-7.04-4.55-10.71-.59-1.76-1.47-3.52-2.05-5.28-.73-2.2-1.17-3.52-1.91-5.72-.59-1.76-3.08-2.79-4.84-2.49-1.61.15-3.23,1.76-2.79,3.67,2.2,7.78,5.43,15.41,8.81,22.6.88,1.76,3.23,2.94,4.99,2.35,2.05-.59,3.08-2.49,2.35-4.4h0Z"/><path class="cls-1" d="m247.59,435.87c2.35-2.05,5.14-3.38,7.63-4.99,2.49-1.61,5.28-3.23,7.93-4.7,5.28-2.94,10.86-5.58,16.58-7.48,4.99-1.76,1.17-8.51-3.38-7.19-6.46,2.05-12.47,5.14-18.35,8.37-2.79,1.61-5.72,3.38-8.37,5.14-2.94,1.76-5.72,3.67-8.22,6.16-1.47,1.47-.59,3.82.73,4.84,1.76,1.17,3.96,1.32,5.43-.15h0Z"/><path class="cls-1" d="m287.95,424.57c-.88-1.76-1.76-3.23-2.64-4.99-1.03-1.91-1.91-3.96-3.08-5.72-.59-.88-1.91-1.61-2.79-1.61-.73-.15-1.76,0-2.64.29-.59.29-1.47.88-1.61,1.61-.44,1.03-.29,1.76.15,2.79.29.88.73,1.61,1.17,2.35.44.73.88,1.76,1.32,2.49.73,1.61,1.76,3.23,2.64,4.99.44,1.03,1.17,1.76,2.2,2.2.88.29,2.05.59,3.23.29.88-.29,1.76-.88,2.05-1.76.29-1.17.44-2.2,0-2.94h0Z"/></g></svg>