<?xml version="1.0" encoding="UTF-8"?><svg id="Ebene_2" xmlns="http://www.w3.org/2000/svg" viewBox="0 0 708 724.83"><defs><style>.cls-1{fill:#e2504b;stroke-width:0px;}</style></defs><g id="Ebene_1-2"><path class="cls-1" d="m290.52,718.89c.21-1.4-.31-2.95-1.13-3.32-.89-.29-1.92.01-2.58.68-.95,1.11-1.54,2.45-1.68,3.92-.07,1.55.02,3.1.54,4.65,2.58-1.42,4.49-3.35,4.84-5.94Z"/><path class="cls-1" d="m412.92,246.49c-7.06-6.98-18.43-6.92-25.42.14l-47.84,48.36c3.04,2.13,5.64,4.7,7.8,7.72l47.84-48.36c2.72-2.75,7.23-2.85,10.05-.05l12.63,12.49,7.72-7.8-12.7-12.57-.07.07Z"/><path class="cls-1" d="m292.12,342.89l-47.84,48.36c-6.98,7.06-6.92,18.43.14,25.42l12.78,12.64,7.72-7.8-12.78-12.64c-2.75-2.72-2.85-7.23-.05-10.05l47.84-48.36c-2.97-2.05-5.57-4.62-7.8-7.57h0Z"/><path class="cls-1" d="m567.71,124.78l.6,1.33,2.25,5.31-32.07,13.55-28.95,29.27,8.17,8.08,45.71-46.2c26.57,22.91,42.44,47.57,46.05,71.57,2.76,18.75-3.01,30.68-3.01,30.83l-1.9,3.7,87.2,86.27-83.99,84.9-35.95-35.57-35.79,36.17-.37.37c-13.87,16.99-24.08,14.09-26.38,13.15l-24.22-23.96-4.04,4.09c-1.03,1.04-3.01,2.75-4.49,2.46-2.14-.36-4.68-3.89-5.87-6.25l-1.57-3.46-3.69.02c-2.81.02-4.81-.64-6.14-1.96-1.41-1.69-2.16-3.76-2.17-5.97l.06-2.59-16.86-16.68-15.21,15.38-19.91-60.55-15.97-15.8,80.24-81.11-8.17-8.08-88.33,89.28,22.14,21.9,24.94,75.82,20.35-20.58,5.27,5.22c.39,4.36,2.26,8.41,5.23,11.65,2.9,3.01,6.82,4.84,11.04,5.33,2.16,3.46,6.4,8.54,12.46,9.69,3.55.57,7.17-.11,10.26-2.05l17.68,17.49.52.37c.82.51,19.57,11.72,41.59-15.3l27.48-27.78,35.95,35.57,100.16-101.24-89.73-88.77c1.96-5.7,4.78-17.31,2.7-32.74-4.84-35.22-31.38-63.96-53.27-82.09Z"/><path class="cls-1" d="m469.43,230.96l.07.07,12.2-12.33,29.34,29.03c.81-1.41,1.61-2.82,2.49-4.15l4.45,3.23,4.45,3.23h0c-1.25,1.85-2.34,3.85-3.29,5.85l39.59,39.17,6.28-27.89,29.21-9.02-96.93-95.9-18.36,7.71-35.27,35.65,25.77,25.35h0Zm15.09-9.76l-10.77-10.66-4.34,4.38-9.43-9.33,31.97-32.31,80.52,79.66-17.11,5.26-3.17,14.2-70.57-69.81-.22.22,10.77,10.66-7.64,7.73Z"/><polygon class="cls-1" points="481.39 202.68 478.49 199.81 470.78 207.61 473.68 210.48 484.52 221.2 492.24 213.4 481.39 202.68"/><path class="cls-1" d="m538.41,144.89l32.07-13.55-2.25-5.31-.6-1.33c-28.87-65.75-105.58-95.63-171.25-66.68-64.79,28.5-94.9,103.65-67.65,168.97l2.25,5.31,148.02-62.42,18.36-7.71,41.06-17.29Zm-135.92-77.58c58.24-24.55,125.46.95,152.73,57.91l-218.05,91.9c-21.52-59.36,7.16-125.2,65.32-149.82Z"/><path class="cls-1" d="m221.26,465.63l8.1,8.01-12.2,12.33.07.07,92.66-93.67,15.9,15.73,60.84,19.33-15.21,15.38,15,14.84,1.78,1.76,2.51-.16c2.22-.01,4.29.72,6,2.11,1.34,1.32,2.01,3.31,2.03,6.12l.02,3.69,3.48,1.53c1.93.88,5.86,3.44,6.31,5.66.3,1.48-1.39,3.48-2.41,4.52l-4.04,4.09,24.22,23.96c.97,2.29,4.06,12.54-12.86,26.52l-36.15,36.55,35.95,35.57-83.92,84.83-84.01-83.11-2.97-2.94-3.68,1.94c-.07.07-12.08,5.98-30.79,3.34-23.96-3.27-48.79-18.87-72.06-45.27l45.85-46.35-8.17-8.08-29.17,29.49-13.2,32.21-5.33-2.19-1.33-.58c18.44,21.62,47.47,47.84,82.74,52.31,15.45,1.91,26.96-.96,32.71-3.06l89.66,88.69,100.08-101.17-35.88-35.49,27.48-27.78c26.63-22.31,15.29-41.01,14.85-41.75l-.37-.52-17.6-17.42c1.9-3.11,2.62-6.66,1.94-10.28-1.22-6.2-6.34-10.24-9.82-12.36-.47-4.13-2.48-8.04-5.45-10.98-3.27-2.94-7.34-4.62-11.7-5.11l-5.27-5.22,20.35-20.58-76.08-24.12-22.14-21.9-88.62,89.58-.07-.07Z"/><path class="cls-1" d="m173.5,513.91l84.53,83.62,8.56-28.86,27.52-6.58-40.04-39.61c-1.92,1.04-2.95,1.79-3.02,1.86l-6.55-8.83c.07-.07.59-.45,1.4-.97l-26.07-25.79-7.72,7.8,60.17,59.52-14.46,3.48-5.23,17.46-81.04-80.17,32.41-32.76,9.8,9.7-4.48,4.53,7.8,7.72,12.2-12.33-25.4-25.13-35.57,35.95-7.07,17.4,12.26,11.98Z"/><polygon class="cls-1" points="209.43 478.32 206.24 475.16 198.6 482.89 201.79 486.05 212.34 496.48 219.98 488.76 217.31 486.11 217.16 485.97 209.43 478.32"/><path class="cls-1" d="m131.2,575.68l13.13-32.28,17.06-41.61,7.07-17.4,61.11-149.43-5.33-2.19c-66.35-27.42-142.43,4.02-169.92,70.29-27.5,66.27,3.94,142.35,70.22,169.85l1.33.58,5.33,2.19Zm-65.43-76.63c-25.3-60.3,2.99-129.76,63.37-155.13,27.13-11.38,57.56-12.28,85.32-2.45l-89.55,219.03c-26.74-12.34-47.77-34.32-59.14-61.45h0Z"/><rect class="cls-1" x="5.08" y="477.93" width="26.33" height="12.54" transform="translate(-168.41 37.05) rotate(-20.5)"/><rect class="cls-1" x="9.32" y="429.12" width="12.54" height="30.41" transform="translate(-428.76 429.66) rotate(-86.1)"/><rect class="cls-1" x="22.9" y="389.28" width="12.54" height="22.78" transform="translate(-368.7 345.14) rotate(-77.89)"/><rect class="cls-1" x="41.61" y="345.19" width="12.54" height="25.08" transform="translate(-279.3 205.38) rotate(-57.41)"/><rect class="cls-1" x="75.98" y="307.58" width="12.54" height="25.81" transform="translate(-184.58 124.84) rotate(-39.36)"/><rect class="cls-1" x="122.07" y="283.86" width="12.54" height="24.55" transform="translate(-87.44 56.12) rotate(-18.53)"/><rect class="cls-1" x="172.3" y="280.93" width="12.54" height="25.7" transform="translate(-29.16 19.84) rotate(-5.88)"/><rect class="cls-1" x="281.91" y="169.38" width="12.54" height="25.91" transform="translate(94.92 463.31) rotate(-87.8)"/><rect class="cls-1" x="292.94" y="119.6" width="12.54" height="27.59" transform="translate(84.33 380.66) rotate(-73.04)"/><rect class="cls-1" x="317.04" y="71.15" width="12.54" height="23.51" transform="translate(95.58 326.92) rotate(-61.36)"/><rect class="cls-1" x="356.2" y="30.53" width="12.54" height="23.93" transform="translate(56.47 241.38) rotate(-39.71)"/><rect class="cls-1" x="404.89" y="8.17" width="12.54" height="22.46" transform="translate(13.03 123.92) rotate(-17.41)"/><rect class="cls-1" x="448.25" y="6.7" width="25.6" height="12.54" transform="translate(435.54 473.49) rotate(-88.44)"/><rect class="cls-1" x="494.69" y="25.23" width="24.03" height="12.54" transform="translate(162.56 404.73) rotate(-50.88)"/><polygon class="cls-1" points="373.19 620.48 351.42 625.1 348.79 645.14 328.93 647.69 324.49 673.13 335.28 674.99 338.37 657.46 358.6 654.84 361.22 634.21 384.02 629.29 384.46 600.77 373.52 600.53 373.19 620.48"/><polygon class="cls-1" points="652.64 337.99 630.8 342.69 628.25 362.66 608.31 365.27 603.94 390.64 614.67 392.58 617.75 375.05 637.98 372.43 640.67 351.73 663.4 346.88 663.84 318.35 652.91 318.12 652.64 337.99"/><path class="cls-1" d="m339.59,294.91c-15.35-10.93-36.69-7.34-47.61,8.01-8.51,12.01-8.49,28.05.22,39.9,2.16,3.02,4.76,5.59,7.8,7.72,15.35,10.93,36.69,7.34,47.61-8.01,8.51-12.01,8.49-28.05-.22-39.9-2.23-2.94-4.83-5.52-7.8-7.72h0Zm-3.31,44.2c-9.04,9.14-23.67,9.22-32.8.18-9.14-9.04-9.22-23.67-.18-32.8,9.04-9.14,23.67-9.22,32.8-.18,9.06,8.96,9.22,23.67.18,32.8Z"/><path class="cls-1" d="m89.28,502.47l-.9-1.77-1.79-3.54-1.5-3.69-.75-1.77-.67-1.84-1.28-3.76-.98-3.76c-.15-.59-.38-1.25-.45-1.92l-.38-1.99c-.23-1.25-.53-2.58-.76-3.84l-.54-3.91c-.08-.66-.15-1.33-.23-1.99l-.16-1.92c-.08-1.26-.16-2.66-.24-3.91l-.02-3.84c0-.59,0-1.33-.01-1.92l.14-1.92c.07-1.26.13-2.66.2-3.92l.42-3.84c.07-.67.14-1.33.29-1.92l.29-1.92.72-3.85.94-3.77.43-1.92.51-1.85,1.16-3.7,1.38-3.63.65-1.85.73-1.78,1.53-3.48,1.75-3.41.88-1.78.95-1.7,1.98-3.34,2.05-3.26,1.03-1.63,1.1-1.56,2.2-3.11,2.42-3.04,1.17-1.48,1.25-1.41,2.2-3.11,2.42-3.04,1.17-1.48,1.32-1.48,2.5-2.97c1.84-1.86,3.53-3.86,5.44-5.64l2.87-2.75,2.94-2.68,1.47-1.34,1.54-1.26,3.09-2.53,3.16-2.46,1.62-1.19,1.62-1.19,3.24-2.23,3.31-2.16,1.69-1.12,1.69-.97,3.46-2.01-3.69,1.5-1.84.82-1.84.82-3.61,1.72-3.54,1.79-1.77.9-1.77,1.04-3.54,1.94-3.46,2.16-1.69,1.12-1.69,1.12-3.39,2.23-3.24,2.38c-2.28,1.56-4.34,3.35-6.47,5.06l-3.09,2.68-1.54,1.41c-.44.45-.96.97-1.47,1.49l-2.94,2.82-2.87,3.04-1.32,1.63-1.17,1.63-2.35,3.41-2.2,3.56-1.1,1.71-1.02,1.78-1.98,3.63-1.75,3.7-.95,1.85-.8,1.85-1.6,3.85-1.38,3.92-.73,1.92-.58,1.92-1.09,3.92-.79,3.77-.51,2-.36,2-.64,4.07-.42,3.99-.21,2c-.07.67-.07,1.4-.06,2l-.13,4.14c0,1.33.01,2.66.1,4.06v2.07c.09.66.09,1.4.17,2.07l.24,4.06c.15,1.33.31,2.66.54,4.06l.23,1.99c.08.66.3,1.33.38,1.99l.83,4.06c.3,1.33.68,2.58.98,3.91l.53,1.99c.23.66.38,1.25.6,1.92l1.28,3.76,1.5,3.69.82,1.84.9,1.77,1.79,3.54,2.01,3.46,1.04,1.77,1.19,1.62,2.31,3.31-2.09-3.39-1.04-1.77Z"/><path class="cls-1" d="m399.73,89.85c18.05-10.22,39.15-14.47,59.12-10.88,5.1.34,10.2.98,15.23,1.99,5.03,1.01,10.13,2.38,15.17,3.83,10.14,2.97,19.99,6.84,29.91,10.63-9.34-5.12-18.6-10.32-28.3-14.77-4.89-2.19-9.85-4.31-15.03-6.05-5.18-1.75-10.51-3.19-15.83-4.35-2.74-.35-5.47-.41-8.28-.55l-4.14.02c-1.4.08-2.81.16-4.14.17-5.46.47-10.93,1.39-16.24,2.75-10.55,2.79-20.57,7.28-29.7,13.39-8.98,5.96-17,13.32-23.9,21.63-6.75,8.31-12.39,17.28-16.77,27.06,5.05-9.26,11.21-17.87,18.48-25.52,7.05-7.57,15.37-14.05,24.43-19.34Z"/><rect class="cls-1" x="328.86" y="364.57" width="12.54" height="20.58" transform="translate(-46.92 47.94) rotate(-7.65)"/><rect class="cls-1" x="353" y="349.84" width="12.54" height="23.72" transform="translate(-150.54 362.73) rotate(-45.31)"/><rect class="cls-1" x="365.1" y="326.01" width="12.54" height="20.38" transform="translate(17.55 690.82) rotate(-87.22)"/><path class="cls-1" d="m542.31,360.53l7.12-8.39c-25.76-22.1-38.15-45.97-36.81-70.95.54-8.87,2.71-17.45,6.66-25.45.95-2,2.05-4,3.29-5.85h0l-4.45-3.23-4.45-3.23c-.88,1.33-1.83,2.74-2.49,4.15-5.41,9.93-8.53,20.96-9.28,32.26-2.47,36.07,20.66,63.8,40.41,80.68Z"/><path class="cls-1" d="m353.67,550.17l8.24-7.14c-31.07-35.44-61.1-41.19-80.97-39.68-12.33.88-24.28,4.79-34.81,11.27-.81.52-1.33.89-1.4.97l6.55,8.83s1.03-.74,3.02-1.86c8.47-4.7,17.91-7.56,27.59-8.28,25.04-1.98,49.19,10.15,71.79,35.89Z"/><polygon class="cls-1" points="473.52 496.48 471.63 475.06 459.07 475.28 460.96 497.58 473.52 496.48"/><polygon class="cls-1" points="468.49 440.21 456.01 441.38 457.89 462.8 470.53 462.51 468.49 440.21"/><polygon class="cls-1" points="496.82 474.56 496.6 462 470.53 462.51 457.89 462.8 438.91 463.12 439.12 475.68 459.07 475.28 471.63 475.06 496.82 474.56"/></g></svg>