<svg xmlns="http://www.w3.org/2000/svg" id="Ebene_2" version="1.1" viewBox="10 100 710 525"><defs id="defs4"><style id="style2">.cls-1{fill:#e2504b;stroke-width:0}</style></defs><g id="Ebene_1-2"><path id="path6" d="M57.044 569.588c1.139-.841 1.867-2.305 1.549-3.146-.424-.835-1.365-1.35-2.305-1.344a7.007 7.007 0 0 0-3.96 1.584c-1.146 1.047-2.178 2.206-2.906 3.67 2.828.82 5.543.806 7.622-.778z" class="cls-1"/><path id="path8" d="M477.631 322.101c-.056-9.928-8.138-17.925-18.073-17.876l-68.024.368c.643 3.656.665 7.312.057 10.974l68.023-.367c3.868-.022 7.128 3.097 7.142 7.07l.1 17.763 10.973-.056-.092-17.869h-.099z" class="cls-1"/><path id="path10" d="m324.048 304.848-68.024.367c-9.928.057-17.925 8.14-17.876 18.074l.1 17.975 10.974-.057-.1-17.975c-.02-3.868 3.098-7.127 7.072-7.141l68.023-.368c-.65-3.55-.671-7.206-.162-10.868z" class="cls-1"/><path id="path12" d="m673.146 345.492-.516 1.365-2.164 5.346-32.258-13.096-41.168.226.064 11.49 64.99-.346c2.588 34.988-3.627 63.647-18.045 83.17-11.307 15.21-23.823 19.566-23.929 19.672l-3.96 1.273.658 122.661-119.423.644-.269-50.572-50.883.268h-.523c-21.822 2.206-26.99-7.064-27.952-9.355l-.184-34.068-5.749.035c-1.464.007-4.073-.184-4.914-1.435-1.259-1.768-.559-6.06.268-8.57l1.337-3.557-2.624-2.595c-2-1.973-2.948-3.854-2.955-5.728a9.286 9.286 0 0 1 2.687-5.756l1.874-1.788-.128-23.717-21.63.12 28.737-56.893-.12-22.465 114.091-.615-.063-11.49-125.59.67.17 31.142-35.978 71.248 28.942-.163.036 7.418c-2.808 3.359-4.349 7.545-4.54 11.936-.078 4.179 1.4 8.245 4.038 11.575-.92 3.974-1.514 10.564 1.958 15.663 2.108 2.913 5.148 4.992 8.705 5.805l.134 24.869.106.63c.22.94 5.551 22.125 40.228 18.589l39.074-.212.269 50.572 142.411-.764-.679-126.218c5.417-2.645 15.62-8.86 25.06-21.242 21.482-28.326 23.038-67.415 20.38-95.714z" class="cls-1"/><path id="path14" d="M528.571 351.078v.1l17.346-.093.219 41.274c1.57-.424 3.132-.855 4.695-1.174l.863 5.431.862 5.43c-2.192.425-4.377 1.068-6.463 1.81l.297 55.692 24.162-15.28 27.033 14.276-.728-136.351-18.435-7.53-50.148.268zm17.572 3.77-.078-15.154-6.166.028-.07-13.265 45.452-.24.608 113.264-15.818-8.38-12.282 7.8-.537-99.264h-.312l.078 15.154-10.868.063z" class="cls-1"/><path id="polygon16" d="m478.49 199.81-7.71 7.8 2.9 2.87 10.84 10.72 7.72-7.8-10.85-10.72z" class="cls-1" transform="rotate(45 354.005 362.409)"/><path id="path18" d="m638.208 338.994 32.258 13.095 2.164-5.345.516-1.365c26.078-66.906-7.035-142.277-73.942-168.242-65.966-25.66-140.396 6.187-167.315 71.644l-2.164 5.346 148.803 60.528 18.435 7.53 41.26 16.809zm-41.252-150.967c58.541 23.822 88.041 89.385 67.047 148.944L444.836 247.77c26.757-57.19 93.592-83.467 152.127-59.75z" class="cls-1"/><path id="path20" d="m187.152 341.532.063 11.392-17.345.092v.099l131.755-.714.12 22.365 29.353 56.69-21.63.12.112 21.1.015 2.502 1.887 1.662a9.33 9.33 0 0 1 2.751 5.735c.014 1.88-.92 3.762-2.892 5.763l-2.595 2.623 1.379 3.543c.742 1.987 1.711 6.576.46 8.464-.835 1.258-3.444 1.478-4.9 1.492l-5.75.035.184 34.069c-.933 2.305-5.996 11.738-27.846 9.659l-51.406.283.268 50.572-119.324.643-.636-118.171-.021-4.18-3.974-1.23c-.1 0-12.77-4.313-24.134-19.41-14.63-19.254-21.157-47.843-18.943-82.965l65.195-.353-.064-11.49-41.479.226-32.11 13.442-2.22-5.318-.53-1.35c-2.249 28.326-.262 67.394 21.517 95.494 9.575 12.276 19.743 18.385 25.294 20.966l.685 126.113 142.306-.771-.276-50.466 39.075-.213c34.605 3.055 39.81-18.186 40.022-19.02l.106-.63-.127-24.763c3.542-.855 6.562-2.857 8.64-5.897 3.522-5.247 2.758-11.724 1.797-15.684 2.588-3.252 3.931-7.439 3.91-11.618-.233-4.39-1.923-8.457-4.66-11.886l-.035-7.418 28.942-.162-36.742-70.852-.17-31.141-126.006.679v-.1z" class="cls-1"/><path id="path22" d="m119.241 341.9.644 118.9 26.46-14.354 24.112 14.807-.304-56.321c-2.093-.623-3.352-.82-3.45-.82l1.612-10.876c.099 0 .735.099 1.675.304l-.198-36.67-10.974.056.46 84.634-12.686-7.764-16.044 8.648-.615-113.993 46.082-.248.07 13.789-6.37.035.056 10.975 17.346-.092-.191-35.73-50.573.268-17.303 7.305.198 17.14z" class="cls-1"/><path id="polygon24" d="m206.24 475.16-7.64 7.73 3.19 3.16 10.55 10.43 7.64-7.72-2.67-2.65-.15-.14-7.73-7.65z" class="cls-1" transform="rotate(45 354.005 362.409)"/><path id="path26" d="m45.653 355.667 32.11-13.54 41.485-17.36 17.303-7.305 148.875-62.451-2.22-5.318c-27.528-66.305-103.557-97.87-169.855-70.449C47.046 206.66 15.481 282.687 42.902 349l.53 1.35zm7.92-100.451c24.748-60.529 93.868-89.64 154.502-64.884 27.23 11.137 49.385 32.017 62.063 58.598l-218.2 91.556c-10.181-27.634-9.51-58.047 1.634-85.27" class="cls-1"/><path id="rect28" d="M102.111 173.196h26.33v12.54h-26.33z" class="cls-1" transform="rotate(24.5)"/><path id="rect30" d="M-82.489 158.554h12.54v30.41h-12.54z" class="cls-1" transform="rotate(-41.1)"/><path id="rect32" d="M-11.366 175.589h12.54v22.78h-12.54z" class="cls-1" transform="rotate(-32.89)"/><path id="rect34" d="M100.651 157.041h12.54v25.08h-12.54z" class="cls-1" transform="rotate(-12.41)"/><path id="rect36" d="M198.131 108.195h12.54v25.81h-12.54z" class="cls-1" transform="rotate(5.64)"/><path id="rect38" d="M279.28 19.785h12.54v24.55h-12.54z" class="cls-1" transform="rotate(26.47)"/><path id="rect40" d="M329.553-41.282h12.54v25.7h-12.54z" class="cls-1" transform="rotate(39.12)"/><path id="rect42" d="M184.646 420.795h12.54v25.91h-12.54z" class="cls-1" transform="rotate(-42.8)"/><path id="rect44" d="M338.905 353.26h12.54v27.59h-12.54z" class="cls-1" transform="rotate(-28.04)"/><path id="rect46" d="M461.914 274.782h12.54v23.51h-12.54z" class="cls-1" transform="rotate(-16.36)"/><path id="rect48" d="M590.546 75.555h12.54v23.93h-12.54z" class="cls-1" transform="rotate(5.29)"/><path id="rect50" d="M632.489-164.173h12.54v22.46h-12.54z" class="cls-1" transform="rotate(27.59)"/><path id="rect52" d="M347.281 597.784h25.6v12.54h-25.6z" class="cls-1" transform="rotate(-43.44)"/><path id="rect54" d="M656.08 300.173h24.03v12.54h-24.03z" class="cls-1" transform="rotate(-5.88)"/><path id="polygon56" d="m351.42 625.1-2.63 20.04-19.86 2.55-4.44 25.44 10.79 1.86 3.09-17.53 20.23-2.62 2.62-20.63 22.8-4.92.44-28.52-10.94-.24-.33 19.95z" class="cls-1" transform="rotate(45 354.005 362.409)"/><path id="polygon58" d="m630.8 342.69-2.55 19.97-19.94 2.61-4.37 25.37 10.73 1.94 3.08-17.53 20.23-2.62 2.69-20.7 22.73-4.85.44-28.53-10.93-.23-.27 19.87z" class="cls-1" transform="rotate(45 354.005 362.409)"/><path id="path60" d="M391.541 304.487c-3.125-18.583-20.753-31.134-39.33-28.001-14.509 2.474-25.837 13.83-28.057 28.369a32.31 32.31 0 0 0 .056 10.974c3.126 18.583 20.754 31.134 39.33 28.001 14.51-2.474 25.837-13.83 28.058-28.369a38.557 38.557 0 0 0-.057-10.974m-33.595 28.914c-12.855.07-23.256-10.218-23.32-23.066-.07-12.855 10.218-23.257 23.066-23.32 12.855-.071 23.257 10.217 23.32 23.065.071 12.742-10.217 23.257-23.066 23.32" class="cls-1"/><path id="path62" d="m67.778 274.258.615-1.888 1.238-3.769 1.548-3.67.722-1.781.827-1.775 1.753-3.564 1.966-3.352c.311-.523.615-1.152 1.04-1.676l1.138-1.675c.721-1.047 1.45-2.2 2.178-3.253l2.383-3.147c.41-.523.834-1.046 1.244-1.57l1.245-1.47c.834-.948 1.768-1.994 2.595-2.935l2.701-2.73c.417-.416.94-.94 1.35-1.364l1.457-1.259c.94-.841 1.973-1.789 2.914-2.63l3.012-2.418c.523-.425 1.04-.842 1.563-1.153l1.562-1.153 3.232-2.213 3.33-2 1.662-1.055 1.669-.947 3.436-1.796 3.543-1.591 1.768-.849 1.775-.742 3.542-1.379 3.649-1.174 1.88-.636 1.875-.53 3.761-.962 3.755-.856 1.881-.424 1.88-.325 3.756-.644 3.86-.438 1.874-.22 1.881-.112 3.755-.644 3.86-.438 1.875-.22 1.98-.113 3.867-.332c2.617-.014 5.226-.233 7.835-.141l3.974.084 3.974.184 1.987.092 1.98.198 3.974.396 3.974.495 1.987.304 1.987.304 3.868.714 3.867.814 1.987.403 1.881.509 3.868 1.025-3.67-1.549-1.88-.72-1.882-.722-3.768-1.337-3.77-1.237-1.887-.615-1.987-.516-3.875-1.132-3.974-.919-1.987-.403-1.987-.403-3.974-.82-3.974-.608c-2.715-.51-5.438-.7-8.153-.997l-4.08-.29-2.086-.092c-.63.007-1.365.007-2.093.014l-4.073-.085-4.179.12-2.086.22-1.98.325-4.073.75-4.073.961-1.987.431-1.98.538-3.966 1.166-3.854 1.38-1.98.636-1.874.742-3.853 1.591-3.748 1.796-1.874.842-1.768.947-3.542 2.001-3.225 2.107-1.775 1.054-1.668 1.16-3.33 2.425-3.12 2.524-1.562 1.266c-.523.424-1.04.94-1.457 1.372l-3.019 2.835c-.94.94-1.874 1.888-2.8 2.942l-1.464 1.464c-.403.53-.926 1.053-1.343 1.584l-2.701 3.04a79.8 79.8 0 0 0-2.49 3.253l-1.244 1.57c-.41.523-.728 1.152-1.138 1.676l-2.284 3.457c-.729 1.153-1.344 2.305-2.072 3.458l-1.033 1.782c-.304.63-.615 1.153-.933 1.782l-1.754 3.564-1.548 3.67-.721 1.88-.616 1.888-1.237 3.77-1.025 3.867-.516 1.987-.304 1.987-.708 3.974.92-3.875.516-1.987z" class="cls-1"/><path id="path64" d="M579.066 202.013c19.99 5.537 37.915 17.451 49.497 34.11 3.366 3.848 6.52 7.906 9.362 12.177 2.843 4.271 5.48 8.846 8.019 13.435 5.07 9.27 9.298 18.972 13.633 28.666-2.984-10.224-5.855-20.45-9.567-30.455-1.91-5.006-3.918-10.012-6.35-14.905-2.425-4.9-5.176-9.688-8.118-14.27-1.69-2.185-3.578-4.158-5.466-6.244l-2.941-2.913c-1.047-.933-2.1-1.874-3.048-2.807a100.367 100.367 0 0 0-13.428-9.539 98.674 98.674 0 0 0-30.469-11.533c-10.564-2.135-21.44-2.602-32.194-1.605-10.65 1.103-20.98 3.458-30.993 7.276 10.119-2.977 20.563-4.71 31.113-4.978 10.338-.368 20.803.933 30.95 3.6z" class="cls-1"/><path id="rect66" d="M474.647 72.855h12.54v20.58h-12.54z" class="cls-1" transform="rotate(37.35)"/><path id="rect68" d="M349.979 355.692h12.54v23.72h-12.54z" class="cls-1" transform="rotate(-.31)"/><path id="rect70" d="M39.391 512.152h12.54v20.38h-12.54z" class="cls-1" transform="rotate(-42.22)"/><path id="path72" d="m488.485 494.232 10.968-.898c-2.588-33.842 5.53-59.482 24.14-76.198 6.654-5.89 14.256-10.423 22.705-13.286 2.086-.743 4.278-1.38 6.463-1.81l-.862-5.431-.863-5.43c-1.563.317-3.231.643-4.695 1.173-10.847 3.196-20.853 8.79-29.373 16.25-27.252 23.758-30.505 59.722-28.475 85.623z" class="cls-1"/><path id="path74" d="m221.001 494.94 10.875.777c3.09-47.03-14.078-72.33-29.196-85.312-9.34-8.097-20.556-13.782-32.584-16.646-.94-.205-1.57-.31-1.675-.304l-1.613 10.875s1.252.206 3.451.82c9.313 2.667 18.01 7.32 25.364 13.655 19.106 16.306 27.605 41.96 25.385 76.141z" class="cls-1"/><path id="polygon76" d="m471.63 475.06-12.56.22 1.89 22.3 12.56-1.1z" class="cls-1" transform="rotate(45 354.005 362.409)"/><path id="polygon78" d="m456.01 441.38 1.88 21.42 12.64-.29-2.04-22.3z" class="cls-1" transform="rotate(45 354.005 362.409)"/><path id="polygon80" d="m496.6 462-26.07.51-12.64.29-18.98.32.21 12.56 19.95-.4 12.56-.22 25.19-.5z" class="cls-1" transform="rotate(45 354.005 362.409)"/></g></svg>