<?xml version="1.0" encoding="UTF-8" standalone="no"?>
<svg
   id="Ebene_1"
   viewBox="0 0 1234 373.99999"
   version="1.1"
   sodipodi:docname="wikibase_cloud_rgb_NormalBorder.svg"
   width="1234"
   height="374"
   inkscape:export-filename="wikibase_cloud_rgb_240px_border.png"
   inkscape:export-xdpi="97.480148"
   inkscape:export-ydpi="97.480148"
   inkscape:version="1.2.1 (9c6d41e410, 2022-07-14)"
   xmlns:inkscape="http://www.inkscape.org/namespaces/inkscape"
   xmlns:sodipodi="http://sodipodi.sourceforge.net/DTD/sodipodi-0.dtd"
   xmlns:xlink="http://www.w3.org/1999/xlink"
   xmlns="http://www.w3.org/2000/svg"
   xmlns:svg="http://www.w3.org/2000/svg">
  <sodipodi:namedview
     id="namedview90"
     pagecolor="#ffffff"
     bordercolor="#000000"
     borderopacity="0.25"
     inkscape:showpageshadow="2"
     inkscape:pageopacity="0.0"
     inkscape:pagecheckerboard="0"
     inkscape:deskcolor="#d1d1d1"
     showgrid="false"
     inkscape:zoom="0.43151932"
     inkscape:cx="253.75457"
     inkscape:cy="176.12189"
     inkscape:window-width="1920"
     inkscape:window-height="1043"
     inkscape:window-x="0"
     inkscape:window-y="0"
     inkscape:window-maximized="1"
     inkscape:current-layer="Ebene_1" />
  <defs
     id="defs47">
    <style
       id="style2">.cls-1{fill:url(#Neues_Verlaufsfeld_17-2);}.cls-2{fill:#0063bf;}.cls-3{fill:#396;}.cls-4{fill:url(#Neues_Verlaufsfeld_16);}.cls-5{fill:url(#Neues_Verlaufsfeld_17);}.cls-6{fill:url(#Neues_Verlaufsfeld_15);}.cls-7{fill:url(#Unbenannter_Verlauf_3);}</style>
    <linearGradient
       id="Neues_Verlaufsfeld_17"
       x1="501.20001"
       y1="630.39001"
       x2="751.14001"
       y2="630.39001"
       gradientUnits="userSpaceOnUse">
      <stop
         offset="0"
         stop-color="#59a4d9"
         id="stop4" />
      <stop
         offset=".08"
         stop-color="#4d9bd5"
         id="stop6" />
      <stop
         offset=".34"
         stop-color="#2b83cb"
         id="stop8" />
      <stop
         offset=".58"
         stop-color="#1371c4"
         id="stop10" />
      <stop
         offset=".81"
         stop-color="#0566c0"
         id="stop12" />
      <stop
         offset="1"
         stop-color="#0063bf"
         id="stop14" />
    </linearGradient>
    <linearGradient
       id="Neues_Verlaufsfeld_16"
       x1="194.97"
       y1="630.39001"
       x2="671.95001"
       y2="630.39001"
       gradientUnits="userSpaceOnUse">
      <stop
         offset="0"
         stop-color="#5cb075"
         id="stop17" />
      <stop
         offset="0"
         stop-color="#5baf74"
         id="stop19" />
      <stop
         offset=".36"
         stop-color="#45a36c"
         id="stop21" />
      <stop
         offset=".7"
         stop-color="#379b67"
         id="stop23" />
      <stop
         offset="1"
         stop-color="#396"
         id="stop25" />
    </linearGradient>
    <linearGradient
       id="Neues_Verlaufsfeld_17-2"
       x1="501.20001"
       y1="631.39001"
       x2="751.14001"
       y2="631.39001"
       xlink:href="#Neues_Verlaufsfeld_17" />
    <linearGradient
       id="Unbenannter_Verlauf_3"
       x1="401.06"
       y1="631.39001"
       x2="602.65997"
       y2="631.39001"
       gradientUnits="userSpaceOnUse">
      <stop
         offset="0"
         stop-color="#396"
         id="stop29" />
      <stop
         offset=".15"
         stop-color="#396"
         id="stop31" />
      <stop
         offset="1"
         stop-color="#396"
         id="stop33" />
    </linearGradient>
    <linearGradient
       id="Neues_Verlaufsfeld_15"
       x1="338.98001"
       y1="630.39001"
       x2="463.57999"
       y2="630.39001"
       gradientUnits="userSpaceOnUse">
      <stop
         offset="0"
         stop-color="#cd2e29"
         id="stop36" />
      <stop
         offset=".19"
         stop-color="#ba1d1a"
         id="stop38" />
      <stop
         offset=".44"
         stop-color="#a70c0b"
         id="stop40" />
      <stop
         offset=".71"
         stop-color="#9c0302"
         id="stop42" />
      <stop
         offset="1"
         stop-color="#900"
         id="stop44" />
    </linearGradient>
    <linearGradient
       inkscape:collect="always"
       xlink:href="#Neues_Verlaufsfeld_17"
       id="linearGradient2482"
       gradientUnits="userSpaceOnUse"
       x1="501.20001"
       y1="630.39001"
       x2="751.14001"
       y2="630.39001" />
  </defs>
  <g
     id="g2478"
     transform="matrix(0.96020164,0,0,0.96020164,-259.71091,-418.30271)"
     inkscape:export-filename="wikibase_cloud_rgb@240px-noBorder.png"
     inkscape:export-xdpi="97.480148"
     inkscape:export-ydpi="97.480148">
    <g
       id="g65">
      <path
         class="cls-2"
         d="m 958.72,530.51 -28.83,88.13 h -21.91 l -19.39,-59.68 -20.02,59.68 h -21.78 l -28.96,-88.13 h 21.15 l 19.89,61.94 20.77,-61.94 h 18.89 l 20.14,62.45 20.52,-62.45 h 19.51 z"
         id="path49" />
      <path
         class="cls-2"
         d="m 970.05,530.51 h 20.4 v 88.13 h -20.4 z"
         id="path51" />
      <path
         class="cls-2"
         d="m 1043.45,584.02 -11.83,12.34 v 22.28 h -20.27 v -88.13 h 20.27 v 41.17 l 39.03,-41.17 h 22.66 l -36.51,39.28 38.65,48.85 h -23.79 l -28.2,-34.62 z"
         id="path53" />
      <path
         class="cls-2"
         d="m 1104.51,530.51 h 20.4 v 88.13 h -20.4 z"
         id="path55" />
      <path
         class="cls-2"
         d="m 1226.63,594.59 c 0,15.23 -12.09,24.05 -35.25,24.05 h -45.58 v -88.13 h 43.06 c 22.03,0 33.36,9.19 33.36,22.91 0,8.81 -4.53,15.61 -11.71,19.39 9.82,3.15 16.12,10.7 16.12,21.78 z m -60.56,-48.72 v 20.77 h 20.27 c 9.95,0 15.36,-3.53 15.36,-10.45 0,-6.92 -5.41,-10.32 -15.36,-10.32 z m 40.04,46.58 c 0,-7.43 -5.67,-10.95 -16.24,-10.95 h -23.79 v 21.78 h 23.79 c 10.58,0 16.24,-3.27 16.24,-10.83 z"
         id="path57" />
      <path
         class="cls-2"
         d="m 1300.16,599.76 h -40.92 l -7.81,18.88 h -20.9 l 39.28,-88.13 h 20.14 l 39.41,88.13 h -21.4 l -7.81,-18.88 z m -6.42,-15.49 -13.98,-33.74 -13.97,33.74 z"
         id="path59" />
      <path
         class="cls-2"
         d="m 1331.64,609.95 6.92,-15.36 c 7.43,5.41 18.51,9.19 29.08,9.19 12.09,0 17,-4.03 17,-9.44 0,-16.49 -51.24,-5.16 -51.24,-37.9 0,-14.98 12.09,-27.45 37.14,-27.45 11.08,0 22.41,2.64 30.59,7.81 l -6.3,15.49 c -8.18,-4.66 -16.62,-6.92 -24.42,-6.92 -12.09,0 -16.75,4.53 -16.75,10.07 0,16.24 51.24,5.04 51.24,37.39 0,14.73 -12.21,27.32 -37.39,27.32 -13.98,0 -28.08,-4.15 -35.88,-10.2 z"
         id="path61" />
      <path
         class="cls-2"
         d="m 1487.12,602.27 v 16.37 h -68.24 v -88.13 h 66.6 v 16.37 h -46.33 v 19.14 h 40.92 v 15.86 h -40.92 v 20.4 h 47.97 z"
         id="path63" />
    </g>
    <g
       id="g77">
      <path
         class="cls-3"
         d="m 823.7,687.59 c 0,-26.56 20.4,-45.58 47.84,-45.58 15.23,0 27.95,5.54 36.26,15.61 l -13.09,12.09 c -5.92,-6.8 -13.35,-10.32 -22.16,-10.32 -16.49,0 -28.2,11.58 -28.2,28.2 0,16.62 11.71,28.2 28.2,28.2 8.81,0 16.24,-3.53 22.16,-10.45 l 13.09,12.09 c -8.31,10.2 -21.03,15.74 -36.39,15.74 -27.32,0 -47.72,-19.01 -47.72,-45.58 z"
         id="path67" />
      <path
         class="cls-3"
         d="m 921.53,643.53 h 20.4 v 71.51 h 44.19 v 16.62 h -64.59 z"
         id="path69" />
      <path
         class="cls-3"
         d="m 990.52,687.59 c 0,-26.19 20.4,-45.58 48.22,-45.58 27.82,0 48.22,19.26 48.22,45.58 0,26.32 -20.52,45.58 -48.22,45.58 -27.7,0 -48.22,-19.39 -48.22,-45.58 z m 75.79,0 c 0,-16.74 -11.83,-28.2 -27.57,-28.2 -15.74,0 -27.57,11.46 -27.57,28.2 0,16.74 11.83,28.2 27.57,28.2 15.74,0 27.57,-11.46 27.57,-28.2 z"
         id="path71" />
      <path
         class="cls-3"
         d="m 1101.56,692.88 v -49.35 h 20.4 v 48.6 c 0,16.74 7.3,23.67 19.64,23.67 12.34,0 19.64,-6.92 19.64,-23.67 v -48.6 h 20.14 v 49.35 c 0,25.94 -14.86,40.29 -39.91,40.29 -25.05,0 -39.91,-14.35 -39.91,-40.29 z"
         id="path73" />
      <path
         class="cls-3"
         d="m 1201.53,643.53 h 40.04 c 28.83,0 48.6,17.37 48.6,44.06 0,26.69 -19.77,44.07 -48.6,44.07 h -40.04 z m 39.03,71.38 c 17.5,0 28.96,-10.45 28.96,-27.32 0,-16.87 -11.46,-27.32 -28.96,-27.32 h -18.63 v 54.64 z"
         id="path75" />
    </g>
    <path
       class="cls-5"
       d="M 748.51,624.04 632.52,508.05 c -3.5,-3.51 -9.19,-3.51 -12.69,0 l -67.9,67.9 48.1,48.1 c 3.5,3.51 3.5,9.19 0,12.69 l -48.1,48.1 67.9,67.9 c 3.51,3.5 9.19,3.5 12.69,0 L 748.51,636.75 c 3.5,-3.5 3.5,-9.19 0,-12.69 z"
       id="path79"
       style="fill:url(#linearGradient2482)" />
    <path
       class="cls-4"
       d="m 501.3,631.4 c -0.08,-0.68 -0.08,-1.35 0,-2.03 0.22,-1.95 1.04,-3.84 2.53,-5.33 l 48.1,-48.1 -43.72,-43.72 c -1.9,-1.9 -4.42,-2.73 -6.91,-2.58 -2.11,0.13 -4.18,0.97 -5.79,2.58 l -63.38,63.38 29.08,29.08 c 3.15,3.15 3.15,8.27 0,11.42 l -29.08,29.08 63.38,63.38 c 1.61,1.61 3.68,2.44 5.79,2.58 2.48,0.15 5.01,-0.68 6.91,-2.58 l 43.72,-43.72 -48.1,-48.1 c -1.49,-1.49 -2.31,-3.39 -2.53,-5.33 z"
       id="path81"
       style="fill:url(#Neues_Verlaufsfeld_16)" />
    <path
       class="cls-1"
       d="m 501.3,632.4 v -2.03 c -0.08,0.68 -0.08,1.35 0,2.03 z"
       id="path83"
       style="fill:url(#Neues_Verlaufsfeld_17-2)" />
    <path
       class="cls-7"
       d="m 501.3,632.4 v -2.03 c -0.08,0.68 -0.08,1.35 0,2.03 z"
       id="path85"
       style="fill:url(#Unbenannter_Verlauf_3)" />
    <path
       class="cls-6"
       d="m 403.69,624.04 28.45,-28.45 -25.15,-25.15 c -3.15,-3.15 -8.27,-3.15 -11.42,0 l -54.23,54.23 c -3.15,3.15 -3.15,8.27 0,11.42 l 54.23,54.23 c 3.15,3.15 8.27,3.15 11.42,0 l 25.15,-25.15 -28.45,-28.45 c -3.5,-3.5 -3.5,-9.19 0,-12.69 z"
       id="path87"
       style="fill:url(#Neues_Verlaufsfeld_15)" />
  </g>
</svg>
